STARTFONT 2.3
FONT -FontForge-Pacifico-Book-R-Normal--9-90-72-72-P-52-ISO10646-1
SIZE 9 72 72  4
FONTBOUNDINGBOX 21 20 -6 -5
COMMENT "Generated by fontforge, http://fontforge.sourceforge.net"
COMMENT "Copyright 2018 The Pacifico Project Authors (https://github.com/googlefonts/Pacifico)"
STARTPROPERTIES 41
FOUNDRY "FontForge"
FAMILY_NAME "Pacifico"
WEIGHT_NAME "Book"
SLANT "R"
SETWIDTH_NAME "Normal"
ADD_STYLE_NAME ""
PIXEL_SIZE 9
POINT_SIZE 90
RESOLUTION_X 72
RESOLUTION_Y 72
SPACING "P"
AVERAGE_WIDTH 52
CHARSET_REGISTRY "ISO10646"
CHARSET_ENCODING "1"
FONTNAME_REGISTRY ""
CHARSET_COLLECTIONS "ISO8859-2 ISO8859-5 ISO8859-9 ISO8859-4 ISO10646-1"
BITS_PER_PIXEL 4
FONT_NAME "Pacifico-Regular"
FACE_NAME "Pacifico Regular"
COPYRIGHT "Copyright 2018 The Pacifico Project Authors (https://github.com/googlefonts/Pacifico)"
FONT_VERSION "3.001"
FONT_ASCENT 7
FONT_DESCENT 2
UNDERLINE_POSITION -1
UNDERLINE_THICKNESS 1
X_HEIGHT 4
CAP_HEIGHT 8
DEFAULT_CHAR 1
RAW_ASCENT 800
RAW_DESCENT 200
NORM_SPACE 2
RELATIVE_WEIGHT 40
RELATIVE_SETWIDTH 50
SUPERSCRIPT_X 0
SUPERSCRIPT_Y 3
SUPERSCRIPT_SIZE 5
SUBSCRIPT_X 0
SUBSCRIPT_Y 0
SUBSCRIPT_SIZE 5
AVG_LOWERCASE_WIDTH 42
AVG_UPPERCASE_WIDTH 72
ENDPROPERTIES
CHARS 1514
STARTCHAR NULL.dup1
ENCODING 0
SWIDTH 0 0
DWIDTH 0 0
BBX 1 1 0 0
BITMAP
00
ENDCHAR
STARTCHAR nonmarkingreturn
ENCODING 13
SWIDTH 265 0
DWIDTH 2 0
BBX 1 1 0 0
BITMAP
00
ENDCHAR
STARTCHAR space
ENCODING 32
SWIDTH 265 0
DWIDTH 2 0
BBX 1 1 0 0
BITMAP
00
ENDCHAR
STARTCHAR exclam
ENCODING 33
SWIDTH 340 0
DWIDTH 3 0
BBX 4 9 0 0
BITMAP
00D3
03F1
06D0
0990
0B50
0D10
0500
7B00
8B00
ENDCHAR
STARTCHAR quotedbl
ENCODING 34
SWIDTH 510 0
DWIDTH 5 0
BBX 4 4 1 5
BITMAP
9797
C7D7
E5E4
D1D1
ENDCHAR
STARTCHAR numbersign
ENCODING 35
SWIDTH 700 0
DWIDTH 6 0
BBX 7 7 0 0
BITMAP
00413200
00E2B500
4FFFFF10
09A6C200
9FFFFA00
1F4D6100
1C0B1000
ENDCHAR
STARTCHAR dollar
ENCODING 36
SWIDTH 524 0
DWIDTH 5 0
BBX 5 9 0 -1
BITMAP
007300
0AFC10
4DAB50
3EB100
07FA00
64BE30
8CCE10
08A200
045000
ENDCHAR
STARTCHAR percent
ENCODING 37
SWIDTH 896 0
DWIDTH 8 0
BBX 8 8 0 0
BITMAP
1CC10930
68D56E10
88AEF800
2CB3E100
000987E6
002E2E3D
00A82E3C
00C10AE4
ENDCHAR
STARTCHAR ampersand
ENCODING 38
SWIDTH 851 0
DWIDTH 8 0
BBX 8 10 0 -1
BITMAP
008EC100
03F4C500
05C0C500
03F8D100
02ED2000
2E9F40B5
7C08E9C0
8D44FF20
1AED9E90
00000250
ENDCHAR
STARTCHAR quotesingle
ENCODING 39
SWIDTH 290 0
DWIDTH 3 0
BBX 2 4 1 5
BITMAP
97
C7
E5
D1
ENDCHAR
STARTCHAR parenleft
ENCODING 40
SWIDTH 613 0
DWIDTH 6 0
BBX 7 12 0 -2
BITMAP
0007EE50
007E4550
01E40000
06D00000
0A800000
0E400000
1F200000
2F100000
2F100000
0E53C000
07FF6000
00110000
ENDCHAR
STARTCHAR parenright
ENCODING 41
SWIDTH 613 0
DWIDTH 6 0
BBX 7 12 -1 -2
BITMAP
005ED400
01D48D00
00102F00
00002F10
00004F00
00006D00
00009900
0000D600
0004E100
422D7000
7FF90000
01100000
ENDCHAR
STARTCHAR asterisk
ENCODING 42
SWIDTH 520 0
DWIDTH 5 0
BBX 4 5 1 5
BITMAP
7670
4DC9
CDC2
0C65
0200
ENDCHAR
STARTCHAR plus
ENCODING 43
SWIDTH 700 0
DWIDTH 6 0
BBX 6 7 0 0
BITMAP
000500
001E00
003D00
2FFFF9
038A31
007800
007500
ENDCHAR
STARTCHAR comma
ENCODING 44
SWIDTH 257 0
DWIDTH 2 0
BBX 2 4 0 -2
BITMAP
24
9B
B7
B1
ENDCHAR
STARTCHAR hyphen
ENCODING 45
SWIDTH 403 0
DWIDTH 4 0
BBX 4 2 0 2
BITMAP
1461
5BA2
ENDCHAR
STARTCHAR period
ENCODING 46
SWIDTH 257 0
DWIDTH 2 0
BBX 2 2 0 0
BITMAP
8A
8B
ENDCHAR
STARTCHAR slash
ENCODING 47
SWIDTH 509 0
DWIDTH 5 0
BBX 5 10 0 0
BITMAP
0001C0
0007B0
000E40
006C00
00C600
04E000
0B7000
3E1000
A90000
C20000
ENDCHAR
STARTCHAR zero
ENCODING 48
SWIDTH 543 0
DWIDTH 5 0
BBX 5 6 0 0
BITMAP
07EB10
2E4C60
7A0980
890A70
6C4E30
1BE700
ENDCHAR
STARTCHAR one
ENCODING 49
SWIDTH 376 0
DWIDTH 3 0
BBX 3 7 0 0
BITMAP
0360
5FE0
39C0
08A0
0990
0B70
0A40
ENDCHAR
STARTCHAR two
ENCODING 50
SWIDTH 560 0
DWIDTH 5 0
BBX 5 6 0 0
BITMAP
08EC20
2E4C70
160C50
008C00
1BC310
8FFF80
ENDCHAR
STARTCHAR three
ENCODING 51
SWIDTH 520 0
DWIDTH 5 0
BBX 5 6 0 0
BITMAP
1AEC10
6B3E50
127C10
02AC10
A74F40
5DE900
ENDCHAR
STARTCHAR four
ENCODING 52
SWIDTH 577 0
DWIDTH 5 0
BBX 5 7 0 0
BITMAP
006000
07B000
0E4960
5D0D40
8FFFD0
134F20
001C00
ENDCHAR
STARTCHAR five
ENCODING 53
SWIDTH 518 0
DWIDTH 5 0
BBX 5 6 0 0
BITMAP
3EFF60
1F3200
3FE800
135F30
8A4F20
3DE800
ENDCHAR
STARTCHAR six
ENCODING 54
SWIDTH 541 0
DWIDTH 5 0
BBX 5 6 0 0
BITMAP
05DD30
2E4770
7DDB00
8E4E40
6D4E30
1BE900
ENDCHAR
STARTCHAR seven
ENCODING 55
SWIDTH 497 0
DWIDTH 4 0
BBX 5 6 0 0
BITMAP
7FFF90
127D20
02E300
08A000
0C6000
0B3000
ENDCHAR
STARTCHAR eight
ENCODING 56
SWIDTH 512 0
DWIDTH 5 0
BBX 5 6 0 0
BITMAP
0AEC10
4E3C50
2E8C10
3CAD10
9A3E30
4DE900
ENDCHAR
STARTCHAR nine
ENCODING 57
SWIDTH 541 0
DWIDTH 5 0
BBX 5 6 0 0
BITMAP
09EB10
4E4D60
2EFE80
321C70
9A5F20
3DE600
ENDCHAR
STARTCHAR colon
ENCODING 58
SWIDTH 257 0
DWIDTH 2 0
BBX 3 5 0 0
BITMAP
3D10
4E10
0000
8A00
8B00
ENDCHAR
STARTCHAR semicolon
ENCODING 59
SWIDTH 257 0
DWIDTH 2 0
BBX 3 7 0 -2
BITMAP
3D10
4E10
0000
2400
9B00
B700
B100
ENDCHAR
STARTCHAR less
ENCODING 60
SWIDTH 700 0
DWIDTH 6 0
BBX 6 5 0 1
BITMAP
0003AB
05CE92
3FB100
06DD71
0006C5
ENDCHAR
STARTCHAR equal
ENCODING 61
SWIDTH 700 0
DWIDTH 6 0
BBX 6 4 0 1
BITMAP
1EFFFB
022221
4FFFF7
022220
ENDCHAR
STARTCHAR greater
ENCODING 62
SWIDTH 700 0
DWIDTH 6 0
BBX 6 5 0 1
BITMAP
0D8200
04BF92
0006F9
06CE81
5C6100
ENDCHAR
STARTCHAR question
ENCODING 63
SWIDTH 476 0
DWIDTH 4 0
BBX 5 9 0 0
BITMAP
07ED30
1E4CA0
180C80
006E10
03E300
086000
041000
3D2000
4E1000
ENDCHAR
STARTCHAR at
ENCODING 64
SWIDTH 1015 0
DWIDTH 9 0
BBX 9 12 0 -4
BITMAP
0018DEC500
01CB537E30
09B00007A0
2F22CB33C0
6C0C9C54C0
992F1E2790
A83E5F4D40
8A0CC8E700
4E10000000
0CC3027D00
01AFFFB400
0000200000
ENDCHAR
STARTCHAR A
ENCODING 65
SWIDTH 786 0
DWIDTH 7 0
BBX 9 9 0 0
BITMAP
0018DFD500
01CD656200
09C10A8000
1F400E6000
5E002F3000
7D005F1000
7D00BF0210
3F77DF6C20
08EB2CE600
ENDCHAR
STARTCHAR B
ENCODING 66
SWIDTH 827 0
DWIDTH 7 0
BBX 8 10 0 -1
BITMAP
05BEFD91
AD7325D9
31B2009B
04F015E6
07C3FE60
09A04C90
0B8009C0
0D837E70
0EFFC700
06100000
ENDCHAR
STARTCHAR C
ENCODING 67
SWIDTH 686 0
DWIDTH 6 0
BBX 8 9 0 0
BITMAP
005DE900
05E64F30
0D700E40
3F200700
5E000000
6E000000
4F300000
0CC435B3
01AEEC70
ENDCHAR
STARTCHAR D
ENCODING 68
SWIDTH 836 0
DWIDTH 8 0
BBX 8 9 0 0
BITMAP
06CFE910
8D635DB0
11B104F3
05E000F5
08B001F4
0A9003F2
0D700AC0
0E749E30
0CFEA300
ENDCHAR
STARTCHAR E
ENCODING 69
SWIDTH 686 0
DWIDTH 6 0
BBX 8 9 0 0
BITMAP
008EE900
08E43E40
0C800C60
0AB10710
04FF3000
4E730000
AA000000
8E5236B3
18DFEC70
ENDCHAR
STARTCHAR F
ENCODING 70
SWIDTH 712 0
DWIDTH 6 0
BBX 9 9 0 0
BITMAP
029DFFED40
1E57D22200
3E07C00000
1909A00000
008FFFA000
001C821000
100E500000
D47F100000
5ED5000000
ENDCHAR
STARTCHAR G
ENCODING 71
SWIDTH 811 0
DWIDTH 7 0
BBX 9 14 0 -5
BITMAP
005CEB1000
05E63D7000
0D700A7000
3F10052000
5E00000000
6E00BFA000
4F3018A110
0CC43ABD30
01AEEEE400
00004F4000
0002BE1000
000B5C0000
000D970000
000BC10000
ENDCHAR
STARTCHAR H
ENCODING 72
SWIDTH 873 0
DWIDTH 8 0
BBX 9 10 0 0
BITMAP
0000004E40
2CE300E880
C4C705C470
30B7089930
00D60BDA00
1EFFFF9000
05F30E4000
06D00E5030
08B00AA4C0
086003DD30
ENDCHAR
STARTCHAR I
ENCODING 73
SWIDTH 495 0
DWIDTH 4 0
BBX 6 9 -1 0
BITMAP
00EFFD
002D81
000E50
001F30
003F10
005E00
007C00
01AB10
1FFFD0
ENDCHAR
STARTCHAR J
ENCODING 74
SWIDTH 743 0
DWIDTH 7 0
BBX 7 11 0 -2
BITMAP
04BEFD90
2E632E80
5C000F40
2B001F20
00029F10
004ECD00
02E48900
08A0C500
0A95D000
05FE4000
00110000
ENDCHAR
STARTCHAR K
ENCODING 75
SWIDTH 937 0
DWIDTH 8 0
BBX 10 9 0 0
BITMAP
06DFD20880
3E47E10E50
6B08B07D10
1709A6E400
005FFD3000
000E8E6000
401F38D003
B87E02F796
3DE5008EA0
ENDCHAR
STARTCHAR L
ENCODING 76
SWIDTH 673 0
DWIDTH 6 0
BBX 9 9 -1 0
BITMAP
0002BEC100
000D93C800
005E109800
008C004200
009A000000
00A9000000
01B7000210
3EFEA44C20
3EB5AEE500
ENDCHAR
STARTCHAR M
ENCODING 77
SWIDTH 1232 0
DWIDTH 11 0
BBX 13 9 0 0
BITMAP
2BE27E81BE3000
B5D8A6DA5C8000
50DC13E90B8000
00F905F30E6000
01F507E02F3000
03F209B04F0000
06E00B906D0110
07C00D605E4B20
07900C301CE600
ENDCHAR
STARTCHAR N
ENCODING 78
SWIDTH 884 0
DWIDTH 8 0
BBX 10 9 0 0
BITMAP
1BE25DD200
B5D7B4E600
50DC20D600
00FA01F400
02F504F100
03F206D000
06E008B020
07C008D4C1
079002DE40
ENDCHAR
STARTCHAR O
ENCODING 79
SWIDTH 816 0
DWIDTH 7 0
BBX 8 9 0 0
BITMAP
005DEA10
05E63DA0
0D7005F1
3F2003F2
5E0003F2
6E0005E0
4F100BA0
1DA38E20
03CEB300
ENDCHAR
STARTCHAR P
ENCODING 80
SWIDTH 805 0
DWIDTH 7 0
BBX 8 11 0 -2
BITMAP
003BED60
02D638F2
0B6970F6
2D0D61F4
6A1F6AC0
87DFEA20
964F0000
876D0000
5C9A0000
0CF60000
00300000
ENDCHAR
STARTCHAR Q
ENCODING 81
SWIDTH 816 0
DWIDTH 7 0
BBX 8 13 0 -4
BITMAP
005DEA10
05E63CA0
0D7005F1
3F1003F2
5E0003F2
6E0006E0
4F200C90
0CC6BE10
02AFC200
0007F101
0001E92A
00006FE5
00000110
ENDCHAR
STARTCHAR R
ENCODING 82
SWIDTH 880 0
DWIDTH 8 0
BBX 9 9 0 0
BITMAP
004CED7000
04D638F200
0D3C62F300
3C0F59C000
68AFF91000
775E9E1000
686C1E6040
3DAA09C4C0
08E502DD30
ENDCHAR
STARTCHAR S
ENCODING 83
SWIDTH 693 0
DWIDTH 6 0
BBX 7 9 0 0
BITMAP
02BED600
0CA35F20
0F400E30
0DC20400
02CF9100
2205EA00
A7006D00
8B33BA00
1AEEA100
ENDCHAR
STARTCHAR T
ENCODING 84
SWIDTH 697 0
DWIDTH 6 0
BBX 9 9 0 0
BITMAP
06BEFFFD10
7C47E22200
A708C00000
550A900000
000D700000
000F500000
002F300000
003F100000
003D000000
ENDCHAR
STARTCHAR U
ENCODING 85
SWIDTH 890 0
DWIDTH 8 0
BBX 10 9 0 0
BITMAP
1BE4009600
B6C800D700
50C700F500
00E503F300
02F207F100
05E00CE000
07C04CD021
07E6C7E7D1
02DD42DE50
ENDCHAR
STARTCHAR V
ENCODING 86
SWIDTH 763 0
DWIDTH 7 0
BBX 8 9 1 0
BITMAP
8803EB00
B90A6F20
C70B4F10
D608DC00
D601DFF1
C601E210
B8099000
7E9E1000
1DD30000
ENDCHAR
STARTCHAR W
ENCODING 87
SWIDTH 1217 0
DWIDTH 11 0
BBX 12 9 1 0
BITMAP
88005B03DC00
B9009C087E30
C700CB0A4E20
D600EA07DE00
D604F900CFF3
D608C901E420
B81D6B07B000
8DB92F8E2000
2DB10AE40000
ENDCHAR
STARTCHAR X
ENCODING 88
SWIDTH 712 0
DWIDTH 6 0
BBX 9 9 -1 0
BITMAP
03DD306C00
0C4BA3F500
0105EC9000
0001FC0000
0004F70000
002EEA0000
00BB6E0020
08E12F5870
1E5008EA00
ENDCHAR
STARTCHAR Y
ENCODING 89
SWIDTH 851 0
DWIDTH 8 0
BBX 9 13 0 -4
BITMAP
1BE4009600
B6C800D700
70C700E500
00E603F400
02F307F200
04F10CF000
03F27BD000
00CFB9EC80
0007DDB200
006B1B6000
00B64E1000
008FE50000
0002000000
ENDCHAR
STARTCHAR Z
ENCODING 90
SWIDTH 721 0
DWIDTH 6 0
BBX 8 9 0 0
BITMAP
06CFEC80
4D424FA0
6A007E10
2701E600
0008D000
003F5000
02CB0002
9FFD7388
AE78DFA1
ENDCHAR
STARTCHAR bracketleft
ENCODING 91
SWIDTH 405 0
DWIDTH 4 0
BBX 5 12 0 -2
BITMAP
03FF60
06C200
08A000
0A8000
0C7000
0D5000
0F4000
1F2000
3F0000
5E0000
5FF500
022000
ENDCHAR
STARTCHAR backslash
ENCODING 92
SWIDTH 509 0
DWIDTH 5 0
BBX 4 10 1 0
BITMAP
C100
E400
A800
6C00
3F10
0E40
0B80
07B0
03F0
00D1
ENDCHAR
STARTCHAR bracketright
ENCODING 93
SWIDTH 405 0
DWIDTH 4 0
BBX 5 12 -1 -2
BITMAP
05FF50
002D50
000E40
001F20
003F10
004E00
006C00
008B00
009900
00B700
5FF500
022000
ENDCHAR
STARTCHAR asciicircum
ENCODING 94
SWIDTH 700 0
DWIDTH 6 0
BBX 6 6 0 1
BITMAP
000600
005F20
00CB60
04C4B0
0C40E0
2C00A2
ENDCHAR
STARTCHAR underscore
ENCODING 95
SWIDTH 354 0
DWIDTH 3 0
BBX 4 2 -1 -2
BITMAP
2FFD
0222
ENDCHAR
STARTCHAR grave
ENCODING 96
SWIDTH 600 0
DWIDTH 5 0
BBX 2 4 1 6
BITMAP
50
C5
5B
0A
ENDCHAR
STARTCHAR a
ENCODING 97
SWIDTH 470 0
DWIDTH 4 0
BBX 6 5 0 0
BITMAP
07E700
4E7D00
996A11
A9CAA4
5E7D80
ENDCHAR
STARTCHAR b
ENCODING 98
SWIDTH 473 0
DWIDTH 4 0
BBX 6 10 0 0
BITMAP
01D800
089C00
0D4B00
2E5700
5DA100
6DE600
7D9E11
7A4FF6
4C5D10
0BE400
ENDCHAR
STARTCHAR c
ENCODING 99
SWIDTH 368 0
DWIDTH 3 0
BBX 5 5 0 0
BITMAP
1BE200
7CA400
A72120
9A3B50
2DE700
ENDCHAR
STARTCHAR d
ENCODING 100
SWIDTH 515 0
DWIDTH 5 0
BBX 6 10 0 0
BITMAP
0003E3
000AA7
000E66
002D83
004CB0
07ED90
4E9F30
986C02
A99C6A
4E8BC1
ENDCHAR
STARTCHAR e
ENCODING 101
SWIDTH 393 0
DWIDTH 4 0
BBX 5 5 0 0
BITMAP
0BE300
7B9700
ABC230
9D4A80
2CE910
ENDCHAR
STARTCHAR f
ENCODING 102
SWIDTH 371 0
DWIDTH 3 0
BBX 5 14 0 -4
BITMAP
008D00
03DB30
097B10
0D4C00
1F8500
4EB000
6E1000
7BEF30
8BA200
89A000
79B000
6BA000
2F7000
010000
ENDCHAR
STARTCHAR g
ENCODING 103
SWIDTH 479 0
DWIDTH 4 0
BBX 6 10 0 -5
BITMAP
07E700
4E7C00
996A21
A9BBD3
5EDE30
04F400
2CE100
B5C000
D97000
BC1000
ENDCHAR
STARTCHAR h
ENCODING 104
SWIDTH 502 0
DWIDTH 5 0
BBX 6 10 0 0
BITMAP
01C900
079D00
0D4B00
1E7600
4DC000
6F8D20
7BCF20
7E6E03
8E4D78
782EA0
ENDCHAR
STARTCHAR i
ENCODING 105
SWIDTH 246 0
DWIDTH 2 0
BBX 4 7 0 0
BITMAP
1D50
0100
2C00
6B00
8912
8AB4
4E70
ENDCHAR
STARTCHAR j
ENCODING 106
SWIDTH 254 0
DWIDTH 2 0
BBX 6 12 -2 -5
BITMAP
003E20
000100
003C00
005C00
007A11
008BD2
00AD30
04E400
2BF100
B5C000
D97000
CC1000
ENDCHAR
STARTCHAR k
ENCODING 107
SWIDTH 525 0
DWIDTH 5 0
BBX 6 10 0 0
BITMAP
01C900
079D00
0D4B00
1E7600
4DB000
6E7E50
7ABA80
7E7D33
7E9B5B
593DC2
ENDCHAR
STARTCHAR l
ENCODING 108
SWIDTH 326 0
DWIDTH 3 0
BBX 4 10 0 0
BITMAP
01C8
089C
0D3C
1E39
4C85
6AC0
7E80
7E12
5C4C
0CD4
ENDCHAR
STARTCHAR m
ENCODING 109
SWIDTH 744 0
DWIDTH 7 0
BBX 8 5 0 0
BITMAP
2C6E3D40
6BDEBE40
8E6F7E23
8D4F3F5A
682C0DC1
ENDCHAR
STARTCHAR n
ENCODING 110
SWIDTH 496 0
DWIDTH 4 0
BBX 6 5 0 0
BITMAP
2C5E10
6BDF10
8E6E03
8D4D77
682EA0
ENDCHAR
STARTCHAR o
ENCODING 111
SWIDTH 451 0
DWIDTH 4 0
BBX 6 5 0 0
BITMAP
1BE400
7BBC20
A76FF3
9A7B10
2DD200
ENDCHAR
STARTCHAR p
ENCODING 112
SWIDTH 481 0
DWIDTH 4 0
BBX 8 10 -2 -5
BITMAP
005BD900
006E6E00
006A4D02
00BBBA95
03EFCE90
08B90000
0B870000
0CA50000
1CC10000
0C900000
ENDCHAR
STARTCHAR q
ENCODING 113
SWIDTH 500 0
DWIDTH 5 0
BBX 6 11 0 -5
BITMAP
000510
07EF30
4E7E00
996A00
A9CAE9
5EE891
00D680
00E670
00EA50
00AE10
001200
ENDCHAR
STARTCHAR r
ENCODING 114
SWIDTH 455 0
DWIDTH 4 0
BBX 6 5 0 0
BITMAP
2C6E10
6CCF32
8F3EE2
8D0110
680000
ENDCHAR
STARTCHAR s
ENCODING 115
SWIDTH 427 0
DWIDTH 4 0
BBX 5 5 0 0
BITMAP
05A000
0BA000
4BF340
C6DBD0
3AFE40
ENDCHAR
STARTCHAR t
ENCODING 116
SWIDTH 393 0
DWIDTH 4 0
BBX 5 9 0 0
BITMAP
00AA00
06AD00
0B6B00
0EB300
EFFE00
4E2100
2E0020
1F5790
07EB10
ENDCHAR
STARTCHAR u
ENCODING 117
SWIDTH 462 0
DWIDTH 4 0
BBX 6 5 0 0
BITMAP
2C1C00
6B5B00
89A911
8CE9B3
4D6E60
ENDCHAR
STARTCHAR v
ENCODING 118
SWIDTH 449 0
DWIDTH 4 0
BBX 6 5 0 0
BITMAP
775C00
889D20
89AFF2
7CD210
3E4000
ENDCHAR
STARTCHAR w
ENCODING 119
SWIDTH 700 0
DWIDTH 6 0
BBX 8 5 0 0
BITMAP
773B2D20
888C5F21
89DD6FF6
7DBED310
3E3D7000
ENDCHAR
STARTCHAR x
ENCODING 120
SWIDTH 529 0
DWIDTH 5 0
BBX 6 5 0 0
BITMAP
1E9BB0
28E990
31D503
C7F85B
9E8EC2
ENDCHAR
STARTCHAR y
ENCODING 121
SWIDTH 479 0
DWIDTH 4 0
BBX 6 10 0 -5
BITMAP
2C1D00
6B5C00
88AA21
8CEBD2
4DBD30
04F400
3CE100
B5C000
D97000
BC1000
ENDCHAR
STARTCHAR z
ENCODING 122
SWIDTH 445 0
DWIDTH 4 0
BBX 6 5 0 0
BITMAP
6FFF30
06E800
3E3031
6E35D1
1BEC30
ENDCHAR
STARTCHAR braceleft
ENCODING 123
SWIDTH 490 0
DWIDTH 4 0
BBX 6 12 0 -2
BITMAP
002CE2
009B20
00C600
00D500
02F200
6FA000
08E000
05E000
06C000
06C000
02EF20
001200
ENDCHAR
STARTCHAR bar
ENCODING 124
SWIDTH 326 0
DWIDTH 3 0
BBX 3 14 0 -4
BITMAP
03B0
06B0
07A0
0980
0B60
0D40
0F20
1F00
3E00
5C00
7A00
9800
A700
4200
ENDCHAR
STARTCHAR braceright
ENCODING 125
SWIDTH 490 0
DWIDTH 4 0
BBX 6 12 -1 -2
BITMAP
05FA00
003F30
000E40
001F30
001F40
000CF4
004E40
007B00
009900
01C700
4FD200
020000
ENDCHAR
STARTCHAR asciitilde
ENCODING 126
SWIDTH 700 0
DWIDTH 6 0
BBX 6 3 0 2
BITMAP
035014
1EEA89
4A19D2
ENDCHAR
STARTCHAR uni00A0
ENCODING 160
SWIDTH 265 0
DWIDTH 2 0
BBX 1 1 0 0
BITMAP
00
ENDCHAR
STARTCHAR exclamdown
ENCODING 161
SWIDTH 340 0
DWIDTH 3 0
BBX 4 9 -1 -4
BITMAP
00A9
00B8
0050
01E0
05C0
08A0
0C70
1F40
2D10
ENDCHAR
STARTCHAR cent
ENCODING 162
SWIDTH 466 0
DWIDTH 4 0
BBX 4 8 0 -1
BITMAP
0040
00A0
0BEA
69AA
9974
6EBB
0991
0630
ENDCHAR
STARTCHAR sterling
ENCODING 163
SWIDTH 525 0
DWIDTH 5 0
BBX 5 6 0 0
BITMAP
03DD40
0C88A0
1F1010
AFF800
4E4310
AFFF70
ENDCHAR
STARTCHAR currency
ENCODING 164
SWIDTH 700 0
DWIDTH 6 0
BBX 5 5 1 1
BITMAP
BBEC30
794D00
930C00
772D00
ACEC30
ENDCHAR
STARTCHAR yen
ENCODING 165
SWIDTH 497 0
DWIDTH 4 0
BBX 5 7 0 0
BITMAP
420150
8A0990
2F4E10
0BE600
7FFF10
9FFF00
18A200
ENDCHAR
STARTCHAR brokenbar
ENCODING 166
SWIDTH 326 0
DWIDTH 3 0
BBX 3 14 0 -4
BITMAP
03B0
06B0
0890
0980
0B60
0A30
0000
0400
3E00
5C00
7A00
8900
A700
4200
ENDCHAR
STARTCHAR section
ENCODING 167
SWIDTH 607 0
DWIDTH 5 0
BBX 5 9 0 0
BITMAP
01BE90
07B4F0
08B170
0ADE40
0E37C0
09EA80
254D50
5C3B60
1BFB10
ENDCHAR
STARTCHAR dieresis
ENCODING 168
SWIDTH 600 0
DWIDTH 5 0
BBX 4 2 1 5
BITMAP
96B4
1010
ENDCHAR
STARTCHAR copyright
ENCODING 169
SWIDTH 647 0
DWIDTH 6 0
BBX 6 7 0 3
BITMAP
02CEA1
0C9FA9
38B55B
38B12B
0DCE9A
04EFC2
000200
ENDCHAR
STARTCHAR ordfeminine
ENCODING 170
SWIDTH 393 0
DWIDTH 4 0
BBX 4 4 0 4
BITMAP
05D8
1E5B
4B89
1B96
ENDCHAR
STARTCHAR guillemotleft
ENCODING 171
SWIDTH 615 0
DWIDTH 6 0
BBX 6 4 0 0
BITMAP
0894D1
9C5E50
7D4E50
0883D0
ENDCHAR
STARTCHAR logicalnot
ENCODING 172
SWIDTH 700 0
DWIDTH 6 0
BBX 6 4 0 0
BITMAP
2EFFF8
022298
000096
000010
ENDCHAR
STARTCHAR uni00AD
ENCODING 173
SWIDTH 403 0
DWIDTH 4 0
BBX 4 2 0 2
BITMAP
1461
5BA2
ENDCHAR
STARTCHAR registered
ENCODING 174
SWIDTH 647 0
DWIDTH 6 0
BBX 6 7 0 3
BITMAP
02CEA1
0CBCB9
39766B
389B1B
0D958A
04EFC2
000200
ENDCHAR
STARTCHAR macron
ENCODING 175
SWIDTH 600 0
DWIDTH 5 0
BBX 4 2 1 5
BITMAP
9FF2
1220
ENDCHAR
STARTCHAR degree
ENCODING 176
SWIDTH 385 0
DWIDTH 3 0
BBX 4 4 0 5
BITMAP
09E3
1D78
0DF4
0010
ENDCHAR
STARTCHAR plusminus
ENCODING 177
SWIDTH 700 0
DWIDTH 6 0
BBX 6 6 0 0
BITMAP
001D00
0AFFF5
027C30
005900
034430
1FFFE0
ENDCHAR
STARTCHAR uni00B2
ENCODING 178
SWIDTH 450 0
DWIDTH 4 0
BBX 4 5 0 3
BITMAP
0AD8
2B2E
009A
08C1
6FDC
ENDCHAR
STARTCHAR uni00B3
ENCODING 179
SWIDTH 450 0
DWIDTH 4 0
BBX 4 5 0 3
BITMAP
09CB
182E
01E7
345E
2CD8
ENDCHAR
STARTCHAR acute
ENCODING 180
SWIDTH 600 0
DWIDTH 5 0
BBX 3 3 2 6
BITMAP
0B40
2D10
7400
ENDCHAR
STARTCHAR uni00B5
ENCODING 181
SWIDTH 462 0
DWIDTH 4 0
BBX 6 8 0 -3
BITMAP
2C1C00
5B5B00
89A911
9CE9B3
AE7E60
B50000
B50000
A40000
ENDCHAR
STARTCHAR paragraph
ENCODING 182
SWIDTH 739 0
DWIDTH 7 0
BBX 7 9 0 0
BITMAP
03CEFB10
0EFF6F40
1FFF3F20
08FE3F00
006C6D00
008A8B00
00A8A900
00C7C700
00B4B500
ENDCHAR
STARTCHAR periodcentered
ENCODING 183
SWIDTH 257 0
DWIDTH 2 0
BBX 2 2 0 1
BITMAP
5C
6D
ENDCHAR
STARTCHAR cedilla
ENCODING 184
SWIDTH 600 0
DWIDTH 5 0
BBX 4 4 0 -4
BITMAP
0DB0
02E1
6FA0
0200
ENDCHAR
STARTCHAR uni00B9
ENCODING 185
SWIDTH 450 0
DWIDTH 4 0
BBX 3 5 1 3
BITMAP
8E50
5C40
0E20
0F10
1D00
ENDCHAR
STARTCHAR ordmasculine
ENCODING 186
SWIDTH 408 0
DWIDTH 4 0
BBX 4 4 0 4
BITMAP
09D6
2C3C
3C4A
09C2
ENDCHAR
STARTCHAR guillemotright
ENCODING 187
SWIDTH 615 0
DWIDTH 6 0
BBX 6 4 0 0
BITMAP
6A1D30
1CA7E2
1AB6E2
7A2D30
ENDCHAR
STARTCHAR onequarter
ENCODING 188
SWIDTH 955 0
DWIDTH 9 0
BBX 8 8 1 0
BITMAP
8E504100
5C41E200
0E27A000
0F2E3D00
1D8979C0
02E2D5C0
0580DEE3
00000580
ENDCHAR
STARTCHAR onehalf
ENCODING 189
SWIDTH 1024 0
DWIDTH 9 0
BBX 8 8 1 0
BITMAP
8E504100
5C41E200
0E27A000
0F2E3BD5
1D89676A
02E201C7
05801BA0
0000AFD9
ENDCHAR
STARTCHAR threequarters
ENCODING 190
SWIDTH 1035 0
DWIDTH 9 0
BBX 9 8 0 0
BITMAP
09CB005000
182E04D000
01E70C6000
345E5D4A00
2CD8C5B890
0005C2D780
000944EED0
0000000940
ENDCHAR
STARTCHAR questiondown
ENCODING 191
SWIDTH 476 0
DWIDTH 4 0
BBX 5 10 -1 -5
BITMAP
000B80
000C70
000400
002C00
00C700
0AB000
3F2530
5F1B60
1DFD10
002000
ENDCHAR
STARTCHAR Agrave
ENCODING 192
SWIDTH 786 0
DWIDTH 7 0
BBX 9 12 0 0
BITMAP
0005000000
000DA00000
0001970000
0018DFD500
01CD656200
09C10A8000
1F400E6000
5E002F3000
7D005F1000
7D00BF0210
3F77DF6C20
08EB2CE600
ENDCHAR
STARTCHAR Aacute
ENCODING 193
SWIDTH 786 0
DWIDTH 7 0
BBX 9 12 0 0
BITMAP
0000002400
000002D900
00000B6000
0018DFD500
01CD656200
09C10A8000
1F400E6000
5E002F3000
7D005F1000
7D00BF0210
3F77DF6C20
08EB2CE600
ENDCHAR
STARTCHAR Acircumflex
ENCODING 194
SWIDTH 786 0
DWIDTH 7 0
BBX 9 12 0 0
BITMAP
00002D5000
0000BCB000
0001D2C000
0018DFD500
01CD656200
09C10A8000
1F400E6000
5E002F3000
7D005F1000
7D00BF0210
3F77DF6C20
08EB2CE600
ENDCHAR
STARTCHAR Atilde
ENCODING 195
SWIDTH 786 0
DWIDTH 7 0
BBX 9 11 0 0
BITMAP
0001D86600
000689D100
0018DFD500
01CD656200
09C10A8000
1F400E6000
5E002F3000
7D005F1000
7D00BF0210
3F77DF6C20
08EB2CE600
ENDCHAR
STARTCHAR Adieresis
ENCODING 196
SWIDTH 786 0
DWIDTH 7 0
BBX 9 10 0 0
BITMAP
0001D4D000
0018EFF500
01CD656200
09C10A8000
1F400E6000
5E002F3000
7D005F1000
7D00BF0210
3F77DF6C20
08EB2CE600
ENDCHAR
STARTCHAR Aring
ENCODING 197
SWIDTH 786 0
DWIDTH 7 0
BBX 9 12 0 0
BITMAP
00004E6000
000097B000
00007F6000
0018DFD500
01CD656200
09C10A8000
1F400E6000
5E002F3000
7D005F1000
7D00BF0210
3F77DF6C20
08EB2CE600
ENDCHAR
STARTCHAR AE
ENCODING 198
SWIDTH 1015 0
DWIDTH 9 0
BBX 11 9 0 0
BITMAP
0019E5DFF900
01DD66D22100
0AC109A00000
1F400D700000
5F001FFFE000
7D005F421000
7D00BF200000
3F56CEA34B30
07EC34CFD700
ENDCHAR
STARTCHAR Ccedilla
ENCODING 199
SWIDTH 686 0
DWIDTH 6 0
BBX 8 13 0 -4
BITMAP
005DE900
05E64F30
0D700E40
3F200700
5E000000
6E000000
4F300000
0CC435B3
02CFFC70
003C6000
00096000
01FD1000
00200000
ENDCHAR
STARTCHAR Egrave
ENCODING 200
SWIDTH 686 0
DWIDTH 6 0
BBX 8 12 0 0
BITMAP
00500000
01E90000
002A5000
008EE900
08E43E40
0C800C60
0AB10710
04FF3000
4E730000
AA000000
8E5236B3
18DFEC70
ENDCHAR
STARTCHAR Eacute
ENCODING 201
SWIDTH 686 0
DWIDTH 6 0
BBX 8 12 0 0
BITMAP
00000330
00003E70
0000C500
008EE900
08E43E40
0C800C60
0AB10710
04FF3000
4E730000
AA000000
8E5236B3
18DFEC70
ENDCHAR
STARTCHAR Ecircumflex
ENCODING 202
SWIDTH 686 0
DWIDTH 6 0
BBX 8 12 0 0
BITMAP
0004E300
000CC900
003C3B00
008EE900
08E43E40
0C800C60
0AB10710
04FF3000
4E730000
AA000000
8E5236B3
18DFEC70
ENDCHAR
STARTCHAR Edieresis
ENCODING 203
SWIDTH 686 0
DWIDTH 6 0
BBX 8 10 0 0
BITMAP
002D4C00
008FEA00
08E43E40
0C800C60
0AB10710
04FF3000
4E730000
AA000000
8E5236B3
18DFEC70
ENDCHAR
STARTCHAR Igrave
ENCODING 204
SWIDTH 495 0
DWIDTH 4 0
BBX 6 12 -1 0
BITMAP
015000
03F700
003B30
00EFFD
002D81
000E50
001F30
003F10
005E00
007C00
01AB10
1FFFD0
ENDCHAR
STARTCHAR Iacute
ENCODING 205
SWIDTH 495 0
DWIDTH 4 0
BBX 7 12 -1 0
BITMAP
00000420
00005F40
0002C300
00EFFD00
002D8100
000E5000
001F3000
003F1000
005E0000
007C0000
01AB1000
1FFFD000
ENDCHAR
STARTCHAR Icircumflex
ENCODING 206
SWIDTH 495 0
DWIDTH 4 0
BBX 6 12 -1 0
BITMAP
0006D1
001EC6
005A59
00EFFD
002D81
000E50
001F30
003F10
005E00
007C00
01AB10
1FFFD0
ENDCHAR
STARTCHAR Idieresis
ENCODING 207
SWIDTH 495 0
DWIDTH 4 0
BBX 6 10 -1 0
BITMAP
004C6A
00EFFE
002D81
000E50
001F30
003F10
005E00
007C00
01AB10
1FFFD0
ENDCHAR
STARTCHAR Eth
ENCODING 208
SWIDTH 821 0
DWIDTH 7 0
BBX 8 9 0 0
BITMAP
00AFE800
00F55E90
03F005F1
07C002F3
AFFF62F2
1D8205E1
0F400CA0
2F44BD10
2DFD9100
ENDCHAR
STARTCHAR Ntilde
ENCODING 209
SWIDTH 884 0
DWIDTH 8 0
BBX 10 11 0 0
BITMAP
0005E4B100
000B5C9000
1BE25DD200
B5D7B4E600
50DC20D600
00FA01F400
02F504F100
03F206D000
06E008B020
07C008D4C1
079002DE40
ENDCHAR
STARTCHAR Ograve
ENCODING 210
SWIDTH 816 0
DWIDTH 7 0
BBX 8 12 0 0
BITMAP
00500000
00DB0000
00197000
005DEA10
05E63DA0
0D7005F1
3F2003F2
5E0003F2
6E0005E0
4F100BA0
1DA38E20
03CEB300
ENDCHAR
STARTCHAR Oacute
ENCODING 211
SWIDTH 816 0
DWIDTH 7 0
BBX 8 12 0 0
BITMAP
00000240
00002D90
0000B600
005DEA10
05E63DA0
0D7005F1
3F2003F2
5E0003F2
6E0005E0
4F100BA0
1DA38E20
03CEB300
ENDCHAR
STARTCHAR Ocircumflex
ENCODING 212
SWIDTH 816 0
DWIDTH 7 0
BBX 8 12 0 0
BITMAP
0002D500
000ACB00
001D2C00
005DEA10
05E63DA0
0D7005F1
3F2003F2
5E0003F2
6E0005E0
4F100BA0
1DA38E20
03CEB300
ENDCHAR
STARTCHAR Otilde
ENCODING 213
SWIDTH 816 0
DWIDTH 7 0
BBX 8 11 0 0
BITMAP
001D9660
00589D10
005DEA10
05E63DA0
0D7005F1
3F2003F2
5E0003F2
6E0005E0
4F100BA0
1DA38E20
03CEB300
ENDCHAR
STARTCHAR Odieresis
ENCODING 214
SWIDTH 816 0
DWIDTH 7 0
BBX 8 10 0 0
BITMAP
000D4D10
005EEC10
05E63DA0
0D7005F1
3F2003F2
5E0003F2
6E0005E0
4F100BA0
1DA38E20
03CEB300
ENDCHAR
STARTCHAR multiply
ENCODING 215
SWIDTH 700 0
DWIDTH 6 0
BBX 5 5 1 1
BITMAP
770A50
4FAC10
0BF200
6DC900
C32D00
ENDCHAR
STARTCHAR Oslash
ENCODING 216
SWIDTH 816 0
DWIDTH 7 0
BBX 8 11 0 -1
BITMAP
00007600
005DFB10
05E5EDA0
0D72C5F1
3F2692F2
5E0953F2
6E0C25E0
4F2E0AA0
0ECC7E20
03DFB300
00A30000
ENDCHAR
STARTCHAR Ugrave
ENCODING 217
SWIDTH 890 0
DWIDTH 8 0
BBX 10 12 0 0
BITMAP
0033000000
006E400000
0005C00000
1BE4009600
B6C800D700
50C700F500
00E503F300
02F207F100
05E00CE000
07C04CD021
07E6C7E7D1
02DD42DE50
ENDCHAR
STARTCHAR Uacute
ENCODING 218
SWIDTH 890 0
DWIDTH 8 0
BBX 10 12 0 0
BITMAP
0000005000
000009E200
00005A2000
1BE4009600
B6C800D700
50C700F500
00E503F300
02F207F100
05E00CE000
07C04CD021
07E6C7E7D1
02DD42DE50
ENDCHAR
STARTCHAR Ucircumflex
ENCODING 219
SWIDTH 890 0
DWIDTH 8 0
BBX 10 12 0 0
BITMAP
00009B0000
0004ED3000
0009685000
1BE4009600
B6C800D700
50C700F500
00E503F300
02F207F100
05E00CE000
07C04CD021
07E6C7E7D1
02DD42DE50
ENDCHAR
STARTCHAR Udieresis
ENCODING 220
SWIDTH 890 0
DWIDTH 8 0
BBX 10 10 0 0
BITMAP
0007896000
1BE511A600
B6C800D700
50C700F500
00E503F300
02F207F100
05E00CE000
07C04CD021
07E6C7E7D1
02DD42DE50
ENDCHAR
STARTCHAR Yacute
ENCODING 221
SWIDTH 851 0
DWIDTH 8 0
BBX 9 16 0 -4
BITMAP
0000005100
000007F300
00003B2000
1BE4009600
B6C800D700
70C700E500
00E603F400
02F307F200
04F10CF000
03F27BD000
00CFB9EC80
0007DDB200
006B1B6000
00B64E1000
008FE50000
0002000000
ENDCHAR
STARTCHAR Thorn
ENCODING 222
SWIDTH 776 0
DWIDTH 7 0
BBX 7 12 0 -2
BITMAP
00088000
000C7000
004EFC20
05DF6CC0
1D4F26F0
5A4F08D0
879E8F60
97DEA400
87B80000
69D60000
1DF20000
01200000
ENDCHAR
STARTCHAR germandbls
ENCODING 223
SWIDTH 596 0
DWIDTH 5 0
BBX 7 11 0 -2
BITMAP
01AE8000
09A4F100
1E12E000
4C2D6000
6A8A0000
796E7400
89BBFC60
8AE4F200
98BE9000
98000000
87000000
ENDCHAR
STARTCHAR agrave
ENCODING 224
SWIDTH 470 0
DWIDTH 4 0
BBX 6 10 0 0
BITMAP
041000
0B6000
04C000
00A100
000000
07E700
4E7D00
996A11
A9CAA4
5E7D80
ENDCHAR
STARTCHAR aacute
ENCODING 225
SWIDTH 470 0
DWIDTH 4 0
BBX 6 9 0 0
BITMAP
000A50
002E10
006500
000000
07E700
4E7D00
996A11
A9CAA4
5E7D80
ENDCHAR
STARTCHAR acircumflex
ENCODING 226
SWIDTH 470 0
DWIDTH 4 0
BBX 6 10 0 0
BITMAP
002400
00CD00
05AC20
0A4A30
000000
07E700
4E7D00
996A11
A9CAA4
5E7D80
ENDCHAR
STARTCHAR atilde
ENCODING 227
SWIDTH 470 0
DWIDTH 4 0
BBX 6 8 0 0
BITMAP
08C3A0
0C5D50
000000
07E700
4E7D00
996A11
A9CAA4
5E7D80
ENDCHAR
STARTCHAR adieresis
ENCODING 228
SWIDTH 470 0
DWIDTH 4 0
BBX 6 7 0 0
BITMAP
087A50
010100
07E700
4E7D00
996A11
A9CAA4
5E7D80
ENDCHAR
STARTCHAR aring
ENCODING 229
SWIDTH 470 0
DWIDTH 4 0
BBX 6 9 0 0
BITMAP
00CB00
03AC20
01EC00
001000
07E700
4E7D00
996A11
A9CAA4
5E7D80
ENDCHAR
STARTCHAR ae
ENCODING 230
SWIDTH 653 0
DWIDTH 6 0
BBX 7 5 0 0
BITMAP
07EBE800
4E6E6C00
986DC630
99BF66D0
4E89FC30
ENDCHAR
STARTCHAR ccedilla
ENCODING 231
SWIDTH 368 0
DWIDTH 3 0
BBX 5 9 0 -4
BITMAP
1BE200
7CA400
A73120
991950
2FE600
03D100
01D000
6F9000
020000
ENDCHAR
STARTCHAR egrave
ENCODING 232
SWIDTH 393 0
DWIDTH 4 0
BBX 5 10 0 0
BITMAP
050000
2F1000
0A6000
029000
000000
0BE300
7B9700
ABC230
9D4A80
2CE910
ENDCHAR
STARTCHAR eacute
ENCODING 233
SWIDTH 393 0
DWIDTH 4 0
BBX 5 9 0 0
BITMAP
001D00
007900
00A100
000000
0BE300
7B9700
ABC230
9D4A80
2CE910
ENDCHAR
STARTCHAR ecircumflex
ENCODING 234
SWIDTH 393 0
DWIDTH 4 0
BBX 5 10 0 0
BITMAP
005200
03E800
0A7B00
1C1C00
000000
0BE300
7B9700
ABC230
9D4A80
2CE910
ENDCHAR
STARTCHAR edieresis
ENCODING 235
SWIDTH 393 0
DWIDTH 4 0
BBX 5 7 0 0
BITMAP
0D3D00
010100
0BE300
7B9700
ABC230
9D4A80
2CE910
ENDCHAR
STARTCHAR igrave
ENCODING 236
SWIDTH 246 0
DWIDTH 2 0
BBX 5 10 -1 0
BITMAP
050000
1F2000
087000
019000
000000
02C000
06B000
089120
08AB40
04E700
ENDCHAR
STARTCHAR iacute
ENCODING 237
SWIDTH 246 0
DWIDTH 2 0
BBX 4 9 0 0
BITMAP
00D1
06B0
0920
0000
2C00
6B00
8912
8AB4
4E70
ENDCHAR
STARTCHAR icircumflex
ENCODING 238
SWIDTH 246 0
DWIDTH 2 0
BBX 4 10 0 0
BITMAP
0420
2E90
97D0
C1D0
0000
2C00
6B00
8912
8AB4
4E70
ENDCHAR
STARTCHAR idieresis
ENCODING 239
SWIDTH 246 0
DWIDTH 2 0
BBX 4 7 0 0
BITMAP
C4E1
1010
2C00
6B00
8912
8AB4
4E70
ENDCHAR
STARTCHAR eth
ENCODING 240
SWIDTH 451 0
DWIDTH 4 0
BBX 5 10 0 0
BITMAP
097020
03EB80
03EC10
0ABB00
002F00
1BEF10
7B5F10
A73E00
9A9A00
2DD200
ENDCHAR
STARTCHAR ntilde
ENCODING 241
SWIDTH 496 0
DWIDTH 4 0
BBX 6 8 0 0
BITMAP
07D3B0
0C5D60
000000
2C5E10
6BDF10
8E6E03
8D4D77
682EA0
ENDCHAR
STARTCHAR ograve
ENCODING 242
SWIDTH 451 0
DWIDTH 4 0
BBX 6 10 0 0
BITMAP
140000
2E1000
0A5000
028000
000000
1BE400
7BBC20
A76FF3
9A7B10
2DD200
ENDCHAR
STARTCHAR oacute
ENCODING 243
SWIDTH 451 0
DWIDTH 4 0
BBX 6 9 0 0
BITMAP
002D00
008900
00A100
000000
1BE400
7BBC20
A76FF3
9A7B10
2DD200
ENDCHAR
STARTCHAR ocircumflex
ENCODING 244
SWIDTH 451 0
DWIDTH 4 0
BBX 6 10 0 0
BITMAP
005100
03E700
0B7A00
1C1B00
000000
1BE400
7BBC20
A76FF3
9A7B10
2DD200
ENDCHAR
STARTCHAR otilde
ENCODING 245
SWIDTH 451 0
DWIDTH 4 0
BBX 6 8 0 0
BITMAP
1D8750
679D10
000000
1BE400
7BBC20
A76FF3
9A7B10
2DD200
ENDCHAR
STARTCHAR odieresis
ENCODING 246
SWIDTH 451 0
DWIDTH 4 0
BBX 6 7 0 0
BITMAP
1E3D00
010100
1BE400
7BBC20
A76FF3
9A7B10
2DD200
ENDCHAR
STARTCHAR divide
ENCODING 247
SWIDTH 700 0
DWIDTH 6 0
BBX 6 6 0 0
BITMAP
003D00
000100
2EFFF8
022221
001000
009700
ENDCHAR
STARTCHAR oslash
ENCODING 248
SWIDTH 459 0
DWIDTH 4 0
BBX 6 9 0 -2
BITMAP
004000
00A000
1BF600
7BDD31
A98FE3
9DAC00
3ED300
091000
040000
ENDCHAR
STARTCHAR ugrave
ENCODING 249
SWIDTH 462 0
DWIDTH 4 0
BBX 6 10 0 0
BITMAP
050000
0D4000
06A000
00A000
000000
2C1C00
6B5B00
89A911
8CE9B3
4D6E60
ENDCHAR
STARTCHAR uacute
ENCODING 250
SWIDTH 462 0
DWIDTH 4 0
BBX 6 9 0 0
BITMAP
000B30
003D10
008300
000000
2C1C00
6B5B00
89A911
8CE9B3
4D6E60
ENDCHAR
STARTCHAR ucircumflex
ENCODING 251
SWIDTH 462 0
DWIDTH 4 0
BBX 6 10 0 0
BITMAP
003300
00DC00
068E00
0B2B10
000000
2C1C00
6B5B00
89A911
8CE9B3
4D6E60
ENDCHAR
STARTCHAR udieresis
ENCODING 252
SWIDTH 462 0
DWIDTH 4 0
BBX 6 7 0 0
BITMAP
0A5C30
010100
2C1C00
6B5B00
89A911
8CE9B3
4D6E60
ENDCHAR
STARTCHAR yacute
ENCODING 253
SWIDTH 479 0
DWIDTH 4 0
BBX 6 14 0 -5
BITMAP
000B30
003D10
008300
000000
2C1D00
6B5C00
88AA21
8CEBD2
4DBD30
04F400
3CE100
B5C000
D97000
BC1000
ENDCHAR
STARTCHAR thorn
ENCODING 254
SWIDTH 508 0
DWIDTH 5 0
BBX 6 13 0 -4
BITMAP
042000
0D4000
1F1000
3E0000
5B9D10
7D7E30
8E1F24
9A8D79
AFBEB1
B50000
B50000
C50000
510000
ENDCHAR
STARTCHAR ydieresis
ENCODING 255
SWIDTH 479 0
DWIDTH 4 0
BBX 6 12 0 -5
BITMAP
0A5C30
010100
2C1D00
6B5C00
88AA21
8CEBD2
4DBD30
04F400
3CE100
B5C000
D97000
BC1000
ENDCHAR
STARTCHAR Amacron
ENCODING 256
SWIDTH 786 0
DWIDTH 7 0
BBX 9 10 0 0
BITMAP
0000EFB000
0018FFF500
01CD656200
09C10A8000
1F400E6000
5E002F3000
7D005F1000
7D00BF0210
3F77DF6C20
08EB2CE600
ENDCHAR
STARTCHAR amacron
ENCODING 257
SWIDTH 470 0
DWIDTH 4 0
BBX 6 7 0 0
BITMAP
08FF20
012200
07E700
4E7D00
996A11
A9CAA4
5E7D80
ENDCHAR
STARTCHAR Abreve
ENCODING 258
SWIDTH 786 0
DWIDTH 7 0
BBX 9 11 0 0
BITMAP
0003918400
0001DFC100
0018DFD500
01CD656200
09C10A8000
1F400E6000
5E002F3000
7D005F1000
7D00BF0210
3F77DF6C20
08EB2CE600
ENDCHAR
STARTCHAR abreve
ENCODING 259
SWIDTH 470 0
DWIDTH 4 0
BBX 6 9 0 0
BITMAP
030030
0D46A0
07FE30
001100
07E700
4E7D00
996A11
A9CAA4
5E7D80
ENDCHAR
STARTCHAR Aogonek
ENCODING 260
SWIDTH 786 0
DWIDTH 7 0
BBX 9 12 0 -3
BITMAP
0018DFD500
01CC446200
09C00B8000
1F400E6000
5E002F3000
7D005F1000
7D00AF0110
3F56DF4C30
08EC2CF700
00000B7000
00000E2000
000008E500
ENDCHAR
STARTCHAR aogonek
ENCODING 261
SWIDTH 470 0
DWIDTH 4 0
BBX 6 8 0 -3
BITMAP
07E700
4E7D00
996A11
A9CAA4
5E8FA0
008A00
00B400
005E70
ENDCHAR
STARTCHAR Cacute
ENCODING 262
SWIDTH 686 0
DWIDTH 6 0
BBX 8 12 0 0
BITMAP
00000240
00002D90
0000B600
005DE900
05E64F30
0D700E40
3F200700
5E000000
6E000000
4F300000
0CC435B3
01AEEC70
ENDCHAR
STARTCHAR cacute
ENCODING 263
SWIDTH 368 0
DWIDTH 3 0
BBX 5 9 0 0
BITMAP
002D00
008900
00A100
000000
1BE200
7CA400
A72120
9A3B50
2DE700
ENDCHAR
STARTCHAR Ccircumflex
ENCODING 264
SWIDTH 686 0
DWIDTH 6 0
BBX 8 12 0 0
BITMAP
0002D500
000BCB00
001D2C00
005DE900
05E64F30
0D700E40
3F200700
5E000000
6E000000
4F300000
0CC435B3
01AEEC70
ENDCHAR
STARTCHAR ccircumflex
ENCODING 265
SWIDTH 368 0
DWIDTH 3 0
BBX 5 10 0 0
BITMAP
005100
03E700
0B7A00
1C1B00
000000
1BE200
7CA400
A72120
9A3B50
2DE700
ENDCHAR
STARTCHAR Cdotaccent
ENCODING 266
SWIDTH 686 0
DWIDTH 6 0
BBX 8 10 0 0
BITMAP
0003E200
005DF900
05E64F30
0D700E40
3F200700
5E000000
6E000000
4F300000
0CC435B3
01AEEC70
ENDCHAR
STARTCHAR cdotaccent
ENCODING 267
SWIDTH 368 0
DWIDTH 3 0
BBX 5 7 0 0
BITMAP
03E200
001000
1BE200
7CA400
A72120
9A3B50
2DE700
ENDCHAR
STARTCHAR Ccaron
ENCODING 268
SWIDTH 686 0
DWIDTH 6 0
BBX 8 12 0 0
BITMAP
00050510
000B7C00
0003E300
005DE900
05E64F30
0D700E40
3F200700
5E000000
6E000000
4F300000
0CC435B3
01AEEC70
ENDCHAR
STARTCHAR ccaron
ENCODING 269
SWIDTH 368 0
DWIDTH 3 0
BBX 5 10 0 0
BITMAP
041410
0A5D10
07B900
03D200
000000
1BE200
7CA400
A72120
9A3B50
2DE700
ENDCHAR
STARTCHAR Dcaron
ENCODING 270
SWIDTH 836 0
DWIDTH 8 0
BBX 8 12 0 0
BITMAP
00141500
001D8800
0008C000
06CFE910
8D635DB0
11B104F3
05E000F5
08B001F4
0A9003F2
0D700AC0
0E749E30
0CFEA300
ENDCHAR
STARTCHAR dcaron
ENCODING 271
SWIDTH 470 0
DWIDTH 4 0
BBX 6 9 0 0
BITMAP
000780
000A8E
000C6A
000E20
07EF00
4E7C00
996A11
A9CAA4
5E7D80
ENDCHAR
STARTCHAR Dcroat
ENCODING 272
SWIDTH 821 0
DWIDTH 7 0
BBX 8 9 0 0
BITMAP
00AFE800
00F55E90
03F005F1
07C002F3
AFFF62F2
1D8205E1
0F400CA0
2F44BD10
2DFD9100
ENDCHAR
STARTCHAR dcroat
ENCODING 273
SWIDTH 470 0
DWIDTH 4 0
BBX 6 9 0 0
BITMAP
000780
000A80
07FFC0
012E30
07EF00
4E7D00
996A11
A9CAA4
5E7D80
ENDCHAR
STARTCHAR Emacron
ENCODING 274
SWIDTH 686 0
DWIDTH 6 0
BBX 8 10 0 0
BITMAP
001EF900
008FFA00
08E43E40
0C800C60
0AB10710
04FF3000
4E730000
AA000000
8E5236B3
18DFEC70
ENDCHAR
STARTCHAR emacron
ENCODING 275
SWIDTH 393 0
DWIDTH 4 0
BBX 5 7 0 0
BITMAP
0EFB00
022100
0BE300
7B9700
ABC230
9D4A80
2CE910
ENDCHAR
STARTCHAR Ebreve
ENCODING 276
SWIDTH 686 0
DWIDTH 6 0
BBX 8 11 0 0
BITMAP
00581920
002EFB00
008EF900
08E43E40
0C800C60
0AB10710
04FF3000
4E730000
AA000000
8E5236B3
18DFEC70
ENDCHAR
STARTCHAR ebreve
ENCODING 277
SWIDTH 393 0
DWIDTH 4 0
BBX 5 9 0 0
BITMAP
120210
4D1C40
0CFB00
002000
0BE300
7B9700
ABC230
9D4A80
2CE910
ENDCHAR
STARTCHAR Edotaccent
ENCODING 278
SWIDTH 686 0
DWIDTH 6 0
BBX 8 10 0 0
BITMAP
0004E100
008EF900
08E43E40
0C800C60
0AB10710
04FF3000
4E730000
AA000000
8E5236B3
18DFEC70
ENDCHAR
STARTCHAR edotaccent
ENCODING 279
SWIDTH 393 0
DWIDTH 4 0
BBX 5 7 0 0
BITMAP
03E200
001000
0BE300
7B9700
ABC230
9D4A80
2CE910
ENDCHAR
STARTCHAR Eogonek
ENCODING 280
SWIDTH 686 0
DWIDTH 6 0
BBX 8 13 0 -4
BITMAP
008EE900
08E43E40
0C800C60
0AB10710
04FF3000
4E730000
AA000000
8E5236B3
19EFFFA1
000C5100
000F1000
000BF500
00002000
ENDCHAR
STARTCHAR eogonek
ENCODING 281
SWIDTH 393 0
DWIDTH 4 0
BBX 5 8 0 -3
BITMAP
0AE300
6B9700
9AD310
AD4590
4FDD20
06A000
096000
04E900
ENDCHAR
STARTCHAR Ecaron
ENCODING 282
SWIDTH 686 0
DWIDTH 6 0
BBX 8 12 0 0
BITMAP
00050600
000C6B00
0005D200
008EE900
08E43E40
0C800C60
0AB10710
04FF3000
4E730000
AA000000
8E5236B3
18DFEC70
ENDCHAR
STARTCHAR ecaron
ENCODING 283
SWIDTH 393 0
DWIDTH 4 0
BBX 5 10 0 0
BITMAP
041420
0A5D20
07B900
03D200
000000
0BE300
7B9700
ABC230
9D4A80
2CE910
ENDCHAR
STARTCHAR Gcircumflex
ENCODING 284
SWIDTH 811 0
DWIDTH 7 0
BBX 9 17 0 -5
BITMAP
0001D60000
0009CC0000
000D2D0000
005CEB1000
05E63D7000
0D700A7000
3F10052000
5E00000000
6E00BFA000
4F3018A110
0CC43ABD30
01AEEEE400
00004F4000
0002BE1000
000B5C0000
000D970000
000BC10000
ENDCHAR
STARTCHAR gcircumflex
ENCODING 285
SWIDTH 479 0
DWIDTH 4 0
BBX 6 15 0 -5
BITMAP
002400
00CD00
05AC20
0A4A30
000000
07E700
4E7C00
996A21
A9BBD3
5EDE30
04F400
2CE100
B5C000
D97000
BC1000
ENDCHAR
STARTCHAR Gbreve
ENCODING 286
SWIDTH 811 0
DWIDTH 7 0
BBX 9 16 0 -5
BITMAP
002A165000
000CFD2000
005CFB1000
05E63D7000
0D700A7000
3F10052000
5E00000000
6E00BFA000
4F3018A110
0CC43ABD30
01AEEEE400
00004F4000
0002BE1000
000B5C0000
000D970000
000BC10000
ENDCHAR
STARTCHAR gbreve
ENCODING 287
SWIDTH 479 0
DWIDTH 4 0
BBX 6 14 0 -5
BITMAP
030030
0D46A0
07FE30
001100
07E700
4E7C00
996A21
A9BBD3
5EDE30
04F400
2CE100
B5C000
D97000
BC1000
ENDCHAR
STARTCHAR Gdotaccent
ENCODING 288
SWIDTH 811 0
DWIDTH 7 0
BBX 9 15 0 -5
BITMAP
0001E40000
005CFB1000
05E63D7000
0D700A7000
3F10052000
5E00000000
6E00BFA000
4F3018A110
0CC43ABD30
01AEEEE400
00004F4000
0002BE1000
000B5C0000
000D970000
000BC10000
ENDCHAR
STARTCHAR gdotaccent
ENCODING 289
SWIDTH 479 0
DWIDTH 4 0
BBX 6 12 0 -5
BITMAP
00B700
001000
07E700
4E7C00
996A21
A9BBD3
5EDE30
04F400
2CE100
B5C000
D97000
BC1000
ENDCHAR
STARTCHAR uni0122
ENCODING 290
SWIDTH 811 0
DWIDTH 7 0
BBX 9 14 0 -5
BITMAP
005CEB1000
05E63D7000
0D700A7000
3F10052000
5E00000000
6E00BFA000
4F3018A110
0CC43ABD30
01AEEEE400
00104F4000
02D2BE1000
02AB5C0000
000D970000
000BC10000
ENDCHAR
STARTCHAR uni0123
ENCODING 291
SWIDTH 479 0
DWIDTH 4 0
BBX 6 14 0 -5
BITMAP
004600
008700
007300
000000
07E700
4E7C00
996A21
A9BBD3
5EDE30
04F400
2CE100
B5C000
D97000
BC1000
ENDCHAR
STARTCHAR Hcircumflex
ENCODING 292
SWIDTH 873 0
DWIDTH 8 0
BBX 9 12 0 0
BITMAP
00009B0000
0004EE2000
0009699E40
2CE300E880
C4C705C470
30B7089930
00D60BDA00
1EFFFF9000
05F30E4000
06D00E5030
08B00AA4C0
086003DD30
ENDCHAR
STARTCHAR hcircumflex
ENCODING 293
SWIDTH 502 0
DWIDTH 5 0
BBX 6 13 0 0
BITMAP
007D10
02ED50
068670
01C900
079D00
0D4B00
1E7600
4DC000
6F8D20
7BCF20
7E6E03
8E4D78
782EA0
ENDCHAR
STARTCHAR Hbar
ENCODING 294
SWIDTH 856 0
DWIDTH 8 0
BBX 8 9 0 0
BITMAP
02E101E2
2EFFFFFC
07D226E1
08B006D0
5FFFFFF8
0C822BA0
0E500C70
1F400E50
1E100D30
ENDCHAR
STARTCHAR hbar
ENCODING 295
SWIDTH 502 0
DWIDTH 5 0
BBX 6 9 0 0
BITMAP
069000
0A8000
6FFD00
1F4100
3E5D20
5CCF20
7F6E03
7E4D78
592EB1
ENDCHAR
STARTCHAR Itilde
ENCODING 296
SWIDTH 495 0
DWIDTH 4 0
BBX 7 11 -1 0
BITMAP
004E5A20
00A5BA00
00EFFD00
002D8100
000E5000
001F3000
003F1000
005E0000
007C0000
01AB1000
1FFFD000
ENDCHAR
STARTCHAR itilde
ENCODING 297
SWIDTH 246 0
DWIDTH 2 0
BBX 5 8 -1 0
BITMAP
0CA570
498D20
000000
02C000
06B000
089120
08AB40
04E700
ENDCHAR
STARTCHAR Imacron
ENCODING 298
SWIDTH 495 0
DWIDTH 4 0
BBX 6 10 -1 0
BITMAP
003FF7
00EFFE
002D81
000E50
001F30
003F10
005E00
007C00
01AB10
1FFFD0
ENDCHAR
STARTCHAR imacron
ENCODING 299
SWIDTH 246 0
DWIDTH 2 0
BBX 4 7 0 0
BITMAP
CFD0
2220
2C00
6B00
8912
8AB4
4E70
ENDCHAR
STARTCHAR Ibreve
ENCODING 300
SWIDTH 495 0
DWIDTH 4 0
BBX 6 11 -1 0
BITMAP
00761A
004EF9
00EFFD
002D81
000E50
001F30
003F10
005E00
007C00
01AB10
1FFFD0
ENDCHAR
STARTCHAR ibreve
ENCODING 301
SWIDTH 246 0
DWIDTH 2 0
BBX 5 9 -1 0
BITMAP
030120
2E2A60
0BFC10
002000
02C000
06B000
089120
08AB40
04E700
ENDCHAR
STARTCHAR Iogonek
ENCODING 302
SWIDTH 495 0
DWIDTH 4 0
BBX 6 13 -1 -4
BITMAP
00EFFD
002D81
000E50
001F30
003F10
005E00
007C00
01AB10
1FFFD0
00D100
01E000
00CF30
000200
ENDCHAR
STARTCHAR iogonek
ENCODING 303
SWIDTH 246 0
DWIDTH 2 0
BBX 4 10 0 -3
BITMAP
1E40
0100
2C00
6B00
8901
8884
6FB0
6A00
B400
6E70
ENDCHAR
STARTCHAR Idotaccent
ENCODING 304
SWIDTH 495 0
DWIDTH 4 0
BBX 6 10 -1 0
BITMAP
0007C0
00EFFD
002D81
000E50
001F30
003F10
005E00
007C00
01AB10
1FFFD0
ENDCHAR
STARTCHAR dotlessi
ENCODING 305
SWIDTH 246 0
DWIDTH 2 0
BBX 4 5 0 0
BITMAP
2C00
6B00
8912
8AB4
4E70
ENDCHAR
STARTCHAR Jcircumflex
ENCODING 308
SWIDTH 743 0
DWIDTH 7 0
BBX 7 14 0 -2
BITMAP
0007D100
002ED500
00686700
04BEFD90
2E632E80
5C000F40
2B001F20
00029F10
004ECD00
02E48900
08A0C500
0A95D000
05FE4000
00110000
ENDCHAR
STARTCHAR jcircumflex
ENCODING 309
SWIDTH 254 0
DWIDTH 2 0
BBX 6 15 -2 -5
BITMAP
000420
002E90
0097C0
00C1C0
000000
003C00
005C00
007A11
008BD2
00AD30
04E400
2BF100
B5C000
D97000
CC1000
ENDCHAR
STARTCHAR uni0136
ENCODING 310
SWIDTH 937 0
DWIDTH 8 0
BBX 10 12 0 -3
BITMAP
06DFD20880
3E47E10E50
6B08B07D10
1709A6E400
005FFD3000
000E8E6000
401F38D003
B87E02F796
3DE5008EA0
0000100000
0000E00000
0001B00000
ENDCHAR
STARTCHAR uni0137
ENCODING 311
SWIDTH 525 0
DWIDTH 5 0
BBX 6 13 0 -3
BITMAP
01C900
079D00
0D4B00
1E7600
4DB000
6E7E50
7ABA80
7E7D33
7E9B5B
593DC2
046000
087000
073000
ENDCHAR
STARTCHAR kgreenlandic
ENCODING 312
SWIDTH 465 0
DWIDTH 4 0
BBX 6 5 0 0
BITMAP
2C7E40
6CE870
8EB222
8ED3B3
699E70
ENDCHAR
STARTCHAR Lacute
ENCODING 313
SWIDTH 673 0
DWIDTH 6 0
BBX 9 12 -1 0
BITMAP
0000001500
000001CC00
0000098100
0002BEC100
000D93C800
005E109800
008C004200
009A000000
00A9000000
01B7000210
3EFEA44C20
3EB5AEE500
ENDCHAR
STARTCHAR lacute
ENCODING 314
SWIDTH 326 0
DWIDTH 3 0
BBX 6 13 0 0
BITMAP
000051
0007F3
003B30
01C800
089C00
0D3C00
1E3900
4C8500
6AC000
7E8000
7E1200
5C4C00
0CD400
ENDCHAR
STARTCHAR uni013B
ENCODING 315
SWIDTH 673 0
DWIDTH 6 0
BBX 9 12 -1 -3
BITMAP
0002BEC100
000D93C800
005E109800
008C004200
009A000000
00A9000000
01B7000210
3EFEA44C20
3EB5AEE500
0001000000
000A500000
000A200000
ENDCHAR
STARTCHAR uni013C
ENCODING 316
SWIDTH 326 0
DWIDTH 3 0
BBX 4 13 0 -3
BITMAP
01C8
089C
0D3C
1E39
4C85
6AC0
7E80
7E12
5C4C
0CD4
0A10
0E00
0A00
ENDCHAR
STARTCHAR Lcaron
ENCODING 317
SWIDTH 673 0
DWIDTH 6 0
BBX 9 9 -1 0
BITMAP
0002BEC100
000D93C800
005E1098E0
008C0043A0
009A000000
00A9000000
01B7000210
3EFEA44C20
3EB5AEE500
ENDCHAR
STARTCHAR lcaron
ENCODING 318
SWIDTH 237 0
DWIDTH 2 0
BBX 4 9 0 0
BITMAP
0870
0C8D
0E69
2F10
5D00
7A00
8811
99B2
5E60
ENDCHAR
STARTCHAR Ldot
ENCODING 319
SWIDTH 673 0
DWIDTH 6 0
BBX 9 9 -1 0
BITMAP
0002BEC100
000D93C800
005E109800
008C004200
009A5E1000
00A9010000
01B7000210
3EFEA44C20
3EB5AEE500
ENDCHAR
STARTCHAR ldot
ENCODING 320
SWIDTH 363 0
DWIDTH 3 0
BBX 5 10 0 0
BITMAP
04B000
099000
0C6000
0E3000
2F6400
5DA700
7A0000
890120
7C3B40
2CE700
ENDCHAR
STARTCHAR Lslash
ENCODING 321
SWIDTH 673 0
DWIDTH 6 0
BBX 9 11 -1 0
BITMAP
0004AEE900
0009742100
0002BEB100
000D93C700
005E009800
008C005300
009A000000
00A9000000
01B7000210
3EFEA44C20
3EB5AEE500
ENDCHAR
STARTCHAR lslash
ENCODING 322
SWIDTH 326 0
DWIDTH 3 0
BBX 6 11 0 0
BITMAP
02AEE3
0B9320
02D800
0A8C00
0E2B00
4C5800
6BB200
7D9000
7E1200
5C4C00
0BD400
ENDCHAR
STARTCHAR Nacute
ENCODING 323
SWIDTH 884 0
DWIDTH 8 0
BBX 10 12 0 0
BITMAP
0000004100
000006F300
00003C3000
1BE25DD200
B5D7B4E600
50DC20D600
00FA01F400
02F504F100
03F206D000
06E008B020
07C008D4C1
079002DE40
ENDCHAR
STARTCHAR nacute
ENCODING 324
SWIDTH 496 0
DWIDTH 4 0
BBX 6 9 0 0
BITMAP
000950
001E20
005500
000000
2C5E10
6BDF10
8E6E03
8D4D77
682EA0
ENDCHAR
STARTCHAR uni0145
ENCODING 325
SWIDTH 884 0
DWIDTH 8 0
BBX 10 12 0 -3
BITMAP
1BE25DD200
B5D7B4E600
50DC20D600
00FA01F400
02F504F100
03F206D000
06E008B020
07C008D4C1
079002DE40
0001000000
000B400000
000A100000
ENDCHAR
STARTCHAR uni0146
ENCODING 326
SWIDTH 496 0
DWIDTH 4 0
BBX 6 8 0 -3
BITMAP
2C5E10
6BDF10
8E6E03
8D4D77
682EA0
046000
087000
073000
ENDCHAR
STARTCHAR Ncaron
ENCODING 327
SWIDTH 884 0
DWIDTH 8 0
BBX 10 12 0 0
BITMAP
0001415000
0001D87000
00008B0000
1BE25DD200
B5D7B4E600
50DC20D600
00FA01F400
02F504F100
03F206D000
06E008B020
07C008D4C1
079002DE40
ENDCHAR
STARTCHAR ncaron
ENCODING 328
SWIDTH 496 0
DWIDTH 4 0
BBX 6 10 0 0
BITMAP
014150
03B780
01DD10
00B700
000000
2C5E10
6BDF10
8E6E03
8D4D77
682EA0
ENDCHAR
STARTCHAR napostrophe
ENCODING 329
SWIDTH 496 0
DWIDTH 4 0
BBX 6 9 0 0
BITMAP
A00000
E00000
A00000
000000
2C5E10
6BDF10
8E6E03
8D4D77
682EA0
ENDCHAR
STARTCHAR Eng
ENCODING 330
SWIDTH 884 0
DWIDTH 8 0
BBX 10 14 0 -5
BITMAP
2BE25DD100
B5D7B4E600
50DC20E500
00FA01F400
02F504F100
04F206D000
06E009A010
07C00BA3C1
06900EDE40
00002F0000
01106B0000
06B1B50000
01CFB00000
0002000000
ENDCHAR
STARTCHAR eng
ENCODING 331
SWIDTH 495 0
DWIDTH 4 0
BBX 6 8 0 -3
BITMAP
2C5E10
6BDF10
8E6D03
8D5C87
688FA0
00C300
95D000
6D4000
ENDCHAR
STARTCHAR Omacron
ENCODING 332
SWIDTH 816 0
DWIDTH 7 0
BBX 8 10 0 0
BITMAP
000EFB00
005EFC10
05E63DA0
0D7005F1
3F2003F2
5E0003F2
6E0005E0
4F100BA0
1DA38E20
03CEB300
ENDCHAR
STARTCHAR omacron
ENCODING 333
SWIDTH 451 0
DWIDTH 4 0
BBX 6 7 0 0
BITMAP
0EFB00
022100
1BE400
7BBC20
A76FF3
9A7B10
2DD200
ENDCHAR
STARTCHAR Obreve
ENCODING 334
SWIDTH 816 0
DWIDTH 7 0
BBX 8 11 0 0
BITMAP
00391840
001DFC10
005DFA10
05E63DA0
0D7005F1
3F2003F2
5E0003F2
6E0005E0
4F100BA0
1DA38E20
03CEB300
ENDCHAR
STARTCHAR obreve
ENCODING 335
SWIDTH 451 0
DWIDTH 4 0
BBX 6 9 0 0
BITMAP
120210
4C1C40
1CFB00
002000
1BE400
7BBC20
A76FF3
9A7B10
2DD200
ENDCHAR
STARTCHAR Ohungarumlaut
ENCODING 336
SWIDTH 816 0
DWIDTH 7 0
BBX 8 12 0 0
BITMAP
00024410
00079D30
00093A00
005DEA10
05E63DA0
0D7005F1
3F2003F2
5E0003F2
6E0005E0
4F100BA0
1DA38E20
03CEB300
ENDCHAR
STARTCHAR ohungarumlaut
ENCODING 337
SWIDTH 451 0
DWIDTH 4 0
BBX 6 10 0 0
BITMAP
005320
04DA70
087D20
092900
000000
1BE400
7BBC20
A76FF3
9A7B10
2DD200
ENDCHAR
STARTCHAR OE
ENCODING 338
SWIDTH 1124 0
DWIDTH 10 0
BBX 12 9 0 0
BITMAP
005DEB3DFF90
05E63DED2200
0D7005F90000
3F2003F70000
5E0003FFFE00
6E0005F42100
4F100BF20000
1DA38EEA34B2
03CFB34CFD70
ENDCHAR
STARTCHAR oe
ENCODING 339
SWIDTH 668 0
DWIDTH 6 0
BBX 8 5 0 0
BITMAP
1BE7EA00
7B7F5E00
A74EB721
9A8F75E1
2DC7ED40
ENDCHAR
STARTCHAR Racute
ENCODING 340
SWIDTH 880 0
DWIDTH 8 0
BBX 9 12 0 0
BITMAP
0000015000
00001BD000
0000881000
004CED7000
04D638F200
0D3C62F300
3C0F59C000
68AFF91000
775E9E1000
686C1E6040
3DAA09C4C0
08E502DD30
ENDCHAR
STARTCHAR racute
ENCODING 341
SWIDTH 455 0
DWIDTH 4 0
BBX 6 9 0 0
BITMAP
000C30
004D00
008300
000000
2C6E10
6CCF32
8F3EE2
8D0110
680000
ENDCHAR
STARTCHAR uni0156
ENCODING 342
SWIDTH 880 0
DWIDTH 8 0
BBX 9 12 0 -3
BITMAP
004CED7000
04D638F200
0D3C62F300
3C0F59C000
68AFF91000
775E9E1000
686C1E6040
3DAA09C4C0
08E502DD30
0000100000
0002D00000
0002A00000
ENDCHAR
STARTCHAR uni0157
ENCODING 343
SWIDTH 455 0
DWIDTH 4 0
BBX 6 8 0 -3
BITMAP
2C6E10
6CCF32
8F3EE2
8D0110
680000
650000
960000
920000
ENDCHAR
STARTCHAR Rcaron
ENCODING 344
SWIDTH 880 0
DWIDTH 8 0
BBX 9 12 0 0
BITMAP
0004233000
00069D2000
0001D70000
004CED7000
04D638F200
0D3C62F300
3C0F59C000
68AFF91000
775E9E1000
686C1E6040
3DAA09C4C0
08E502DD30
ENDCHAR
STARTCHAR rcaron
ENCODING 345
SWIDTH 455 0
DWIDTH 4 0
BBX 6 10 0 0
BITMAP
033230
068A50
03CC00
00D500
000000
2C6E10
6CCF32
8F3EE2
8D0110
680000
ENDCHAR
STARTCHAR Sacute
ENCODING 346
SWIDTH 693 0
DWIDTH 6 0
BBX 7 12 0 0
BITMAP
00000510
00008E20
0005A200
02BED600
0CA35F20
0F400E30
0DC20400
02CF9100
2205EA00
A7006D00
8B33BA00
1AEEA100
ENDCHAR
STARTCHAR sacute
ENCODING 347
SWIDTH 427 0
DWIDTH 4 0
BBX 5 9 0 0
BITMAP
002D00
007900
00A100
000000
05A000
0BA000
4BF340
C6DBD0
3AFE40
ENDCHAR
STARTCHAR Scircumflex
ENCODING 348
SWIDTH 693 0
DWIDTH 6 0
BBX 7 12 0 0
BITMAP
0008C000
003ED300
00878500
02BED600
0CA35F20
0F400E30
0DC20400
02CF9100
2205EA00
A7006D00
8B33BA00
1AEEA100
ENDCHAR
STARTCHAR scircumflex
ENCODING 349
SWIDTH 427 0
DWIDTH 4 0
BBX 5 10 0 0
BITMAP
005100
03E800
0A7B00
1C1C00
000000
05A000
0BA000
4BF340
C6DBD0
3AFE40
ENDCHAR
STARTCHAR Scedilla
ENCODING 350
SWIDTH 693 0
DWIDTH 6 0
BBX 7 13 0 -4
BITMAP
02BED600
0CA35F20
0F400E30
0DC30400
03DFA100
1117FA00
97007D00
8A11A900
1AFE9100
004D0000
002D0000
09F70000
01100000
ENDCHAR
STARTCHAR scedilla
ENCODING 351
SWIDTH 427 0
DWIDTH 4 0
BBX 5 9 0 -4
BITMAP
05B000
0B9000
3EE110
C4C7B0
5BFD50
03D100
00D100
6E8000
010000
ENDCHAR
STARTCHAR Scaron
ENCODING 352
SWIDTH 693 0
DWIDTH 6 0
BBX 7 12 0 0
BITMAP
00231400
003BA500
000AA000
02BED600
0CA35F20
0F400E30
0DC20400
02CF9100
2205EA00
A7006D00
8B33BA00
1AEEA100
ENDCHAR
STARTCHAR scaron
ENCODING 353
SWIDTH 427 0
DWIDTH 4 0
BBX 5 10 0 0
BITMAP
041410
0A5D10
07B900
03D200
000000
05A000
0BA000
4BF340
C6DBD0
3AFE40
ENDCHAR
STARTCHAR uni0162
ENCODING 354
SWIDTH 697 0
DWIDTH 6 0
BBX 9 12 0 -3
BITMAP
07CEFFFD10
7C47E22200
A708B00000
340B900000
000D600000
000F400000
002F200000
004F100000
00AE100000
002C400000
03FD100000
0020000000
ENDCHAR
STARTCHAR uni0163
ENCODING 355
SWIDTH 393 0
DWIDTH 4 0
BBX 5 13 0 -4
BITMAP
00AA00
06AD00
0B6B00
0EB300
EFFE00
4E2100
3E0010
1F2390
0BEE30
09F200
00C200
5FB000
020000
ENDCHAR
STARTCHAR Tcaron
ENCODING 356
SWIDTH 697 0
DWIDTH 6 0
BBX 9 12 0 0
BITMAP
0004142000
00078D2000
0001D60000
06BEFFFD10
7C47E22200
A708C00000
550A900000
000D700000
000F500000
002F300000
003F100000
003D000000
ENDCHAR
STARTCHAR tcaron
ENCODING 357
SWIDTH 343 0
DWIDTH 3 0
BBX 5 8 0 0
BITMAP
078D20
0B7B00
0E4000
CFF700
5E2000
5C0110
5E4B20
1CE600
ENDCHAR
STARTCHAR Tbar
ENCODING 358
SWIDTH 697 0
DWIDTH 6 0
BBX 9 9 0 0
BITMAP
06BEFFFD10
7C47E22200
A708C00000
550A900000
04FFFD0000
002F610000
001F300000
003F100000
003D000000
ENDCHAR
STARTCHAR tbar
ENCODING 359
SWIDTH 343 0
DWIDTH 3 0
BBX 5 8 0 0
BITMAP
078000
0B7000
0E4000
CFF600
EFF200
7C2420
4E3C10
0BE500
ENDCHAR
STARTCHAR Utilde
ENCODING 360
SWIDTH 890 0
DWIDTH 8 0
BBX 10 11 0 0
BITMAP
0007D3C000
000C5D7000
1BE4009600
B6C800D700
50C700F500
00E503F300
02F207F100
05E00CE000
07C04CD021
07E6C7E7D1
02DD42DE50
ENDCHAR
STARTCHAR utilde
ENCODING 361
SWIDTH 462 0
DWIDTH 4 0
BBX 6 8 0 0
BITMAP
0AB490
1B6E40
000000
2C1C00
6B5B00
89A911
8CE9B3
4D6E60
ENDCHAR
STARTCHAR Umacron
ENCODING 362
SWIDTH 890 0
DWIDTH 8 0
BBX 10 10 0 0
BITMAP
0007FF4000
1BE5229600
B6C800D700
50C700F500
00E503F300
02F207F100
05E00CE000
07C04CD021
07E6C7E7D1
02DD42DE50
ENDCHAR
STARTCHAR umacron
ENCODING 363
SWIDTH 462 0
DWIDTH 4 0
BBX 6 7 0 0
BITMAP
0AFF10
012200
2C1C00
6B5B00
89A911
8CE9B3
4D6E60
ENDCHAR
STARTCHAR Ubreve
ENCODING 364
SWIDTH 890 0
DWIDTH 8 0
BBX 10 11 0 0
BITMAP
0009339000
0007FF5000
1BE4119600
B6C800D700
50C700F500
00E503F300
02F207F100
05E00CE000
07C04CD021
07E6C7E7D1
02DD42DE50
ENDCHAR
STARTCHAR ubreve
ENCODING 365
SWIDTH 462 0
DWIDTH 4 0
BBX 6 9 0 0
BITMAP
030020
0E3880
08FD20
002000
2C1C00
6B5B00
89A911
8CE9B3
4D6E60
ENDCHAR
STARTCHAR Uring
ENCODING 366
SWIDTH 890 0
DWIDTH 8 0
BBX 10 12 0 0
BITMAP
0000BC1000
0002BB3000
0001ED0000
1BE4109600
B6C800D700
50C700F500
00E503F300
02F207F100
05E00CE000
07C04CD021
07E6C7E7D1
02DD42DE50
ENDCHAR
STARTCHAR uring
ENCODING 367
SWIDTH 462 0
DWIDTH 4 0
BBX 6 9 0 0
BITMAP
01DA00
059D00
03FA00
001000
2C1C00
6B5B00
89A911
8CE9B3
4D6E60
ENDCHAR
STARTCHAR Uhungarumlaut
ENCODING 368
SWIDTH 890 0
DWIDTH 8 0
BBX 10 12 0 0
BITMAP
0000514000
0001E7A000
0003883000
1BE4009600
B6C800D700
50C700F500
00E503F300
02F207F100
05E00CE000
07C04CD021
07E6C7E7D1
02DD42DE50
ENDCHAR
STARTCHAR uhungarumlaut
ENCODING 369
SWIDTH 462 0
DWIDTH 4 0
BBX 6 10 0 0
BITMAP
005140
00E8C0
03C960
064A00
000000
2C1C00
6B5B00
89A911
8CE9B3
4D6E60
ENDCHAR
STARTCHAR Uogonek
ENCODING 370
SWIDTH 890 0
DWIDTH 8 0
BBX 10 12 0 -3
BITMAP
1BE4009600
B6C800D700
60C700F500
00E502F300
02F206F100
05F00BE000
07C02CD010
07D3B7E4C1
02DD42DF80
0000008800
000000B500
0000005E80
ENDCHAR
STARTCHAR uogonek
ENCODING 371
SWIDTH 462 0
DWIDTH 4 0
BBX 6 8 0 -3
BITMAP
2C1C00
6B5B00
89A911
8CE9B3
4D7F80
009800
00C300
006E60
ENDCHAR
STARTCHAR Wcircumflex
ENCODING 372
SWIDTH 1217 0
DWIDTH 11 0
BBX 12 12 1 0
BITMAP
00003E400000
0000BCA00000
0002D2C00000
88005B03DC00
B9009C087E30
C700CB0A4E20
D600EA07DE00
D604F900CFF3
D608C901E420
B81D6B07B000
8DB92F8E2000
2DB10AE40000
ENDCHAR
STARTCHAR wcircumflex
ENCODING 373
SWIDTH 700 0
DWIDTH 6 0
BBX 8 10 0 0
BITMAP
00052000
003E8000
00A7B000
01C1C000
00000000
773B2D20
888C5F21
89DD6FF6
7DBED310
3E3D7000
ENDCHAR
STARTCHAR Ycircumflex
ENCODING 374
SWIDTH 851 0
DWIDTH 8 0
BBX 9 16 0 -4
BITMAP
00007D0000
0002ED4000
0007877000
1BE4009600
B6C800D700
70C700E500
00E603F400
02F307F200
04F10CF000
03F27BD000
00CFB9EC80
0007DDB200
006B1B6000
00B64E1000
008FE50000
0002000000
ENDCHAR
STARTCHAR ycircumflex
ENCODING 375
SWIDTH 479 0
DWIDTH 4 0
BBX 6 15 0 -5
BITMAP
003300
00DC00
068E00
0B2B10
000000
2C1D00
6B5C00
88AA21
8CEBD2
4DBD30
04F400
3CE100
B5C000
D97000
BC1000
ENDCHAR
STARTCHAR Ydieresis
ENCODING 376
SWIDTH 851 0
DWIDTH 8 0
BBX 9 14 0 -4
BITMAP
0006A78000
1BE411A600
B6C800D700
70C700E500
00E603F400
02F307F200
04F10CF000
03F27BD000
00CFB9EC80
0007DDB200
006B1B6000
00B64E1000
008FE50000
0002000000
ENDCHAR
STARTCHAR Zacute
ENCODING 377
SWIDTH 721 0
DWIDTH 6 0
BBX 8 12 0 0
BITMAP
00000420
00005F40
0002C300
06CFEC80
4D424FA0
6A007E10
2701E600
0008D000
003F5000
02CB0002
9FFD7388
AE78DFA1
ENDCHAR
STARTCHAR zacute
ENCODING 378
SWIDTH 445 0
DWIDTH 4 0
BBX 6 9 0 0
BITMAP
000C20
004C00
008200
000000
6FFF30
06E800
3E3031
6E35D1
1BEC30
ENDCHAR
STARTCHAR Zdotaccent
ENCODING 379
SWIDTH 721 0
DWIDTH 6 0
BBX 8 10 0 0
BITMAP
0007C000
06CFFC80
4D424FA0
6A007E10
2701E600
0008D000
003F5000
02CB0002
9FFD7388
AE78DFA1
ENDCHAR
STARTCHAR zdotaccent
ENCODING 380
SWIDTH 445 0
DWIDTH 4 0
BBX 6 7 0 0
BITMAP
01D500
001000
6FFF30
06E800
3E3031
6E35D1
1BEC30
ENDCHAR
STARTCHAR Zcaron
ENCODING 381
SWIDTH 721 0
DWIDTH 6 0
BBX 8 12 0 0
BITMAP
00150500
001D7800
0007C100
06CFEC80
4D424FA0
6A007E10
2701E600
0008D000
003F5000
02CB0002
9FFD7388
AE78DFA1
ENDCHAR
STARTCHAR zcaron
ENCODING 382
SWIDTH 445 0
DWIDTH 4 0
BBX 6 10 0 0
BITMAP
032230
078B40
04BC00
01D400
000000
6FFF30
06E800
3E3031
6E35D1
1BEC30
ENDCHAR
STARTCHAR uni018F
ENCODING 399
SWIDTH 792 0
DWIDTH 7 0
BBX 7 9 0 0
BITMAP
02AEE800
0B935E70
020008C0
000006E0
4FFFFFD0
7E222BB0
5F101E60
1E93AD10
04CEB200
ENDCHAR
STARTCHAR florin
ENCODING 402
SWIDTH 478 0
DWIDTH 4 0
BBX 6 12 -1 -4
BITMAP
0006EA
001F61
003F00
09FFF5
017C20
007A00
009900
00A700
00C600
02E300
7FB000
120000
ENDCHAR
STARTCHAR Ohorn
ENCODING 416
SWIDTH 816 0
DWIDTH 7 0
BBX 8 11 0 0
BITMAP
00000014
0000008A
005DFFF4
05E63DB0
0D7005F1
3F2003F2
5E0003F2
6E0005E0
4F100B90
1DA38E20
03CEB300
ENDCHAR
STARTCHAR ohorn
ENCODING 417
SWIDTH 451 0
DWIDTH 4 0
BBX 6 7 0 0
BITMAP
000230
000860
1BFD10
7BBB20
A76FF3
9A7B10
2DD200
ENDCHAR
STARTCHAR Uhorn
ENCODING 431
SWIDTH 890 0
DWIDTH 8 0
BBX 10 11 0 0
BITMAP
0000000050
00000005D0
1BE4009F70
B6C800D800
50C700F500
00E503F300
02F207F100
05E00CE000
07C04CD021
07E6C7E7D1
02DD42DE50
ENDCHAR
STARTCHAR uhorn
ENCODING 432
SWIDTH 512 0
DWIDTH 5 0
BBX 6 7 0 0
BITMAP
000040
0001D1
2C1E80
6B5C00
89A903
8CE969
4D6EA1
ENDCHAR
STARTCHAR uni01C4
ENCODING 452
SWIDTH 1531 0
DWIDTH 14 0
BBX 15 12 0 0
BITMAP
0000000000505100
0000000000A7C000
00000000003E3000
04CFD7003BEFDA20
04536E80E633CD20
04A007E2E002F400
08A004F2910AB000
0B7004F1004F3000
0E5007E000D90000
1F300D8018E10020
3F44BD15FFE835B0
2DFD9105E96CFC20
ENDCHAR
STARTCHAR uni01C5
ENCODING 453
SWIDTH 1191 0
DWIDTH 11 0
BBX 12 10 0 0
BITMAP
000000004132
04CFD70096D2
04536E806BA0
04A007E02E20
08A004F10000
0B7004F8FFC0
0E5007E17E50
1F300D83E400
3F44BD1B9210
2DFD910DFFD0
ENDCHAR
STARTCHAR uni01C6
ENCODING 454
SWIDTH 895 0
DWIDTH 8 0
BBX 10 9 0 0
BITMAP
0007867770
000A75AD10
000C51F800
000E203000
07EE5FFF40
4E7C16E800
997A2E3021
AACBBE56D1
5E6D7AEC40
ENDCHAR
STARTCHAR uni01C7
ENCODING 455
SWIDTH 1276 0
DWIDTH 11 0
BBX 13 11 -1 -2
BITMAP
0003CE804CFD60
001E84F3E54F50
005E00F6C02F20
008C0061C04F00
009A000001AD00
00A900004DCA00
01B70003D2B600
3EFEA43C61E200
3EB5AEEE68B000
00000008FD2000
00000000200000
ENDCHAR
STARTCHAR uni01C8
ENCODING 456
SWIDTH 927 0
DWIDTH 8 0
BBX 11 14 -1 -5
BITMAP
0002BEC10000
000D93C80000
005E109AE200
008C00321000
009A0002D000
00A90004D000
01B70006B110
3EFEA43CBC30
3EB5AEEDE300
0000003E5000
000002BE2000
00000A5D0000
00000D880000
00000BD10000
ENDCHAR
STARTCHAR uni01C9
ENCODING 457
SWIDTH 610 0
DWIDTH 5 0
BBX 7 15 0 -5
BITMAP
01C80000
089C0000
0D3C0000
1E4AD400
4C851000
6AC1E100
7E82F000
7E15D120
5C4DCC50
0CDAE500
002E7000
01CD4000
085E1000
0C8A0000
09E20000
ENDCHAR
STARTCHAR uni01CA
ENCODING 458
SWIDTH 1497 0
DWIDTH 13 0
BBX 14 11 0 -2
BITMAP
2BE25DD21AEED7
C5D7B4E6A933F3
30DC20D6D303F1
00FA01F48304E0
02F504F1003BC0
03F206D006EC90
06E008B04D2B60
07C008D4D61E10
079002DEE68A00
000000008FD200
00000000020000
ENDCHAR
STARTCHAR uni01CB
ENCODING 459
SWIDTH 1138 0
DWIDTH 10 0
BBX 12 14 0 -5
BITMAP
1BE25DD20000
B6D7B4E60000
60DC20D64E10
00FA01F40100
02F504F13B00
03F206D06B00
06E008B07911
07C008D4DAD2
079002DEED30
00000004F300
0000003BF000
000000B5B000
000001DA6000
000000CC1000
ENDCHAR
STARTCHAR uni01CC
ENCODING 460
SWIDTH 750 0
DWIDTH 7 0
BBX 8 12 0 -5
BITMAP
00000A80
00000100
2C5E1A40
6BDF1D40
8E6E0F23
8D4D8FA8
682ECF80
0001BB00
000AC800
0049B400
0088D000
005E5000
ENDCHAR
STARTCHAR Gcaron
ENCODING 486
SWIDTH 811 0
DWIDTH 7 0
BBX 9 17 0 -5
BITMAP
0005141000
00097D1000
0002E50000
005CEB1000
05E63D7000
0D700A7000
3F10052000
5E00000000
6E00BFA000
4F3018A110
0CC43ABD30
01AEEEE400
00004F4000
0002BE1000
000B5C0000
000D970000
000BC10000
ENDCHAR
STARTCHAR gcaron
ENCODING 487
SWIDTH 479 0
DWIDTH 4 0
BBX 6 15 0 -5
BITMAP
024140
04B870
01DD10
00B700
000000
07E700
4E7C00
996A21
A9BBD3
5EDE30
04F400
2CE100
B5C000
D97000
BC1000
ENDCHAR
STARTCHAR uni01EA
ENCODING 490
SWIDTH 816 0
DWIDTH 7 0
BBX 8 12 0 -3
BITMAP
005CEA10
04E63DA0
0C7005F1
2F2003F2
5E0003F2
6E0005F0
5F100AB0
1F916F40
06FFF600
002E2000
002D0000
000CE200
ENDCHAR
STARTCHAR uni01EB
ENCODING 491
SWIDTH 451 0
DWIDTH 4 0
BBX 6 8 0 -3
BITMAP
1BE400
7BBC20
976FF3
985B10
4FE300
0A6000
0D2000
08E500
ENDCHAR
STARTCHAR Aringacute
ENCODING 506
SWIDTH 786 0
DWIDTH 7 0
BBX 9 14 0 0
BITMAP
00000006A0
00004E7A20
000097B000
00006F7000
0000010000
0018DFD500
01CD656200
09C10A8000
1F400E6000
5E002F3000
7D005F1000
7D00BF0210
3F77DF6C20
08EB2CE600
ENDCHAR
STARTCHAR aringacute
ENCODING 507
SWIDTH 470 0
DWIDTH 4 0
BBX 6 10 0 0
BITMAP
000015
00CB77
03AC20
01EC00
001000
07E700
4E7D00
996A11
A9CAA4
5E7D80
ENDCHAR
STARTCHAR AEacute
ENCODING 508
SWIDTH 1015 0
DWIDTH 9 0
BBX 11 12 0 0
BITMAP
000000024000
0000002D9000
000000B60000
0019E5DFF900
01DD66D22100
0AC109A00000
1F400D700000
5F001FFFE000
7D005F421000
7D00BF200000
3F56CEA34B30
07EC34CFD700
ENDCHAR
STARTCHAR aeacute
ENCODING 509
SWIDTH 653 0
DWIDTH 6 0
BBX 7 9 0 0
BITMAP
00008700
0000D300
00047000
00000000
07EBE800
4E6E6C00
986DC630
99BF66D0
4E89FC30
ENDCHAR
STARTCHAR Oslashacute
ENCODING 510
SWIDTH 816 0
DWIDTH 7 0
BBX 8 13 0 -1
BITMAP
00001500
0001CB00
0009E700
005DFB10
05E5EDA0
0D72C5F1
3F2692F2
5E0953F2
6E0C25E0
4F2E0AA0
0ECC7E20
03DFB300
00A30000
ENDCHAR
STARTCHAR oslashacute
ENCODING 511
SWIDTH 459 0
DWIDTH 4 0
BBX 6 11 0 -2
BITMAP
00D200
05C000
096000
00A000
1BF600
7BDD31
A98FE3
9DAC00
3ED300
091000
040000
ENDCHAR
STARTCHAR uni0200
ENCODING 512
SWIDTH 786 0
DWIDTH 7 0
BBX 9 12 0 0
BITMAP
0002351000
0005BB5000
0000B47000
0018DFD500
01CD656200
09C10A8000
1F400E6000
5E002F3000
7D005F1000
7D00BF0210
3F77DF6C20
08EB2CE600
ENDCHAR
STARTCHAR uni0201
ENCODING 513
SWIDTH 470 0
DWIDTH 4 0
BBX 6 10 0 0
BITMAP
144100
4DA700
0D5B00
064A00
000000
07E700
4E7D00
996A11
A9CAA4
5E7D80
ENDCHAR
STARTCHAR uni0202
ENCODING 514
SWIDTH 786 0
DWIDTH 7 0
BBX 9 11 0 0
BITMAP
00009EA100
0004C3C500
0018DFE600
01CD656200
09C10A8000
1F400E6000
5E002F3000
7D005F1000
7D00BF0210
3F77DF6C20
08EB2CE600
ENDCHAR
STARTCHAR uni0203
ENCODING 515
SWIDTH 470 0
DWIDTH 4 0
BBX 6 8 0 0
BITMAP
03DD20
0C69A0
070160
07E700
4E7D00
996A11
A9CAA4
5E7D80
ENDCHAR
STARTCHAR uni0204
ENCODING 516
SWIDTH 686 0
DWIDTH 6 0
BBX 8 12 0 0
BITMAP
00325000
0079D300
001A5600
008EE900
08E43E40
0C800C60
0AB10710
04FF3000
4E730000
AA000000
8E5236B3
18DFEC70
ENDCHAR
STARTCHAR uni0205
ENCODING 517
SWIDTH 393 0
DWIDTH 4 0
BBX 5 10 0 0
BITMAP
415000
A8F100
5AA500
0A3700
000000
0BE300
7B9700
ABC230
9D4A80
2CE910
ENDCHAR
STARTCHAR uni0206
ENCODING 518
SWIDTH 686 0
DWIDTH 6 0
BBX 8 11 0 0
BITMAP
000AE900
005B3D30
009EEA00
08E43E40
0C800C60
0AB10710
04FF3000
4E730000
AA000000
8E5236B3
18DFEC70
ENDCHAR
STARTCHAR uni0207
ENCODING 519
SWIDTH 393 0
DWIDTH 4 0
BBX 5 8 0 0
BITMAP
08EA00
3D3D40
240520
0BE300
7B9700
ABC230
9D4A80
2CE910
ENDCHAR
STARTCHAR uni0208
ENCODING 520
SWIDTH 495 0
DWIDTH 4 0
BBX 6 12 -1 0
BITMAP
004150
00A7E1
003883
00EFFD
002D81
000E50
001F30
003F10
005E00
007C00
01AB10
1FFFD0
ENDCHAR
STARTCHAR uni0209
ENCODING 521
SWIDTH 246 0
DWIDTH 2 0
BBX 5 10 -1 0
BITMAP
325000
98E300
3C9600
0A2800
000000
02C000
06B000
089120
08AB40
04E700
ENDCHAR
STARTCHAR uni020A
ENCODING 522
SWIDTH 495 0
DWIDTH 4 0
BBX 7 11 -1 0
BITMAP
001CE800
00894E10
00EFFE00
002D8100
000E5000
001F3000
003F1000
005E0000
007C0000
01AB1000
1FFFD000
ENDCHAR
STARTCHAR uni020B
ENCODING 523
SWIDTH 246 0
DWIDTH 2 0
BBX 5 8 -1 0
BITMAP
06EB00
1E4C50
150430
02C000
06B000
089120
08AB40
04E700
ENDCHAR
STARTCHAR uni020C
ENCODING 524
SWIDTH 816 0
DWIDTH 7 0
BBX 8 12 0 0
BITMAP
00234100
005BB500
000B4800
005DEA10
05E63DA0
0D7005F1
3F2003F2
5E0003F2
6E0005E0
4F100BA0
1DA38E20
03CEB300
ENDCHAR
STARTCHAR uni020D
ENCODING 525
SWIDTH 451 0
DWIDTH 4 0
BBX 6 10 0 0
BITMAP
415000
B8F100
5AB400
0A3700
000000
1BE400
7BBC20
A76FF3
9A7B10
2DD200
ENDCHAR
STARTCHAR uni020E
ENCODING 526
SWIDTH 816 0
DWIDTH 7 0
BBX 8 11 0 0
BITMAP
0009EB10
003C3C50
005DEB10
05E63DA0
0D7005F1
3F2003F2
5E0003F2
6E0005E0
4F100BA0
1DA38E20
03CEB300
ENDCHAR
STARTCHAR uni020F
ENCODING 527
SWIDTH 451 0
DWIDTH 4 0
BBX 6 8 0 0
BITMAP
08E900
3D3E30
340520
1BE400
7BBC20
A76FF3
9A7B10
2DD200
ENDCHAR
STARTCHAR uni0210
ENCODING 528
SWIDTH 880 0
DWIDTH 8 0
BBX 9 12 0 0
BITMAP
0005330000
001E790000
00093A0000
004CED7000
04D638F200
0D3C62F300
3C0F59C000
68AFF91000
775E9E1000
686C1E6040
3DAA09C4C0
08E502DD30
ENDCHAR
STARTCHAR uni0211
ENCODING 529
SWIDTH 455 0
DWIDTH 4 0
BBX 6 10 0 0
BITMAP
235100
7AC500
1D7800
092A00
000000
2C6E10
6CCF32
8F3EE2
8D0110
680000
ENDCHAR
STARTCHAR uni0212
ENCODING 530
SWIDTH 880 0
DWIDTH 8 0
BBX 9 11 0 0
BITMAP
0005EC3000
000D489000
004CEE7000
04D638F200
0D3C62F300
3C0F59C000
68AFF91000
775E9E1000
686C1E6040
3DAA09C4C0
08E502DD30
ENDCHAR
STARTCHAR uni0213
ENCODING 531
SWIDTH 455 0
DWIDTH 4 0
BBX 6 8 0 0
BITMAP
05EC10
0E4B70
060340
2C6E10
6CCF32
8F3EE2
8D0110
680000
ENDCHAR
STARTCHAR uni0214
ENCODING 532
SWIDTH 890 0
DWIDTH 8 0
BBX 10 12 0 0
BITMAP
0005140000
000D6C0000
00065B0000
1BE4009600
B6C800D700
50C700F500
00E503F300
02F207F100
05E00CE000
07C04CD021
07E6C7E7D1
02DD42DE50
ENDCHAR
STARTCHAR uni0215
ENCODING 533
SWIDTH 462 0
DWIDTH 4 0
BBX 6 10 0 0
BITMAP
235100
6BC500
1D6900
082A00
000000
2C1C00
6B5B00
89A911
8CE9B3
4D6E60
ENDCHAR
STARTCHAR uni0216
ENCODING 534
SWIDTH 890 0
DWIDTH 8 0
BBX 10 11 0 0
BITMAP
0003DD5000
000B66C000
1BE500A600
B6C800D700
50C700F500
00E503F300
02F207F100
05E00CE000
07C04CD021
07E6C7E7D1
02DD42DE50
ENDCHAR
STARTCHAR uni0217
ENCODING 535
SWIDTH 462 0
DWIDTH 4 0
BBX 6 8 0 0
BITMAP
04EC10
0E5A80
070250
2C1C00
6B5B00
89A911
8CE9B3
4D6E60
ENDCHAR
STARTCHAR uni0218
ENCODING 536
SWIDTH 693 0
DWIDTH 6 0
BBX 7 12 0 -3
BITMAP
02BED600
0CA35F20
0F400E30
0DC20400
02CF9100
2205EA00
A7006D00
8B33BA00
1AEEA100
00100000
00A50000
00A20000
ENDCHAR
STARTCHAR uni0219
ENCODING 537
SWIDTH 427 0
DWIDTH 4 0
BBX 5 8 0 -3
BITMAP
05A000
0BA000
4BF340
C6DBD0
3AFE40
056000
087000
082000
ENDCHAR
STARTCHAR uni021A
ENCODING 538
SWIDTH 697 0
DWIDTH 6 0
BBX 9 12 0 -3
BITMAP
06BEFFFD10
7C47E22200
A708C00000
550A900000
000D700000
000F500000
002F300000
003F100000
003D000000
0001000000
004B000000
0057000000
ENDCHAR
STARTCHAR uni021B
ENCODING 539
SWIDTH 393 0
DWIDTH 4 0
BBX 5 12 0 -3
BITMAP
00AA00
06AD00
0B6B00
0EB300
EFFE00
4E2100
2E0020
1F5790
07EB10
047000
078000
074000
ENDCHAR
STARTCHAR uni022A
ENCODING 554
SWIDTH 816 0
DWIDTH 7 0
BBX 8 12 0 0
BITMAP
000AFF10
00012200
000D4D10
005EEC10
05E63DA0
0D7005F1
3F2003F2
5E0003F2
6E0005E0
4F100BA0
1DA38E20
03CEB300
ENDCHAR
STARTCHAR uni022B
ENCODING 555
SWIDTH 451 0
DWIDTH 4 0
BBX 6 9 0 0
BITMAP
0BFE00
012200
1E3D00
010100
1BE400
7BBC20
A76FF3
9A7B10
2DD200
ENDCHAR
STARTCHAR uni022C
ENCODING 556
SWIDTH 816 0
DWIDTH 7 0
BBX 8 13 0 0
BITMAP
0009FF10
00012200
001D9660
00589D10
005DEA10
05E63DA0
0D7005F1
3F2003F2
5E0003F2
6E0005E0
4F100BA0
1DA38E20
03CEB300
ENDCHAR
STARTCHAR uni022D
ENCODING 557
SWIDTH 451 0
DWIDTH 4 0
BBX 6 9 0 0
BITMAP
0AFF10
1EA950
679D10
000000
1BE400
7BBC20
A76FF3
9A7B10
2DD200
ENDCHAR
STARTCHAR uni0230
ENCODING 560
SWIDTH 816 0
DWIDTH 7 0
BBX 8 12 0 0
BITMAP
000AFF10
00012200
0003E200
005DFA10
05E63DA0
0D7005F1
3F2003F2
5E0003F2
6E0005E0
4F100BA0
1DA38E20
03CEB300
ENDCHAR
STARTCHAR uni0231
ENCODING 561
SWIDTH 451 0
DWIDTH 4 0
BBX 6 9 0 0
BITMAP
0BFE00
012200
03E200
001000
1BE400
7BBC20
A76FF3
9A7B10
2DD200
ENDCHAR
STARTCHAR uni0232
ENCODING 562
SWIDTH 851 0
DWIDTH 8 0
BBX 9 14 0 -4
BITMAP
0005FF5000
1BE422A600
B6C800D700
70C700E500
00E603F400
02F307F200
04F10CF000
03F27BD000
00CFB9EC80
0007DDB200
006B1B6000
00B64E1000
008FE50000
0002000000
ENDCHAR
STARTCHAR uni0233
ENCODING 563
SWIDTH 479 0
DWIDTH 4 0
BBX 6 12 0 -5
BITMAP
0AFF10
012200
2C1D00
6B5C00
88AA21
8CEBD2
4DBD30
04F400
3CE100
B5C000
D97000
BC1000
ENDCHAR
STARTCHAR uni0237
ENCODING 567
SWIDTH 254 0
DWIDTH 2 0
BBX 6 10 -2 -5
BITMAP
003C00
005C00
007A11
008BD2
00AD30
04E400
2BF100
B5C000
D97000
CC1000
ENDCHAR
STARTCHAR uni0259
ENCODING 601
SWIDTH 458 0
DWIDTH 4 0
BBX 4 5 0 0
BITMAP
4EE4
238C
7FFD
9A9B
3DD3
ENDCHAR
STARTCHAR uni02BC
ENCODING 700
SWIDTH 600 0
DWIDTH 5 0
BBX 2 3 2 6
BITMAP
55
96
82
ENDCHAR
STARTCHAR circumflex
ENCODING 710
SWIDTH 600 0
DWIDTH 5 0
BBX 4 4 1 6
BITMAP
0240
0CC0
59D1
A3A2
ENDCHAR
STARTCHAR caron
ENCODING 711
SWIDTH 600 0
DWIDTH 5 0
BBX 4 4 1 6
BITMAP
2314
5A96
2CD0
0C60
ENDCHAR
STARTCHAR uni02C9
ENCODING 713
SWIDTH 600 0
DWIDTH 5 0
BBX 4 2 1 5
BITMAP
9FF2
1220
ENDCHAR
STARTCHAR breve
ENCODING 728
SWIDTH 600 0
DWIDTH 5 0
BBX 4 4 1 5
BITMAP
3003
E379
7FE2
0210
ENDCHAR
STARTCHAR dotaccent
ENCODING 729
SWIDTH 600 0
DWIDTH 5 0
BBX 2 2 2 5
BITMAP
C7
10
ENDCHAR
STARTCHAR ring
ENCODING 730
SWIDTH 600 0
DWIDTH 5 0
BBX 4 4 1 5
BITMAP
1CB0
4AD1
2EB0
0100
ENDCHAR
STARTCHAR ogonek
ENCODING 731
SWIDTH 600 0
DWIDTH 5 0
BBX 3 5 1 -4
BITMAP
0200
7700
B400
8F70
0200
ENDCHAR
STARTCHAR tilde
ENCODING 732
SWIDTH 600 0
DWIDTH 5 0
BBX 5 2 0 6
BITMAP
09C3A0
1B5E40
ENDCHAR
STARTCHAR hungarumlaut
ENCODING 733
SWIDTH 600 0
DWIDTH 5 0
BBX 4 4 1 6
BITMAP
0415
0E8D
2C87
5591
ENDCHAR
STARTCHAR gravecomb
ENCODING 768
SWIDTH 0 0
DWIDTH 0 0
BBX 3 4 -5 6
BITMAP
1400
3E00
0B50
0280
ENDCHAR
STARTCHAR acutecomb
ENCODING 769
SWIDTH 0 0
DWIDTH 0 0
BBX 2 3 -3 6
BITMAP
2C
88
A0
ENDCHAR
STARTCHAR uni0302
ENCODING 770
SWIDTH 0 0
DWIDTH 0 0
BBX 4 4 -5 6
BITMAP
0051
04E7
0B7A
2B2B
ENDCHAR
STARTCHAR tildecomb
ENCODING 771
SWIDTH 0 0
DWIDTH 0 0
BBX 5 2 -5 6
BITMAP
1D7740
67AC10
ENDCHAR
STARTCHAR uni0304
ENCODING 772
SWIDTH 0 0
DWIDTH 0 0
BBX 4 2 -5 5
BITMAP
1EFA
0221
ENDCHAR
STARTCHAR uni0306
ENCODING 774
SWIDTH 0 0
DWIDTH 0 0
BBX 5 4 -5 5
BITMAP
120210
5C1C30
1DFA00
002000
ENDCHAR
STARTCHAR uni0307
ENCODING 775
SWIDTH 0 0
DWIDTH 0 0
BBX 3 2 -4 5
BITMAP
4E10
0100
ENDCHAR
STARTCHAR uni0308
ENCODING 776
SWIDTH 0 0
DWIDTH 0 0
BBX 4 2 -5 5
BITMAP
1E3D
0101
ENDCHAR
STARTCHAR hookabovecomb
ENCODING 777
SWIDTH 0 0
DWIDTH 0 0
BBX 3 4 -4 5
BITMAP
5E50
1690
1F50
0100
ENDCHAR
STARTCHAR uni030A
ENCODING 778
SWIDTH 0 0
DWIDTH 0 0
BBX 3 4 -4 5
BITMAP
5E50
B7A0
8F50
0100
ENDCHAR
STARTCHAR uni030B
ENCODING 779
SWIDTH 0 0
DWIDTH 0 0
BBX 4 4 -4 6
BITMAP
1532
5CB6
96D1
A280
ENDCHAR
STARTCHAR uni030C
ENCODING 780
SWIDTH 0 0
DWIDTH 0 0
BBX 4 4 -4 6
BITMAP
5141
B4D1
8B80
4D10
ENDCHAR
STARTCHAR uni030F
ENCODING 783
SWIDTH 0 0
DWIDTH 0 0
BBX 4 4 -5 6
BITMAP
4150
B8F0
69B4
0A46
ENDCHAR
STARTCHAR uni0311
ENCODING 785
SWIDTH 0 0
DWIDTH 0 0
BBX 5 3 -5 5
BITMAP
09E900
4D4E30
340620
ENDCHAR
STARTCHAR uni0312
ENCODING 786
SWIDTH 0 0
DWIDTH 0 0
BBX 2 3 -3 6
BITMAP
A1
E1
A0
ENDCHAR
STARTCHAR uni031B
ENCODING 795
SWIDTH 0 0
DWIDTH 0 0
BBX 2 4 -3 3
BITMAP
03
4B
C5
10
ENDCHAR
STARTCHAR dotbelowcomb
ENCODING 803
SWIDTH 0 0
DWIDTH 0 0
BBX 3 2 -5 -3
BITMAP
2E30
0100
ENDCHAR
STARTCHAR uni0324
ENCODING 804
SWIDTH 0 0
DWIDTH 0 0
BBX 4 2 -5 -3
BITMAP
D4E1
1010
ENDCHAR
STARTCHAR uni0326
ENCODING 806
SWIDTH 0 0
DWIDTH 0 0
BBX 2 3 -4 -3
BITMAP
91
E1
A0
ENDCHAR
STARTCHAR uni0327
ENCODING 807
SWIDTH 0 0
DWIDTH 0 0
BBX 3 4 -5 -4
BITMAP
4E60
07A0
CF50
1100
ENDCHAR
STARTCHAR uni0328
ENCODING 808
SWIDTH 0 0
DWIDTH 0 0
BBX 4 5 -5 -4
BITMAP
0200
0C20
2C00
1DF2
0110
ENDCHAR
STARTCHAR uni032E
ENCODING 814
SWIDTH 0 0
DWIDTH 0 0
BBX 5 4 -6 -4
BITMAP
120210
4D1C40
1CFB00
002000
ENDCHAR
STARTCHAR uni0331
ENCODING 817
SWIDTH 0 0
DWIDTH 0 0
BBX 3 2 -5 -3
BITMAP
BFE0
1220
ENDCHAR
STARTCHAR uni0394
ENCODING 916
SWIDTH 700 0
DWIDTH 6 0
BBX 6 9 0 0
BITMAP
000B40
002F70
008CA0
00D5C0
04C0F0
0A70D2
1E20B5
6C22A7
9FFFF8
ENDCHAR
STARTCHAR uni03A9
ENCODING 937
SWIDTH 816 0
DWIDTH 7 0
BBX 9 9 -1 0
BITMAP
0005DEA100
005F75DA00
00D8005F10
03F2003F20
05E0003F20
06E0006E00
04F200BA00
03E907F500
2FFD0EFF10
ENDCHAR
STARTCHAR uni03BC
ENCODING 956
SWIDTH 462 0
DWIDTH 4 0
BBX 6 8 0 -3
BITMAP
060600
4C3C00
799900
9CE993
AE7E80
B50000
B50000
A40000
ENDCHAR
STARTCHAR pi
ENCODING 960
SWIDTH 496 0
DWIDTH 4 0
BBX 6 5 0 0
BITMAP
BFFFC0
5D2F10
7A4D01
985C68
961DB1
ENDCHAR
STARTCHAR uni0400
ENCODING 1024
SWIDTH 686 0
DWIDTH 6 0
BBX 8 12 0 0
BITMAP
00500000
01E90000
002A5000
008EE900
08E43E40
0C800C60
0AB10710
04FF3000
4E730000
AA000000
8E5236B3
18DFEC70
ENDCHAR
STARTCHAR uni0401
ENCODING 1025
SWIDTH 686 0
DWIDTH 6 0
BBX 8 10 0 0
BITMAP
002D4C00
008FEA00
08E43E40
0C800C60
0AB10710
04FF3000
4E730000
AA000000
8E5236B3
18DFEC70
ENDCHAR
STARTCHAR uni0402
ENCODING 1026
SWIDTH 974 0
DWIDTH 9 0
BBX 10 14 0 -5
BITMAP
06BEFFFD10
6C47E22200
A708B00000
670B900000
000D9BFA00
000FE55F20
002F602F46
003F103FD8
003D006F70
000004EB00
00002ED800
000098D400
0000C8D000
00008E4000
ENDCHAR
STARTCHAR uni0403
ENCODING 1027
SWIDTH 635 0
DWIDTH 6 0
BBX 8 12 0 0
BITMAP
00000600
0000AE10
00069100
07CEFFF9
7C7F3210
A75E0000
568C0000
00AA0000
00C80000
00E60000
01F40000
01E20000
ENDCHAR
STARTCHAR uni0404
ENCODING 1028
SWIDTH 687 0
DWIDTH 6 0
BBX 8 9 0 0
BITMAP
005DEA00
05E63F40
0D800E30
3F200300
5FFFC000
6E221000
4F200000
0CC425B3
01AEEC70
ENDCHAR
STARTCHAR uni0405
ENCODING 1029
SWIDTH 693 0
DWIDTH 6 0
BBX 7 9 0 0
BITMAP
02BED600
0CA35F20
0F400E30
0DC20400
02CF9100
2205EA00
A7006D00
8B33BA00
1AEEA100
ENDCHAR
STARTCHAR uni0406
ENCODING 1030
SWIDTH 495 0
DWIDTH 4 0
BBX 6 9 -1 0
BITMAP
00EFFD
002D81
000E50
001F30
003F10
005E00
007C00
01AB10
1FFFD0
ENDCHAR
STARTCHAR uni0407
ENCODING 1031
SWIDTH 495 0
DWIDTH 4 0
BBX 6 10 -1 0
BITMAP
004C6A
00EFFE
002D81
000E50
001F30
003F10
005E00
007C00
01AB10
1FFFD0
ENDCHAR
STARTCHAR uni0408
ENCODING 1032
SWIDTH 743 0
DWIDTH 7 0
BBX 7 11 0 -2
BITMAP
04BEFD90
2E632E80
5C000F40
2B001F20
00029F10
004ECD00
02E48900
08A0C500
0A95D000
05FE4000
00110000
ENDCHAR
STARTCHAR uni0409
ENCODING 1033
SWIDTH 1158 0
DWIDTH 10 0
BBX 11 9 0 0
BITMAP
00001D500000
00005F600000
00009F500000
0000DEBDE700
0003CD937F20
00098D501F40
601E2C702F30
D6AA08C3AC00
4EB101BEB200
ENDCHAR
STARTCHAR uni040A
ENCODING 1034
SWIDTH 1182 0
DWIDTH 11 0
BBX 11 9 0 0
BITMAP
2CE301E10000
C4C704E00000
30B707B00000
00D61BDDEA00
1EFFFF923E60
05F30D500C80
06D00C500E60
08B009A29E10
086002CEB300
ENDCHAR
STARTCHAR uni040B
ENCODING 1035
SWIDTH 979 0
DWIDTH 9 0
BBX 10 9 0 0
BITMAP
06BEFFFD10
6C47E22200
A708B00000
670B900000
000D9BFA00
000FE55F20
002F602F22
003F204F4B
003D002EC2
ENDCHAR
STARTCHAR uni040C
ENCODING 1036
SWIDTH 937 0
DWIDTH 8 0
BBX 10 12 0 0
BITMAP
0000000500
0000009E20
000005A200
06DFD20880
3E47E10E50
6B08B07D10
1709A6E400
005FFD3000
000E8E6000
401F38D003
B87E02F796
3DE5008EA0
ENDCHAR
STARTCHAR uni040D
ENCODING 1037
SWIDTH 890 0
DWIDTH 8 0
BBX 10 12 0 0
BITMAP
0033000000
007E300000
0005C00000
1BE4009600
B6C800D700
50C700F500
00E503F300
02F207F100
05E00CE000
07C04CD021
07E6C7E7D1
02DD42DE50
ENDCHAR
STARTCHAR uni040E
ENCODING 1038
SWIDTH 824 0
DWIDTH 7 0
BBX 9 13 0 -3
BITMAP
0005259000
2BEAEDC600
85D700E600
00D603F400
01F309F200
02F35DF000
00CFC6D220
00013BFE60
0009FE9000
008B1C5000
00C54D1000
008FE40000
0001000000
ENDCHAR
STARTCHAR uni040F
ENCODING 1039
SWIDTH 890 0
DWIDTH 8 0
BBX 10 11 0 -2
BITMAP
2BE4009600
B5C800D700
50C700F500
00E503F300
02F207F100
05E00CE000
07C04CD021
07E6D7E7D1
02EE42DE50
0099000000
00A5000000
ENDCHAR
STARTCHAR uni0410
ENCODING 1040
SWIDTH 786 0
DWIDTH 7 0
BBX 9 9 0 0
BITMAP
0018DFD500
01CD656200
09C10A8000
1F400E6000
5E002F3000
7D005F1000
7D00BF0210
3F77DF6C20
08EB2CE600
ENDCHAR
STARTCHAR uni0411
ENCODING 1041
SWIDTH 917 0
DWIDTH 8 0
BBX 9 10 0 -1
BITMAP
07CEFFF900
6C3D721000
A70F400000
773F200000
008FDFD400
01ED42AE00
008B004F10
00A9008D00
00B84BE400
0053672000
ENDCHAR
STARTCHAR uni0412
ENCODING 1042
SWIDTH 827 0
DWIDTH 7 0
BBX 8 10 0 -1
BITMAP
05BEFD91
AD7325D9
31B2009B
04F015E6
07C3FE60
09A04C90
0B8009C0
0D837E70
0EFFC700
06100000
ENDCHAR
STARTCHAR uni0413
ENCODING 1043
SWIDTH 635 0
DWIDTH 6 0
BBX 8 9 0 0
BITMAP
07CEFFF9
7C7F3210
A75E0000
568C0000
00AA0000
00C80000
00E60000
01F40000
01E20000
ENDCHAR
STARTCHAR uni0414
ENCODING 1044
SWIDTH 964 0
DWIDTH 9 0
BBX 9 9 0 0
BITMAP
006CEEA200
06C534CC00
000A402F30
002F100E60
007C000D70
0099000F50
6EE7004F10
C7FE53D900
8E94CEA100
ENDCHAR
STARTCHAR uni0415
ENCODING 1045
SWIDTH 686 0
DWIDTH 6 0
BBX 8 9 0 0
BITMAP
008EE900
08E43E40
0C800C60
0AB10710
04FF3000
4E730000
AA000000
8E5236B3
18DFEC70
ENDCHAR
STARTCHAR uni0416
ENCODING 1046
SWIDTH 1234 0
DWIDTH 11 0
BBX 12 9 0 0
BITMAP
04DC10C309E7
053C71F34D47
0006B2F1A800
0002E6F7E100
0000BFFE2000
000ACABB9000
003F2A84E102
A6B90C70D94B
6EB10C404ED3
ENDCHAR
STARTCHAR uni0417
ENCODING 1047
SWIDTH 725 0
DWIDTH 7 0
BBX 7 9 0 0
BITMAP
01AEE500
09B39C00
0B506B00
0211C500
008ED800
12103F20
7B004F20
5E43DB00
09EE9100
ENDCHAR
STARTCHAR uni0418
ENCODING 1048
SWIDTH 890 0
DWIDTH 8 0
BBX 10 9 0 0
BITMAP
1BE4009600
B6C800D700
50C700F500
00E503F300
02F207F100
05E00CE000
07C04CD021
07E6C7E7D1
02DD42DE50
ENDCHAR
STARTCHAR uni0419
ENCODING 1049
SWIDTH 890 0
DWIDTH 8 0
BBX 10 10 0 0
BITMAP
000434A000
1BE9EDC600
B6C800D700
50C700F500
00E503F300
02F207F100
05E00CE000
07C04CD021
07E6C7E7D1
02DD42DE50
ENDCHAR
STARTCHAR uni041A
ENCODING 1050
SWIDTH 937 0
DWIDTH 8 0
BBX 10 9 0 0
BITMAP
06DFD20880
3E47E10E50
6B08B07D10
1709A6E400
005FFD3000
000E8E6000
401F38D003
B87E02F796
3DE5008EA0
ENDCHAR
STARTCHAR uni041B
ENCODING 1051
SWIDTH 861 0
DWIDTH 8 0
BBX 9 9 0 0
BITMAP
00001D5000
00005F6000
00009F5000
0000DE5000
0003DD5000
00099D5000
401E4C7030
D6AB09B4B0
5EC202DD20
ENDCHAR
STARTCHAR uni041C
ENCODING 1052
SWIDTH 1133 0
DWIDTH 10 0
BBX 12 9 0 0
BITMAP
0001D605E000
0004F70BF100
0006F72FF000
0009E77CE000
000CB8C9D000
001F7AE5D000
405C6EB4E012
D7C63F61F6B3
6EA01D208E70
ENDCHAR
STARTCHAR uni041D
ENCODING 1053
SWIDTH 873 0
DWIDTH 8 0
BBX 9 10 0 0
BITMAP
0000004E40
2CE300E880
C4C705C470
30B7089930
00D60BDA00
1EFFFF9000
05F30E4000
06D00E5030
08B00AA4C0
086003DD30
ENDCHAR
STARTCHAR uni041E
ENCODING 1054
SWIDTH 816 0
DWIDTH 7 0
BBX 8 9 0 0
BITMAP
005DEA10
05E63DA0
0D7005F1
3F2003F2
5E0003F2
6E0005E0
4F100BA0
1DA38E20
03CEB300
ENDCHAR
STARTCHAR uni041F
ENCODING 1055
SWIDTH 892 0
DWIDTH 8 0
BBX 10 9 0 0
BITMAP
06BEFFEDB1
6C6F42BA50
A74F10C700
566D00F500
008B02F200
00A905E000
00C707C010
00E606E3C1
00D301CE50
ENDCHAR
STARTCHAR uni0420
ENCODING 1056
SWIDTH 805 0
DWIDTH 7 0
BBX 8 11 0 -2
BITMAP
003BED60
02D638F2
0B6970F6
2D0D61F4
6A1F6AC0
87DFEA20
964F0000
876D0000
5C9A0000
0CF60000
00300000
ENDCHAR
STARTCHAR uni0421
ENCODING 1057
SWIDTH 686 0
DWIDTH 6 0
BBX 8 9 0 0
BITMAP
005DE900
05E64F30
0D700E40
3F200700
5E000000
6E000000
4F300000
0CC435B3
01AEEC70
ENDCHAR
STARTCHAR uni0422
ENCODING 1058
SWIDTH 697 0
DWIDTH 6 0
BBX 9 9 0 0
BITMAP
06BEFFFD10
7C47E22200
A708C00000
550A900000
000D700000
000F500000
002F300000
003F100000
003D000000
ENDCHAR
STARTCHAR uni0423
ENCODING 1059
SWIDTH 824 0
DWIDTH 7 0
BBX 9 12 0 -3
BITMAP
2BE300A600
85D700E600
00D603F400
01F309F200
02F35DF000
00CFC6D220
00013BFE60
0009FE9000
008B1C5000
00C54D1000
008FE40000
0001000000
ENDCHAR
STARTCHAR uni0424
ENCODING 1060
SWIDTH 977 0
DWIDTH 9 0
BBX 9 14 0 -4
BITMAP
0571000000
04EFFE3000
00028A0000
02CDC8BD20
0CA5FE6C80
3F20D90A90
6E00F20B80
7C05F00E50
6C2EF35E10
2EE8EEF500
0118911000
0E3D400000
08FA000000
0010000000
ENDCHAR
STARTCHAR uni0425
ENCODING 1061
SWIDTH 712 0
DWIDTH 6 0
BBX 9 9 -1 0
BITMAP
03DD306C00
0C4BA3F500
0105EC9000
0001FC0000
0004F70000
002EEA0000
00BB6E0020
08E12F5870
1E5008EA00
ENDCHAR
STARTCHAR uni0426
ENCODING 1062
SWIDTH 890 0
DWIDTH 8 0
BBX 10 13 0 -4
BITMAP
1BE4009600
B5C800D700
50C700F500
00E502F300
02F306F100
05F00BE000
07C02DD000
07D3B6E681
02DD42BF80
00002EE800
00008AB500
00007FC000
0000010000
ENDCHAR
STARTCHAR uni0427
ENCODING 1063
SWIDTH 773 0
DWIDTH 7 0
BBX 6 9 1 0
BITMAP
790078
AA00A9
B800D7
E603F6
E83CE4
9FF7F2
0322F1
0004E0
0004C0
ENDCHAR
STARTCHAR uni0428
ENCODING 1064
SWIDTH 1272 0
DWIDTH 11 0
BBX 13 9 0 0
BITMAP
2BE400C303C000
B5C801F406D000
50C703F208C000
00E506D00BA000
02F209A00F8000
05E00E805F6000
07C06E60AE4030
08E7C9B97E9A70
03ED35EA08EA00
ENDCHAR
STARTCHAR uni0429
ENCODING 1065
SWIDTH 1272 0
DWIDTH 11 0
BBX 13 13 0 -4
BITMAP
2BE400C303C000
B5C801F406D000
50C703F208C000
00E506D00B9000
02F209A00F7000
05E00E805F6000
07C06E60AE4000
08E7CAB97CC860
03ED35EA06FA10
000000009EE000
00000002F6B000
00000001EE4000
00000000110000
ENDCHAR
STARTCHAR uni042A
ENCODING 1066
SWIDTH 863 0
DWIDTH 8 0
BBX 7 9 1 0
BITMAP
EFFC0000
12E70000
04F10000
09EDEA10
6FB34E80
1C700AA0
0A700C70
07C27E20
01BEC300
ENDCHAR
STARTCHAR uni042B
ENCODING 1067
SWIDTH 1078 0
DWIDTH 10 0
BBX 10 9 0 0
BITMAP
03D00000B5
07C00000E5
09900001F3
0CDEE803F1
9F836F45E0
2F300E67C0
0F301F39A0
0C93BC0B80
03DEA10B50
ENDCHAR
STARTCHAR uni042C
ENCODING 1068
SWIDTH 721 0
DWIDTH 6 0
BBX 7 9 0 0
BITMAP
03D00000
07C00000
09900000
0CDEE800
9F836F40
2F300E60
0F301F30
0C93BC00
03DEA100
ENDCHAR
STARTCHAR uni042D
ENCODING 1069
SWIDTH 755 0
DWIDTH 7 0
BBX 7 9 0 0
BITMAP
03CFD500
0E729F20
03000E70
00000B90
01FFFF80
00122E60
78003F20
8C24D900
1BED8000
ENDCHAR
STARTCHAR uni042E
ENCODING 1070
SWIDTH 1246 0
DWIDTH 11 0
BBX 11 9 0 0
BITMAP
2CE302B5DA10
C6D80AC73D80
30B72FD407D0
00D89FA005F0
1FFEEC0005F0
05F17C0007C0
06D05E000D70
08B01EA4BD10
096004DEA200
ENDCHAR
STARTCHAR uni042F
ENCODING 1071
SWIDTH 850 0
DWIDTH 8 0
BBX 9 9 0 0
BITMAP
005DFCD100
01F626F100
05E007E000
04F30CC000
009FFFA000
0001DC8000
6007B97050
D56E29A690
5EC304EB10
ENDCHAR
STARTCHAR uni0430
ENCODING 1072
SWIDTH 470 0
DWIDTH 4 0
BBX 6 5 0 0
BITMAP
07E700
4E7D00
996A11
A9CAA4
5E7D80
ENDCHAR
STARTCHAR uni0431
ENCODING 1073
SWIDTH 473 0
DWIDTH 4 0
BBX 6 10 0 0
BITMAP
017C30
0CC700
0D3000
06C000
00B700
1BFC00
6C9F11
985FF5
9A9B10
3DD200
ENDCHAR
STARTCHAR uni0432
ENCODING 1074
SWIDTH 473 0
DWIDTH 4 0
BBX 6 10 0 0
BITMAP
01D800
089C00
0D4B00
2E5700
5DA100
6DE600
7D9E11
7A4FF6
4C5D10
0BE400
ENDCHAR
STARTCHAR uni0433
ENCODING 1075
SWIDTH 380 0
DWIDTH 3 0
BBX 5 5 0 0
BITMAP
4EE200
34E300
2C7020
993A70
5EE800
ENDCHAR
STARTCHAR uni0434
ENCODING 1076
SWIDTH 479 0
DWIDTH 4 0
BBX 6 10 0 -5
BITMAP
07E700
4E7C00
996A21
A9BBD3
5EDE30
04F400
2CE100
B5C000
D97000
BC1000
ENDCHAR
STARTCHAR uni0435
ENCODING 1077
SWIDTH 393 0
DWIDTH 4 0
BBX 5 5 0 0
BITMAP
0BE300
7B9700
ABC230
9D4A80
2CE910
ENDCHAR
STARTCHAR uni0436
ENCODING 1078
SWIDTH 717 0
DWIDTH 6 0
BBX 8 5 0 0
BITMAP
1E8C5E80
27DEC7B0
31DEF023
C7BFD487
9E3C4EA0
ENDCHAR
STARTCHAR uni0437
ENCODING 1079
SWIDTH 435 0
DWIDTH 4 0
BBX 6 10 -1 -5
BITMAP
02CE40
025780
002C41
05D46C
02DCB2
00AD00
08AD00
2C6A00
59C500
3E9000
ENDCHAR
STARTCHAR uni0438
ENCODING 1080
SWIDTH 462 0
DWIDTH 4 0
BBX 6 5 0 0
BITMAP
2C1C00
6B5B00
89A911
8CE9B3
4D6E60
ENDCHAR
STARTCHAR uni0439
ENCODING 1081
SWIDTH 462 0
DWIDTH 4 0
BBX 6 9 0 0
BITMAP
000110
0B1A40
0BFA00
001000
2C1C00
6B5B00
89A911
8CE9B3
4D6E60
ENDCHAR
STARTCHAR uni043A
ENCODING 1082
SWIDTH 465 0
DWIDTH 4 0
BBX 6 5 0 0
BITMAP
2C7E40
6CE870
8EB222
8ED3B3
699E70
ENDCHAR
STARTCHAR uni043B
ENCODING 1083
SWIDTH 549 0
DWIDTH 5 0
BBX 6 5 0 0
BITMAP
004E10
00AF20
62DE14
E98E6C
AC1AD3
ENDCHAR
STARTCHAR uni043C
ENCODING 1084
SWIDTH 734 0
DWIDTH 7 0
BBX 8 5 0 0
BITMAP
007A4E10
00DBBF10
73CDCE02
EA7F7E69
AC1C2BC1
ENDCHAR
STARTCHAR uni043D
ENCODING 1085
SWIDTH 475 0
DWIDTH 4 0
BBX 6 5 0 0
BITMAP
2C0D00
6A2D00
8FFB01
897A95
664E80
ENDCHAR
STARTCHAR uni043E
ENCODING 1086
SWIDTH 451 0
DWIDTH 4 0
BBX 6 5 0 0
BITMAP
1BE400
7BBC20
A76FF3
9A7B10
2DD200
ENDCHAR
STARTCHAR uni043F
ENCODING 1087
SWIDTH 496 0
DWIDTH 4 0
BBX 6 5 0 0
BITMAP
2C5E10
6BDF10
8E6E03
8D4D77
682EA0
ENDCHAR
STARTCHAR uni0440
ENCODING 1088
SWIDTH 481 0
DWIDTH 4 0
BBX 8 10 -2 -5
BITMAP
005BD900
006E6E00
006A4D02
00BBBA95
03EFCE90
08B90000
0B870000
0CA50000
1CC10000
0C900000
ENDCHAR
STARTCHAR uni0441
ENCODING 1089
SWIDTH 368 0
DWIDTH 3 0
BBX 5 5 0 0
BITMAP
1BE200
7CA400
A72120
9A3B50
2DE700
ENDCHAR
STARTCHAR uni0442
ENCODING 1090
SWIDTH 744 0
DWIDTH 7 0
BBX 8 5 0 0
BITMAP
2C6E3D40
6BDEBE40
8E6F7E23
8D4F3F5A
682C0DC1
ENDCHAR
STARTCHAR uni0443
ENCODING 1091
SWIDTH 479 0
DWIDTH 4 0
BBX 6 10 0 -5
BITMAP
2C1D00
6B5C00
88AA21
8CEBD2
4DBD30
04F400
3CE100
B5C000
D97000
BC1000
ENDCHAR
STARTCHAR uni0444
ENCODING 1092
SWIDTH 721 0
DWIDTH 6 0
BBX 8 13 0 -4
BITMAP
00033000
000A6000
000C4000
000F1000
07EECB00
4E7F5F20
996D2F02
A9BBAC88
5EBFCEA0
00780000
00870000
00870000
00320000
ENDCHAR
STARTCHAR uni0445
ENCODING 1093
SWIDTH 529 0
DWIDTH 5 0
BBX 6 5 0 0
BITMAP
1E9BB0
28E990
31D503
C7F85B
9E8EC2
ENDCHAR
STARTCHAR uni0446
ENCODING 1094
SWIDTH 501 0
DWIDTH 5 0
BBX 6 9 0 -4
BITMAP
2C1C00
6B5B00
89A800
8CEB65
4D5FA1
02CC00
0B8800
0BE200
011000
ENDCHAR
STARTCHAR uni0447
ENCODING 1095
SWIDTH 555 0
DWIDTH 5 0
BBX 7 6 0 0
BITMAP
03D10000
08CFF100
0D3D7000
5AA90310
D2D65D10
208EC300
ENDCHAR
STARTCHAR uni0448
ENCODING 1096
SWIDTH 693 0
DWIDTH 6 0
BBX 8 5 0 0
BITMAP
2C1C0D00
6B5B4D00
89AA9A12
8CEDEAA4
4E6E6E70
ENDCHAR
STARTCHAR uni0449
ENCODING 1097
SWIDTH 732 0
DWIDTH 7 0
BBX 8 9 0 -4
BITMAP
2C1C0D00
6B5B4C00
89AA9A00
8CEDEC56
4E6E5FB1
0001BD00
000A8900
000AE300
00001000
ENDCHAR
STARTCHAR uni044A
ENCODING 1098
SWIDTH 542 0
DWIDTH 5 0
BBX 6 5 0 0
BITMAP
5EB000
1ECD10
4F5D55
3E4E7C
0AEDD3
ENDCHAR
STARTCHAR uni044B
ENCODING 1099
SWIDTH 702 0
DWIDTH 6 0
BBX 8 5 0 0
BITMAP
2D002D00
6DD99D00
8D4FFA14
7C5F9BA5
1CE52E80
ENDCHAR
STARTCHAR uni044C
ENCODING 1100
SWIDTH 517 0
DWIDTH 5 0
BBX 6 5 0 0
BITMAP
2D0000
6DDB00
8D4F25
7C5F69
1CEDB1
ENDCHAR
STARTCHAR uni044D
ENCODING 1101
SWIDTH 466 0
DWIDTH 4 0
BBX 6 5 0 0
BITMAP
2DE600
146E11
25FFF5
A78E20
5EE500
ENDCHAR
STARTCHAR uni044E
ENCODING 1102
SWIDTH 676 0
DWIDTH 6 0
BBX 8 5 0 0
BITMAP
2C0AE500
6A6BBC00
8FF76FF3
89AA7B10
662DD300
ENDCHAR
STARTCHAR uni044F
ENCODING 1103
SWIDTH 543 0
DWIDTH 5 0
BBX 6 5 0 0
BITMAP
03ED80
098970
B7FF48
E4BC6B
9E67D2
ENDCHAR
STARTCHAR uni0450
ENCODING 1104
SWIDTH 393 0
DWIDTH 4 0
BBX 5 10 0 0
BITMAP
050000
2F1000
0A6000
029000
000000
0BE300
7B9700
ABC230
9D4A80
2CE910
ENDCHAR
STARTCHAR uni0451
ENCODING 1105
SWIDTH 393 0
DWIDTH 4 0
BBX 5 7 0 0
BITMAP
0D3D00
010100
0BE300
7B9700
ABC230
9D4A80
2CE910
ENDCHAR
STARTCHAR uni0452
ENCODING 1106
SWIDTH 514 0
DWIDTH 5 0
BBX 6 14 0 -5
BITMAP
069000
0A8000
6FFE00
1F3100
3E5D20
5CCF20
7F6F13
7E3EB7
594F60
01C900
0BC600
67C200
A7C000
7E4000
ENDCHAR
STARTCHAR uni0453
ENCODING 1107
SWIDTH 380 0
DWIDTH 3 0
BBX 5 9 0 0
BITMAP
007700
00D300
047000
000000
4EE200
34E300
2C7020
993A70
5EE800
ENDCHAR
STARTCHAR uni0454
ENCODING 1108
SWIDTH 379 0
DWIDTH 3 0
BBX 5 5 0 0
BITMAP
1BE500
7C5600
AFA010
9C4970
2CE800
ENDCHAR
STARTCHAR uni0455
ENCODING 1109
SWIDTH 427 0
DWIDTH 4 0
BBX 5 5 0 0
BITMAP
05A000
0BA000
4BF340
C6DBD0
3AFE40
ENDCHAR
STARTCHAR uni0456
ENCODING 1110
SWIDTH 246 0
DWIDTH 2 0
BBX 4 7 0 0
BITMAP
1D50
0100
2C00
6B00
8912
8AB4
4E70
ENDCHAR
STARTCHAR uni0457
ENCODING 1111
SWIDTH 246 0
DWIDTH 2 0
BBX 4 7 0 0
BITMAP
C4E1
1010
2C00
6B00
8912
8AB4
4E70
ENDCHAR
STARTCHAR uni0458
ENCODING 1112
SWIDTH 254 0
DWIDTH 2 0
BBX 6 12 -2 -5
BITMAP
003E20
000100
003C00
005C00
007A11
008BD2
00AD30
04E400
2BF100
B5C000
D97000
CC1000
ENDCHAR
STARTCHAR uni0459
ENCODING 1113
SWIDTH 794 0
DWIDTH 7 0
BBX 9 5 0 0
BITMAP
004E100000
00AFAE4000
92DE8A9430
E98D6B9C20
AC16EDE500
ENDCHAR
STARTCHAR uni045A
ENCODING 1114
SWIDTH 751 0
DWIDTH 7 0
BBX 8 5 0 0
BITMAP
2C0D1000
6A2EBC00
8FFF4E34
886D3F6B
661BEDC2
ENDCHAR
STARTCHAR uni045B
ENCODING 1115
SWIDTH 502 0
DWIDTH 5 0
BBX 6 9 0 0
BITMAP
069000
0A8000
6FFD00
1F4100
3E5D20
5CCF20
7F6E03
7E4D78
592EB1
ENDCHAR
STARTCHAR uni045C
ENCODING 1116
SWIDTH 465 0
DWIDTH 4 0
BBX 6 9 0 0
BITMAP
000C20
004C00
008300
000000
2C7E40
6CE870
8EB222
8ED3B3
699E70
ENDCHAR
STARTCHAR uni045D
ENCODING 1117
SWIDTH 462 0
DWIDTH 4 0
BBX 6 10 0 0
BITMAP
050000
0D4000
06A000
00A000
000000
2C1C00
6B5B00
89A911
8CE9B3
4D6E60
ENDCHAR
STARTCHAR uni045E
ENCODING 1118
SWIDTH 479 0
DWIDTH 4 0
BBX 6 14 0 -5
BITMAP
000110
0B1A40
0BFA00
001000
2C1D00
6B5C00
88AA21
8CEBD2
4DBD30
04F400
3CE100
B5C000
D97000
BC1000
ENDCHAR
STARTCHAR uni045F
ENCODING 1119
SWIDTH 600 0
DWIDTH 5 0
BBX 6 6 0 -1
BITMAP
2C1C00
6B5B00
89A911
8CE9B3
4E6E60
1A0000
ENDCHAR
STARTCHAR uni0462
ENCODING 1122
SWIDTH 721 0
DWIDTH 6 0
BBX 7 9 0 0
BITMAP
03D00000
5FFE0000
0AA10000
0CDEE800
9F836F40
2F300E60
0F301F30
0C93BC00
03DEA100
ENDCHAR
STARTCHAR uni0463
ENCODING 1123
SWIDTH 517 0
DWIDTH 5 0
BBX 6 7 0 0
BITMAP
0B4000
1F2000
BFE200
6DDA00
8D4F15
7C4F69
2CEDB1
ENDCHAR
STARTCHAR uni046A
ENCODING 1130
SWIDTH 1234 0
DWIDTH 11 0
BBX 12 9 0 0
BITMAP
02EFFFFFFFF3
002B92226D20
0006C000B800
0002E218E100
0000BFFE2000
000ACABB9000
003F2A84E102
A6B90C70D94B
6EB10C404ED3
ENDCHAR
STARTCHAR uni046B
ENCODING 1131
SWIDTH 788 0
DWIDTH 7 0
BBX 9 9 0 0
BITMAP
00007B0000
0000CC0000
0002DB0000
0005BA0000
00DE9DE100
004F5D3000
316E8A0110
C6DECE3C20
9E5A78E700
ENDCHAR
STARTCHAR uni0472
ENCODING 1138
SWIDTH 816 0
DWIDTH 7 0
BBX 8 9 0 0
BITMAP
005DEA10
05E63DA0
0D8005F1
3F3003F2
5FFFFFF2
6E2227E0
4F100BA0
1D938E20
03CEB300
ENDCHAR
STARTCHAR uni0473
ENCODING 1139
SWIDTH 451 0
DWIDTH 4 0
BBX 6 5 0 0
BITMAP
1BE400
7B6C41
AFFFF3
9B9B00
2DD200
ENDCHAR
STARTCHAR uni0474
ENCODING 1140
SWIDTH 797 0
DWIDTH 7 0
BBX 8 9 1 0
BITMAP
88000DFA
B9003F54
C7006E00
D7009B00
D600D600
C703F100
A90A9000
7E9E2000
1CD40000
ENDCHAR
STARTCHAR uni0475
ENCODING 1141
SWIDTH 420 0
DWIDTH 4 0
BBX 5 5 0 0
BITMAP
771EB0
886B10
89C500
7DD000
3E4000
ENDCHAR
STARTCHAR uni048A
ENCODING 1162
SWIDTH 890 0
DWIDTH 8 0
BBX 10 15 0 -2
BITMAP
0000004000
000865A000
0005FE2000
0000110000
2BE4009600
B5C800D700
50C700F500
00E503F300
02F207F100
05E00CE000
07C04CD021
07E6C7E7D1
02DD42DF50
0000009900
000001D100
ENDCHAR
STARTCHAR uni048B
ENCODING 1163
SWIDTH 462 0
DWIDTH 4 0
BBX 6 10 0 -2
BITMAP
0D1830
0BF900
001000
2C1C00
6B5B00
89A911
8CE9B3
4D6F80
004D00
009400
ENDCHAR
STARTCHAR uni048C
ENCODING 1164
SWIDTH 721 0
DWIDTH 6 0
BBX 7 9 0 0
BITMAP
03D00000
5FFE0000
0AA10000
0CDEE800
9F836F40
2F300E60
0F301F30
0C93BC00
03DEA100
ENDCHAR
STARTCHAR uni048D
ENCODING 1165
SWIDTH 517 0
DWIDTH 5 0
BBX 6 7 0 0
BITMAP
0B4000
1F2000
BFE200
6DDA00
8D4F15
7C4F69
2CEDB1
ENDCHAR
STARTCHAR uni048E
ENCODING 1166
SWIDTH 805 0
DWIDTH 7 0
BBX 8 11 0 -2
BITMAP
003BED60
02D627F3
0B5971F6
2D0D6BF5
691F6BDB
87DFEA10
964F0000
876D0000
5C9A0000
0CF60000
00300000
ENDCHAR
STARTCHAR uni048F
ENCODING 1167
SWIDTH 481 0
DWIDTH 4 0
BBX 8 10 -2 -5
BITMAP
005BD900
006E6E00
006A4D01
00ABFA86
02EFCE90
07B90000
0B870000
0CA50000
1CC10000
0C900000
ENDCHAR
STARTCHAR uni0490
ENCODING 1168
SWIDTH 645 0
DWIDTH 6 0
BBX 8 12 0 0
BITMAP
00000005
0000001F
0000003D
07CEFFF9
7C7F3210
A75E0000
568C0000
00AA0000
00C80000
00E60000
01F40000
01E20000
ENDCHAR
STARTCHAR uni0491
ENCODING 1169
SWIDTH 394 0
DWIDTH 4 0
BBX 4 7 0 0
BITMAP
0004
003C
2FF8
6B10
8900
8800
6600
ENDCHAR
STARTCHAR uni0492
ENCODING 1170
SWIDTH 635 0
DWIDTH 6 0
BBX 8 9 0 0
BITMAP
07CEFFF9
7C7F3210
A75E0000
568C0000
08FFC000
01C91000
00E60000
01F40000
01E20000
ENDCHAR
STARTCHAR uni0493
ENCODING 1171
SWIDTH 380 0
DWIDTH 3 0
BBX 5 5 0 0
BITMAP
4EE200
34E400
9DA020
9B6A70
5EE800
ENDCHAR
STARTCHAR uni0494
ENCODING 1172
SWIDTH 884 0
DWIDTH 8 0
BBX 9 14 0 -5
BITMAP
07CEFFF900
6C7F321000
A75E000000
678C000000
00AAAEC100
00CF73E500
00E900E670
01F400FDB0
01E203FA00
00002DE000
0000DDB000
0006AA6000
00098E1000
0006E60000
ENDCHAR
STARTCHAR uni0495
ENCODING 1173
SWIDTH 441 0
DWIDTH 4 0
BBX 5 9 0 -4
BITMAP
4EE200
34E300
2C7000
993490
6EFE40
08E400
4AD100
4F7000
010000
ENDCHAR
STARTCHAR uni0496
ENCODING 1174
SWIDTH 1234 0
DWIDTH 11 0
BBX 13 13 0 -4
BITMAP
04DC10C309E700
053C71F34D4700
0006B2F1A80000
0002E6F7E10000
0000BFFE200000
000ACABB900000
003F2A84F10000
A6B90C70DB5A20
6EB10C403EE500
000000009EA000
00000006BA6000
00000006FC1000
00000000100000
ENDCHAR
STARTCHAR uni0497
ENCODING 1175
SWIDTH 803 0
DWIDTH 7 0
BBX 9 9 0 -4
BITMAP
1E8C5E8000
27DEC7B000
31DEF02000
C7BFD53A10
9E3C5FF600
00004D8000
0001CA4000
0001FB0000
0000100000
ENDCHAR
STARTCHAR uni0498
ENCODING 1176
SWIDTH 725 0
DWIDTH 7 0
BBX 7 13 0 -4
BITMAP
01AEE500
09B39C00
0B506B00
0211C500
008ED900
12103F30
7B004F20
5E43DA00
09EFC000
00AC9000
07AA5000
06FC1000
00100000
ENDCHAR
STARTCHAR uni0499
ENCODING 1177
SWIDTH 445 0
DWIDTH 4 0
BBX 5 9 0 -4
BITMAP
2CE600
578900
05E300
84ABC0
6FFD30
07E300
3AC000
3F8000
010000
ENDCHAR
STARTCHAR uni049A
ENCODING 1178
SWIDTH 937 0
DWIDTH 8 0
BBX 10 13 0 -4
BITMAP
06DFD30890
3E47E10E50
6B08B07D10
1709A6E400
005FFD3000
000E8E6000
501F38D000
B87E02F987
3DE5009F80
000005DE00
00002E6B00
00002EE300
0000011000
ENDCHAR
STARTCHAR uni049B
ENCODING 1179
SWIDTH 531 0
DWIDTH 5 0
BBX 6 9 0 -4
BITMAP
2C7E40
6CE870
8EB210
8FD248
69AFC2
009F10
078C00
07F500
001000
ENDCHAR
STARTCHAR uni049C
ENCODING 1180
SWIDTH 937 0
DWIDTH 8 0
BBX 10 9 0 0
BITMAP
06DFD30890
3E47E10E50
6B08B66D10
1709AEE400
005FFD3000
000EBF6000
401F9FD004
B87E36F7A6
3DE5008EA0
ENDCHAR
STARTCHAR uni049D
ENCODING 1181
SWIDTH 485 0
DWIDTH 4 0
BBX 6 5 0 0
BITMAP
2C4E70
6EC790
8FD014
8FF3A5
677E90
ENDCHAR
STARTCHAR uni049E
ENCODING 1182
SWIDTH 937 0
DWIDTH 8 0
BBX 10 9 0 0
BITMAP
06DFD30890
3E47E10E50
6B8FF97D10
281AA6E400
005FFD3000
000E8E6000
401F38D004
B87E02F7A6
3DE5008EA0
ENDCHAR
STARTCHAR uni049F
ENCODING 1183
SWIDTH 473 0
DWIDTH 4 0
BBX 6 9 0 0
BITMAP
069000
0A8000
6FFD00
1F3100
3E6E50
5CE780
7EC122
7FE3A4
5A8E80
ENDCHAR
STARTCHAR uni04A0
ENCODING 1184
SWIDTH 937 0
DWIDTH 8 0
BBX 10 10 0 0
BITMAP
0100000000
2FFFF30880
0238D00E30
0008B07B00
000AA6D200
005FFD2000
000E8E6000
401F38D004
B87E02F7A6
3DE5008EA0
ENDCHAR
STARTCHAR uni04A1
ENCODING 1185
SWIDTH 555 0
DWIDTH 5 0
BBX 7 5 0 0
BITMAP
8FAAE200
09BCA400
0AE83200
0BEB3C10
097BE500
ENDCHAR
STARTCHAR uni04A2
ENCODING 1186
SWIDTH 907 0
DWIDTH 8 0
BBX 10 14 0 -4
BITMAP
0000004D40
2CE300D880
C4C705C470
30B7089930
00D60BD900
1EFFEF7000
05F20E4000
06D00E5000
08B00BD7B3
086003DE50
000008EA00
00005C9700
00005FD100
0000010000
ENDCHAR
STARTCHAR uni04A3
ENCODING 1187
SWIDTH 515 0
DWIDTH 5 0
BBX 6 9 0 -4
BITMAP
2C0D00
6A2D00
8FFB00
887B45
662FC2
01BE00
098A00
09E300
001000
ENDCHAR
STARTCHAR uni04A4
ENCODING 1188
SWIDTH 873 0
DWIDTH 8 0
BBX 11 9 -1 0
BITMAP
02CE3006EEC0
0C4C702F5210
130B707D0000
000D60B90000
01EFFEF60000
005F20E40000
006D00D50300
008B00A94C00
0086003DD300
ENDCHAR
STARTCHAR uni04A5
ENCODING 1189
SWIDTH 475 0
DWIDTH 4 0
BBX 6 6 0 0
BITMAP
000150
2C0D70
6A2D00
8FFB01
897A95
664E80
ENDCHAR
STARTCHAR uni04A8
ENCODING 1192
SWIDTH 997 0
DWIDTH 9 0
BBX 11 9 0 0
BITMAP
006E60000000
05F72BFC2000
0D70BB4CB000
3F22F305F000
5E05F004F000
6E04F007C000
4F21F52E6000
0CC5BEEC7C10
02AEECDFC500
ENDCHAR
STARTCHAR uni04A9
ENCODING 1193
SWIDTH 574 0
DWIDTH 5 0
BBX 7 5 0 0
BITMAP
1BAC8000
7B87D000
A7A4D330
99ADAD20
2DEED500
ENDCHAR
STARTCHAR uni04AA
ENCODING 1194
SWIDTH 781 0
DWIDTH 7 0
BBX 8 14 0 -5
BITMAP
005CE900
05E54F30
0D700E40
3F200700
5E000000
6E000000
4F100113
0DA34D9C
03CFDFB1
00008F00
0006CC00
001C7800
004AC300
002E9000
ENDCHAR
STARTCHAR uni04AB
ENCODING 1195
SWIDTH 431 0
DWIDTH 4 0
BBX 5 9 0 -4
BITMAP
1BE200
7BA400
A72000
9A3490
3EFD30
08E300
59D000
6F6000
010000
ENDCHAR
STARTCHAR uni04AC
ENCODING 1196
SWIDTH 697 0
DWIDTH 6 0
BBX 9 13 0 -4
BITMAP
07CEFFFD10
7B37E22200
A708B00000
440B900000
000D600000
000F400000
002F300000
004F600000
003FC00000
01CAA00000
07BA600000
05FD100000
0010000000
ENDCHAR
STARTCHAR uni04AD
ENCODING 1197
SWIDTH 784 0
DWIDTH 7 0
BBX 8 9 0 -4
BITMAP
2C6E3D40
6BDEBE40
8F6F7E20
8D4F2F4A
682C0BE5
00006E50
0003BC10
0003F900
00001000
ENDCHAR
STARTCHAR uni04AE
ENCODING 1198
SWIDTH 677 0
DWIDTH 6 0
BBX 6 9 1 0
BITMAP
A70098
7D03F3
2F3B90
0CCF20
07F800
02F200
02F100
03F000
02D000
ENDCHAR
STARTCHAR uni04AF
ENCODING 1199
SWIDTH 472 0
DWIDTH 4 0
BBX 6 9 0 -4
BITMAP
772D10
7A6F21
5B6FF5
3DD310
2F8000
1F1000
0F2000
0E2000
050000
ENDCHAR
STARTCHAR uni04B0
ENCODING 1200
SWIDTH 677 0
DWIDTH 6 0
BBX 6 9 1 0
BITMAP
A70098
7D03F2
2F4B80
0BDE10
05F700
3EFE20
04F200
03F000
02D000
ENDCHAR
STARTCHAR uni04B1
ENCODING 1201
SWIDTH 472 0
DWIDTH 4 0
BBX 6 9 0 -4
BITMAP
772D10
7A6F21
5B6FF5
4CC310
3FA000
BFE200
1F3000
0E2000
060000
ENDCHAR
STARTCHAR uni04B2
ENCODING 1202
SWIDTH 716 0
DWIDTH 6 0
BBX 9 13 -1 -4
BITMAP
03DE306C00
0C4BA3F500
0005ED8000
0001FC0000
0005F70000
002EDA0000
00CA6E0000
08E12F8660
1E4009FA10
00005DF000
0001E6B000
0002EE4000
0000110000
ENDCHAR
STARTCHAR uni04B3
ENCODING 1203
SWIDTH 601 0
DWIDTH 5 0
BBX 7 9 0 -4
BITMAP
1E9BB000
28E99000
31D50000
C7F83740
9EAFF900
002CB000
00C87000
00DD1000
00100000
ENDCHAR
STARTCHAR uni04B4
ENCODING 1204
SWIDTH 1040 0
DWIDTH 9 0
BBX 11 13 0 -4
BITMAP
07CEFE84B000
7C45F217C000
A707D00AA000
660AA00C8000
000C701F6000
000F505F4000
002F20AF3000
002F586DA430
000AE807FD30
000000AEE000
000003E7A000
000002FE3000
000000110000
ENDCHAR
STARTCHAR uni04B5
ENCODING 1205
SWIDTH 501 0
DWIDTH 5 0
BBX 6 11 0 -4
BITMAP
07FE20
012200
2C1C00
6B5B00
89A800
8CEB65
4D5FA1
02CC00
0B8800
0BE200
011000
ENDCHAR
STARTCHAR uni04B6
ENCODING 1206
SWIDTH 804 0
DWIDTH 7 0
BBX 8 13 1 -4
BITMAP
79007800
AA00A900
B800D700
E603F600
E83CF400
9FF8F200
0322F101
0001EEC4
00009E40
000CCB00
005C8700
004FD100
00010000
ENDCHAR
STARTCHAR uni04B7
ENCODING 1207
SWIDTH 631 0
DWIDTH 6 0
BBX 7 10 0 -4
BITMAP
01600000
06CFF100
0B3D7000
3A990000
C2D64570
309FFB10
001BE000
0088B000
009E4000
00010000
ENDCHAR
STARTCHAR uni04B8
ENCODING 1208
SWIDTH 773 0
DWIDTH 7 0
BBX 6 9 1 0
BITMAP
790078
AA00A9
C850D7
E5C4F6
E9DDE4
6EF7F2
0392F1
0034E0
0004C0
ENDCHAR
STARTCHAR uni04B9
ENCODING 1209
SWIDTH 575 0
DWIDTH 5 0
BBX 7 6 0 0
BITMAP
03C80000
08DDE300
0D3C9000
5A8B0330
D2A95D20
205ED400
ENDCHAR
STARTCHAR uni04BA
ENCODING 1210
SWIDTH 755 0
DWIDTH 7 0
BBX 8 9 0 0
BITMAP
04C00000
07D00000
08B00000
0A800000
0C8BEA00
0ED55F20
2F502F22
3F104F4B
3D002EC2
ENDCHAR
STARTCHAR uni04BB
ENCODING 1211
SWIDTH 502 0
DWIDTH 5 0
BBX 6 10 0 0
BITMAP
01C900
079D00
0D4B00
1E7600
4DC000
6F8D20
7BCF20
7E6E03
8E4D78
782EA0
ENDCHAR
STARTCHAR uni04BC
ENCODING 1212
SWIDTH 808 0
DWIDTH 7 0
BBX 9 9 0 0
BITMAP
0005DE9000
004F63E300
00C800C600
46F300D500
5FFFFFE200
05F2221000
02F4000000
00BD424A40
0019EEC810
ENDCHAR
STARTCHAR uni04BD
ENCODING 1213
SWIDTH 483 0
DWIDTH 4 0
BBX 6 5 0 0
BITMAP
02CD10
098B40
BDBC12
4DB3B6
04DE70
ENDCHAR
STARTCHAR uni04BE
ENCODING 1214
SWIDTH 808 0
DWIDTH 7 0
BBX 9 13 0 -4
BITMAP
0005DE9000
004F63E300
00C800C600
46F300D500
5FFFFFE200
05F2221000
02F4000000
00BD424A40
001CFEC810
000D100000
001E000000
000CF30000
0000100000
ENDCHAR
STARTCHAR uni04BF
ENCODING 1215
SWIDTH 483 0
DWIDTH 4 0
BBX 6 8 0 -3
BITMAP
02CD10
099B40
9D9D11
7EB287
06EDB1
009700
00C300
007E60
ENDCHAR
STARTCHAR uni04C0
ENCODING 1216
SWIDTH 495 0
DWIDTH 4 0
BBX 6 9 -1 0
BITMAP
00EFFD
002D81
000E50
001F30
003F10
005E00
007C00
01AB10
1FFFD0
ENDCHAR
STARTCHAR uni04C1
ENCODING 1217
SWIDTH 1234 0
DWIDTH 11 0
BBX 12 10 0 0
BITMAP
000004259000
04DC16FF39E7
053C71F34D47
0006B2F1A800
0002E6F7E100
0000BFFE2000
000ACABB9000
003F2A84E102
A6B90C70D94B
6EB10C404ED3
ENDCHAR
STARTCHAR uni04C2
ENCODING 1218
SWIDTH 717 0
DWIDTH 6 0
BBX 8 9 0 0
BITMAP
00000200
00936700
008FC100
00010000
1E8C5E80
27DEC7B0
31DEF023
C7BFD487
9E3C4EA0
ENDCHAR
STARTCHAR uni04C3
ENCODING 1219
SWIDTH 937 0
DWIDTH 8 0
BBX 10 13 0 -4
BITMAP
06DFD30890
3E47E10E50
6B08B07D10
1709A6E400
005FFD3000
000E8E6000
501F38D000
B87E02F987
3DE5009F80
000005DE00
00002E6B00
00002EE300
0000011000
ENDCHAR
STARTCHAR uni04C4
ENCODING 1220
SWIDTH 531 0
DWIDTH 5 0
BBX 6 9 0 -4
BITMAP
2C7E40
6CE870
8EB210
8FD248
69AFC2
009F10
078C00
07F500
001000
ENDCHAR
STARTCHAR uni04C5
ENCODING 1221
SWIDTH 861 0
DWIDTH 8 0
BBX 9 11 0 -2
BITMAP
00001D5000
00005F6000
00009F5000
0000DE5000
0003DD5000
00099D5000
401E4C7030
D6AB09B4A0
5EC202DE20
000000D500
000004B000
ENDCHAR
STARTCHAR uni04C6
ENCODING 1222
SWIDTH 549 0
DWIDTH 5 0
BBX 6 7 0 -2
BITMAP
004E10
00AF20
62DE14
E98E6C
AC1AF3
000980
000C10
ENDCHAR
STARTCHAR uni04C7
ENCODING 1223
SWIDTH 907 0
DWIDTH 8 0
BBX 10 14 0 -4
BITMAP
0000004D40
2CE300D880
C4C705C470
30B7089930
00D60BD900
1EFFEF7000
05F20E4000
06D00E5000
08B00BD7B3
086003DE50
000008EA00
00005C9700
00005FD100
0000010000
ENDCHAR
STARTCHAR uni04C8
ENCODING 1224
SWIDTH 515 0
DWIDTH 5 0
BBX 6 9 0 -4
BITMAP
2C0D00
6A2D00
8FFB00
887B45
662FC2
01BE00
098A00
09E300
001000
ENDCHAR
STARTCHAR uni04C9
ENCODING 1225
SWIDTH 873 0
DWIDTH 8 0
BBX 9 13 0 -3
BITMAP
0000004D40
2CE300D880
C4C705C470
30B7089930
00D60BD900
1EFFEF8000
05F20E4000
06D00E5050
08B00BC7C0
086003EF30
000000A800
000002E100
0000014000
ENDCHAR
STARTCHAR uni04CA
ENCODING 1226
SWIDTH 475 0
DWIDTH 4 0
BBX 6 7 0 -2
BITMAP
2C0D00
6A2D00
8FFB01
897A95
664FB0
003E10
008600
ENDCHAR
STARTCHAR uni04CB
ENCODING 1227
SWIDTH 773 0
DWIDTH 7 0
BBX 6 13 1 -4
BITMAP
790078
AA00A9
B800D7
E603F6
E83CE4
9FF7F2
0322F1
0006E0
004FC0
07CD00
3E7900
3FE200
010000
ENDCHAR
STARTCHAR uni04CC
ENCODING 1228
SWIDTH 555 0
DWIDTH 5 0
BBX 7 7 0 -1
BITMAP
03D10000
08CFF100
0D3D7000
5AA90310
D2D65D10
208FF200
0000B000
ENDCHAR
STARTCHAR uni04CD
ENCODING 1229
SWIDTH 1133 0
DWIDTH 10 0
BBX 12 11 0 -2
BITMAP
0001D605E000
0004F70BF100
0006F72FF000
0009E77CE000
000CB8B9D000
001F7AE5D000
305C6EB4E011
D5B73F61F5A3
6EA01D208F80
000000006C00
00000000C300
ENDCHAR
STARTCHAR uni04CE
ENCODING 1230
SWIDTH 734 0
DWIDTH 7 0
BBX 8 7 0 -2
BITMAP
007A4E10
00DBBF10
73CDCE02
EA7F7E69
AC1C2BE2
00000C50
00002B00
ENDCHAR
STARTCHAR uni04CF
ENCODING 1231
SWIDTH 222 0
DWIDTH 2 0
BBX 3 9 0 0
BITMAP
0330
0B70
0D40
1F20
3E00
5C00
7A00
9800
9600
ENDCHAR
STARTCHAR uni04D0
ENCODING 1232
SWIDTH 786 0
DWIDTH 7 0
BBX 9 10 0 0
BITMAP
0000619400
0018FFF600
01CD656200
09C10A8000
1F400E6000
5E002F3000
7D005F1000
7D00BF0210
3F77DF6C20
08EB2CE600
ENDCHAR
STARTCHAR uni04D1
ENCODING 1233
SWIDTH 470 0
DWIDTH 4 0
BBX 6 9 0 0
BITMAP
000120
0A1860
09FB10
001000
07E700
4E7D00
996A11
A9CAA4
5E7D80
ENDCHAR
STARTCHAR uni04D2
ENCODING 1234
SWIDTH 786 0
DWIDTH 7 0
BBX 9 10 0 0
BITMAP
0001D4D000
0018EFF500
01CD656200
09C10A8000
1F400E6000
5E002F3000
7D005F1000
7D00BF0210
3F77DF6C20
08EB2CE600
ENDCHAR
STARTCHAR uni04D3
ENCODING 1235
SWIDTH 470 0
DWIDTH 4 0
BBX 6 7 0 0
BITMAP
087A50
010100
07E700
4E7D00
996A11
A9CAA4
5E7D80
ENDCHAR
STARTCHAR uni04D4
ENCODING 1236
SWIDTH 1015 0
DWIDTH 9 0
BBX 11 9 0 0
BITMAP
0019E5DFF900
01DD66D22100
0AC109A00000
1F400D700000
5F001FFFE000
7D005F421000
7D00BF200000
3F56CEA34B30
07EC34CFD700
ENDCHAR
STARTCHAR uni04D5
ENCODING 1237
SWIDTH 653 0
DWIDTH 6 0
BBX 7 5 0 0
BITMAP
07EBE800
4E6E6C00
986DC630
99BF66D0
4E89FC30
ENDCHAR
STARTCHAR uni04D6
ENCODING 1238
SWIDTH 686 0
DWIDTH 6 0
BBX 8 10 0 0
BITMAP
00161B20
009FFF00
08E43E40
0C800C60
0AB10710
04FF3000
4E730000
AA000000
8E5236B3
18DFEC70
ENDCHAR
STARTCHAR uni04D7
ENCODING 1239
SWIDTH 393 0
DWIDTH 4 0
BBX 5 9 0 0
BITMAP
000200
391C00
2EF600
001000
0BE300
7B9700
ABC230
9D4A80
2CE910
ENDCHAR
STARTCHAR uni04D8
ENCODING 1240
SWIDTH 792 0
DWIDTH 7 0
BBX 7 9 0 0
BITMAP
02AEE800
0B935E70
020008C0
000006E0
4FFFFFD0
7E222BB0
5F101E60
1E93AD10
04CEB200
ENDCHAR
STARTCHAR uni04D9
ENCODING 1241
SWIDTH 455 0
DWIDTH 4 0
BBX 6 5 0 0
BITMAP
3DE500
237D21
8FFFF3
B79D10
6ED400
ENDCHAR
STARTCHAR uni04DA
ENCODING 1242
SWIDTH 792 0
DWIDTH 7 0
BBX 7 10 0 0
BITMAP
004C6A00
02AFE900
0B935E70
020008C0
000006E0
4FFFFFD0
7E222BB0
5F101E60
1E93AD10
04CEB200
ENDCHAR
STARTCHAR uni04DB
ENCODING 1243
SWIDTH 455 0
DWIDTH 4 0
BBX 6 7 0 0
BITMAP
1E3D00
010100
3DE500
237D21
8FFFF3
B79D10
6ED400
ENDCHAR
STARTCHAR uni04DC
ENCODING 1244
SWIDTH 1234 0
DWIDTH 11 0
BBX 12 10 0 0
BITMAP
0000097B5000
04DC11D409E7
053C71F34D47
0006B2F1A800
0002E6F7E100
0000BFFE2000
000ACABB9000
003F2A84E102
A6B90C70D94B
6EB10C404ED3
ENDCHAR
STARTCHAR uni04DD
ENCODING 1245
SWIDTH 717 0
DWIDTH 6 0
BBX 8 7 0 0
BITMAP
00798700
00111000
1E8C5E80
27DEC7B0
31DEF023
C7BFD487
9E3C4EA0
ENDCHAR
STARTCHAR uni04DE
ENCODING 1246
SWIDTH 725 0
DWIDTH 7 0
BBX 7 10 0 0
BITMAP
004B6A00
01AFE600
09B39C00
0B506B00
0211C500
008ED800
12103F20
7B004F20
5E43DB00
09EE9100
ENDCHAR
STARTCHAR uni04DF
ENCODING 1247
SWIDTH 435 0
DWIDTH 4 0
BBX 6 12 -1 -5
BITMAP
04B6A0
001010
02CE40
025780
002C41
05D46C
02DCB2
00AD00
08AD00
2C6A00
59C500
3E9000
ENDCHAR
STARTCHAR uni04E0
ENCODING 1248
SWIDTH 744 0
DWIDTH 7 0
BBX 7 9 0 0
BITMAP
02BEEC70
0B924F80
0B606E00
0112E500
008ED900
12103F20
7B004F20
5E43DB00
09EE9100
ENDCHAR
STARTCHAR uni04E1
ENCODING 1249
SWIDTH 435 0
DWIDTH 4 0
BBX 6 10 -1 -5
BITMAP
07FFF2
004E80
01D403
07B19B
01BE90
01CD00
0A9D00
2B6A00
59D400
3E9000
ENDCHAR
STARTCHAR uni04E2
ENCODING 1250
SWIDTH 890 0
DWIDTH 8 0
BBX 10 10 0 0
BITMAP
0008FF3000
1BE5229600
B6C800D700
50C700F500
00E503F300
02F207F100
05E00CE000
07C04CD021
07E6C7E7D1
02DD42DE50
ENDCHAR
STARTCHAR uni04E3
ENCODING 1251
SWIDTH 462 0
DWIDTH 4 0
BBX 6 7 0 0
BITMAP
0AFF10
012200
2C1C00
6B5B00
89A911
8CE9B3
4D6E60
ENDCHAR
STARTCHAR uni04E4
ENCODING 1252
SWIDTH 890 0
DWIDTH 8 0
BBX 10 10 0 0
BITMAP
00088A6000
1BE501A600
B6C800D700
50C700F500
00E503F300
02F207F100
05E00CE000
07C04CD021
07E6C7E7D1
02DD42DE50
ENDCHAR
STARTCHAR uni04E5
ENCODING 1253
SWIDTH 462 0
DWIDTH 4 0
BBX 6 7 0 0
BITMAP
0A5C30
010100
2C1C00
6B5B00
89A911
8CE9B3
4D6E60
ENDCHAR
STARTCHAR uni04E6
ENCODING 1254
SWIDTH 816 0
DWIDTH 7 0
BBX 8 10 0 0
BITMAP
000D4D10
005EEC10
05E63DA0
0D7005F1
3F2003F2
5E0003F2
6E0005E0
4F100BA0
1DA38E20
03CEB300
ENDCHAR
STARTCHAR uni04E7
ENCODING 1255
SWIDTH 451 0
DWIDTH 4 0
BBX 6 7 0 0
BITMAP
1E3D00
010100
1BE400
7BBC20
A76FF3
9A7B10
2DD200
ENDCHAR
STARTCHAR uni04E8
ENCODING 1256
SWIDTH 816 0
DWIDTH 7 0
BBX 8 9 0 0
BITMAP
005DEA10
05E63DA0
0D7005F1
3F2003F2
5FFFFFF2
6E2226E0
4F100AA0
1DA37E20
03CEB300
ENDCHAR
STARTCHAR uni04E9
ENCODING 1257
SWIDTH 451 0
DWIDTH 4 0
BBX 6 5 0 0
BITMAP
1BE400
7B6C21
AFFFF3
9B9B00
2DD200
ENDCHAR
STARTCHAR uni04EA
ENCODING 1258
SWIDTH 816 0
DWIDTH 7 0
BBX 8 10 0 0
BITMAP
000D4D10
005EEC10
05E63DA0
0D7005F1
3F2003F2
5FFFFFF2
6E2226E0
4F100AA0
1DA37E20
03CEB300
ENDCHAR
STARTCHAR uni04EB
ENCODING 1259
SWIDTH 451 0
DWIDTH 4 0
BBX 6 7 0 0
BITMAP
1E3D00
010100
1BE400
7B6C21
AFFFF3
9B9B00
2DD200
ENDCHAR
STARTCHAR uni04EC
ENCODING 1260
SWIDTH 755 0
DWIDTH 7 0
BBX 7 10 0 0
BITMAP
005B7900
03CFD500
0E729F20
03000E70
00000B90
01FFFF80
00122E60
78003F20
8C24D900
1BED8000
ENDCHAR
STARTCHAR uni04ED
ENCODING 1261
SWIDTH 466 0
DWIDTH 4 0
BBX 6 7 0 0
BITMAP
0C4E10
010100
2DE600
146E11
25FFF5
A78E20
5EE500
ENDCHAR
STARTCHAR uni04EE
ENCODING 1262
SWIDTH 824 0
DWIDTH 7 0
BBX 9 13 0 -3
BITMAP
0009FF1000
2BE522A600
85D700E600
00D603F400
01F309F200
02F35DF000
00CFC6D220
00013BFE60
0009FE9000
008B1C5000
00C54D1000
008FE40000
0001000000
ENDCHAR
STARTCHAR uni04EF
ENCODING 1263
SWIDTH 479 0
DWIDTH 4 0
BBX 6 12 0 -5
BITMAP
0AFF10
012200
2C1D00
6B5C00
88AA21
8CEBD2
4DBD30
04F400
3CE100
B5C000
D97000
BC1000
ENDCHAR
STARTCHAR uni04F0
ENCODING 1264
SWIDTH 824 0
DWIDTH 7 0
BBX 9 13 0 -3
BITMAP
000A6B4000
2BE401A600
85D700E600
00D603F400
01F309F200
02F35DF000
00CFC6D220
00013BFE60
0009FE9000
008B1C5000
00C54D1000
008FE40000
0001000000
ENDCHAR
STARTCHAR uni04F1
ENCODING 1265
SWIDTH 479 0
DWIDTH 4 0
BBX 6 12 0 -5
BITMAP
0A5C30
010100
2C1D00
6B5C00
88AA21
8CEBD2
4DBD30
04F400
3CE100
B5C000
D97000
BC1000
ENDCHAR
STARTCHAR uni04F2
ENCODING 1266
SWIDTH 824 0
DWIDTH 7 0
BBX 9 15 0 -3
BITMAP
0000523000
0003D88000
00056A1000
2BE300A600
85D700E600
00D603F400
01F309F200
02F35DF000
00CFC6D220
00013BFE60
0009FE9000
008B1C5000
00C54D1000
008FE40000
0001000000
ENDCHAR
STARTCHAR uni04F3
ENCODING 1267
SWIDTH 479 0
DWIDTH 4 0
BBX 6 15 0 -5
BITMAP
005140
00E8C0
03C960
064A00
000000
2C1D00
6B5C00
88AA21
8CEBD2
4DBD30
04F400
3CE100
B5C000
D97000
BC1000
ENDCHAR
STARTCHAR uni04F4
ENCODING 1268
SWIDTH 773 0
DWIDTH 7 0
BBX 6 10 1 0
BITMAP
04B6A0
791078
AA00A9
B800D7
E603F6
E83CE4
9FF7F2
0322F1
0004E0
0004C0
ENDCHAR
STARTCHAR uni04F5
ENCODING 1269
SWIDTH 555 0
DWIDTH 5 0
BBX 7 7 0 0
BITMAP
00789700
03E21000
08CFF100
0D3D7000
5AA90310
D2D65D10
208EC300
ENDCHAR
STARTCHAR uni04F6
ENCODING 1270
SWIDTH 600 0
DWIDTH 5 0
BBX 8 13 0 -4
BITMAP
08DEFFF9
7C7F3210
A75E0000
458C0000
00A90000
00C70000
00E60000
01F80000
01EF0000
0AAD0000
3E790000
2FE20000
01100000
ENDCHAR
STARTCHAR uni04F7
ENCODING 1271
SWIDTH 441 0
DWIDTH 4 0
BBX 5 9 0 -4
BITMAP
4EE200
34E300
2C7000
993490
6EFE40
08E400
4AD100
4F7000
010000
ENDCHAR
STARTCHAR uni04F8
ENCODING 1272
SWIDTH 1078 0
DWIDTH 10 0
BBX 10 10 0 0
BITMAP
000097B500
03D01010B5
07C00000E5
09900001F3
0CDEE803F1
9F836F45E0
2F300E67C0
0F301F39A0
0C93BC0B80
03DEA10B50
ENDCHAR
STARTCHAR uni04F9
ENCODING 1273
SWIDTH 702 0
DWIDTH 6 0
BBX 8 7 0 0
BITMAP
0097B500
00101000
2D002D00
6DD99D00
8D4FFA14
7C5F9BA5
1CE52E80
ENDCHAR
STARTCHAR uni04FA
ENCODING 1274
SWIDTH 635 0
DWIDTH 6 0
BBX 9 14 -1 -5
BITMAP
007CEFFF90
07C7F32100
0A75E00000
0568C00000
008FFC0000
001C910000
000D600000
000F500000
002F300000
004F000000
007C000000
56C7000000
6FD1000000
0200000000
ENDCHAR
STARTCHAR uni04FB
ENCODING 1275
SWIDTH 441 0
DWIDTH 4 0
BBX 5 9 0 -4
BITMAP
4EE200
34E400
9DA000
9A74A0
6EFE40
08E400
4AD100
4F7000
010000
ENDCHAR
STARTCHAR uni04FC
ENCODING 1276
SWIDTH 716 0
DWIDTH 6 0
BBX 9 13 -1 -4
BITMAP
03DE306C00
0C4BA3F500
0005ED8000
0001FC0000
0005F70000
002EDA0000
00CA6E0000
08E12F8660
1E4009FA10
00005DF000
0001E6B000
0002EE4000
0000110000
ENDCHAR
STARTCHAR uni04FD
ENCODING 1277
SWIDTH 601 0
DWIDTH 5 0
BBX 7 9 0 -4
BITMAP
1E9BB000
28E99000
31D50000
C7F83740
9EAFF900
002CB000
00C87000
00DD1000
00100000
ENDCHAR
STARTCHAR uni04FE
ENCODING 1278
SWIDTH 712 0
DWIDTH 6 0
BBX 9 9 -1 0
BITMAP
03DD306C00
0C4BA2E600
0105ECA000
0002FE1000
008FFFB000
001CFA1000
009D8D0010
06E32F5770
1E5008EA00
ENDCHAR
STARTCHAR uni04FF
ENCODING 1279
SWIDTH 529 0
DWIDTH 5 0
BBX 6 5 0 0
BITMAP
1E9BB0
28E990
26FE02
B7F95B
9E8EC2
ENDCHAR
STARTCHAR uni0510
ENCODING 1296
SWIDTH 706 0
DWIDTH 6 0
BBX 6 9 0 0
BITMAP
00AFD4
07C27E
09902D
05D001
0ADE60
6E0103
8D002F
5F72AD
07EFB2
ENDCHAR
STARTCHAR uni0511
ENCODING 1297
SWIDTH 392 0
DWIDTH 4 0
BBX 5 5 0 0
BITMAP
1CD200
5A5200
3F6010
B94970
7EE900
ENDCHAR
STARTCHAR uni0512
ENCODING 1298
SWIDTH 884 0
DWIDTH 8 0
BBX 10 13 0 -4
BITMAP
00001D5000
00005F6000
00009F5000
0000DE5000
0003DD5000
00099D5000
401E4C7000
D6AB09C4A1
5EC202EE50
00000AE800
00007AB500
00007FC000
0000010000
ENDCHAR
STARTCHAR uni0513
ENCODING 1299
SWIDTH 631 0
DWIDTH 6 0
BBX 7 9 0 -4
BITMAP
004E1000
00AF1000
52DE1000
E99F4470
AC1CFC20
0009E000
0088B000
009E4000
00010000
ENDCHAR
STARTCHAR uni051A
ENCODING 1306
SWIDTH 816 0
DWIDTH 7 0
BBX 8 13 0 -4
BITMAP
005DEA10
05E63CA0
0D7005F1
3F1003F2
5E0003F2
6E0006E0
4F200C90
0CC6BE10
02AFC200
0007F101
0001E92A
00006FE5
00000110
ENDCHAR
STARTCHAR uni051B
ENCODING 1307
SWIDTH 500 0
DWIDTH 5 0
BBX 6 11 0 -5
BITMAP
000510
07EF30
4E7E00
996A00
A9CAE9
5EE891
00D680
00E670
00EA50
00AE10
001200
ENDCHAR
STARTCHAR uni051C
ENCODING 1308
SWIDTH 1217 0
DWIDTH 11 0
BBX 12 9 1 0
BITMAP
88005B03DC00
B9009C087E30
C700CB0A4E20
D600EA07DE00
D604F900CFF3
D608C901E420
B81D6B07B000
8DB92F8E2000
2DB10AE40000
ENDCHAR
STARTCHAR uni051D
ENCODING 1309
SWIDTH 700 0
DWIDTH 6 0
BBX 8 5 0 0
BITMAP
773B2D20
888C5F21
89DD6FF6
7DBED310
3E3D7000
ENDCHAR
STARTCHAR uni0524
ENCODING 1316
SWIDTH 892 0
DWIDTH 8 0
BBX 10 13 0 -4
BITMAP
06BEFFEDB1
6C6F42BA50
A74F10C700
556D00F400
008B02F200
00A905E000
00C706C000
00E606F981
00D300AF80
000009E900
00007AA600
00006FC100
0000010000
ENDCHAR
STARTCHAR uni0525
ENCODING 1317
SWIDTH 536 0
DWIDTH 5 0
BBX 6 9 0 -4
BITMAP
2C5E10
6BDF10
8E6D00
8D4D48
681ED3
009E20
068D00
07F500
001000
ENDCHAR
STARTCHAR uni0526
ENCODING 1318
SWIDTH 818 0
DWIDTH 7 0
BBX 9 13 0 -4
BITMAP
02D0000000
05E0000000
08C0000000
0A90000000
0C9BFA0000
0EE55F3000
1F702F2000
3F203FA440
3E002EFC20
00004CE000
0002E7A000
0003FE3000
0000110000
ENDCHAR
STARTCHAR uni0527
ENCODING 1319
SWIDTH 542 0
DWIDTH 5 0
BBX 6 14 0 -4
BITMAP
01C800
079D00
0D4B00
1E7600
4DC000
6F8D20
7BCF20
7E6E00
8E3E49
781DD3
009E20
059D00
06F600
001000
ENDCHAR
STARTCHAR uni0528
ENCODING 1320
SWIDTH 873 0
DWIDTH 8 0
BBX 10 14 -1 -4
BITMAP
00000004D4
02CE300D88
0C4C705C47
020B708994
000D60BDA0
01EFFFF900
005F30E400
005E00D503
008B00AA4C
00B9003DD3
00E5000000
A5E1000000
DF70000000
1100000000
ENDCHAR
STARTCHAR uni0529
ENCODING 1321
SWIDTH 475 0
DWIDTH 4 0
BBX 7 9 -1 -4
BITMAP
02C0D000
06A2D000
08FFB010
0897A950
0884E800
07800000
88800000
CF300000
01000000
ENDCHAR
STARTCHAR uni052E
ENCODING 1326
SWIDTH 884 0
DWIDTH 8 0
BBX 10 13 0 -4
BITMAP
00001D5000
00005F6000
00009F5000
0000DE5000
0003DD5000
00099D5000
401E4C7000
D6AB09C4A1
5EC202EE50
00000AE800
00007AB500
00007FC000
0000010000
ENDCHAR
STARTCHAR uni052F
ENCODING 1327
SWIDTH 631 0
DWIDTH 6 0
BBX 7 9 0 -4
BITMAP
004E1000
00AF1000
52DE1000
E99F4470
AC1CFC20
0009E000
0088B000
009E4000
00010000
ENDCHAR
STARTCHAR Wgrave
ENCODING 7808
SWIDTH 1217 0
DWIDTH 11 0
BBX 12 12 1 0
BITMAP
000600000000
000DA0000000
000197000000
88005B03DC00
B9009C087E30
C700CB0A4E20
D600EA07DE00
D604F900CFF3
D608C901E420
B81D6B07B000
8DB92F8E2000
2DB10AE40000
ENDCHAR
STARTCHAR wgrave
ENCODING 7809
SWIDTH 700 0
DWIDTH 6 0
BBX 8 10 0 0
BITMAP
00500000
02F10000
00A60000
00190000
00000000
773B2D20
888C5F21
89DD6FF6
7DBED310
3E3D7000
ENDCHAR
STARTCHAR Wacute
ENCODING 7810
SWIDTH 1217 0
DWIDTH 11 0
BBX 12 12 1 0
BITMAP
000000240000
000002E80000
00000B600000
88005B03DC00
B9009C087E30
C700CB0A4E20
D600EA07DE00
D604F900CFF3
D608C901E420
B81D6B07B000
8DB92F8E2000
2DB10AE40000
ENDCHAR
STARTCHAR wacute
ENCODING 7811
SWIDTH 700 0
DWIDTH 6 0
BBX 8 9 0 0
BITMAP
0001D000
0007A000
000A1000
00000000
773B2D20
888C5F21
89DD6FF6
7DBED310
3E3D7000
ENDCHAR
STARTCHAR Wdieresis
ENCODING 7812
SWIDTH 1217 0
DWIDTH 11 0
BBX 12 10 1 0
BITMAP
0001E4D00000
88006B13DC00
B9009C087E30
C700CB0A4E20
D600EA07DE00
D604F900CFF3
D608C901E420
B81D6B07B000
8DB92F8E2000
2DB10AE40000
ENDCHAR
STARTCHAR wdieresis
ENCODING 7813
SWIDTH 700 0
DWIDTH 6 0
BBX 8 7 0 0
BITMAP
00D3E100
00101000
773B2D20
888C5F21
89DD6FF6
7DBED310
3E3D7000
ENDCHAR
STARTCHAR uni1E9E
ENCODING 7838
SWIDTH 843 0
DWIDTH 8 0
BBX 8 10 0 -1
BITMAP
03D1AEA0
07CB65F4
0AC803F2
0CE26D60
0DB3ED40
0F7008E0
2F4004F1
3F200AD0
3D04CE30
00046100
ENDCHAR
STARTCHAR uni1EA0
ENCODING 7840
SWIDTH 786 0
DWIDTH 7 0
BBX 9 12 0 -3
BITMAP
0018DFD500
01CD656200
09C10A8000
1F400E6000
5E002F3000
7D005F1000
7D00BF0210
3F77DF6C20
08EB2CE600
0000000000
006D000000
0001000000
ENDCHAR
STARTCHAR uni1EA1
ENCODING 7841
SWIDTH 470 0
DWIDTH 4 0
BBX 6 8 0 -3
BITMAP
07E700
4E7D00
996A11
A9CAA4
5E7D80
000000
0D5000
010000
ENDCHAR
STARTCHAR uni1EA2
ENCODING 7842
SWIDTH 786 0
DWIDTH 7 0
BBX 9 12 0 0
BITMAP
00004E7000
000015B000
00000E7000
0018DFD500
01CD656200
09C10A8000
1F400E6000
5E002F3000
7D005F1000
7D00BF0210
3F77DF6C20
08EB2CE600
ENDCHAR
STARTCHAR uni1EA3
ENCODING 7843
SWIDTH 470 0
DWIDTH 4 0
BBX 6 9 0 0
BITMAP
00DB00
002D10
009B00
001000
07E700
4E7D00
996A11
A9CAA4
5E7D80
ENDCHAR
STARTCHAR uni1EA4
ENCODING 7844
SWIDTH 786 0
DWIDTH 7 0
BBX 9 15 0 0
BITMAP
0000000600
000000AE00
0000079100
00002D5000
0000BCB000
0001D2C000
0018DFD500
01CD656200
09C10A8000
1F400E6000
5E002F3000
7D005F1000
7D00BF0210
3F77DF6C20
08EB2CE600
ENDCHAR
STARTCHAR uni1EA5
ENCODING 7845
SWIDTH 470 0
DWIDTH 4 0
BBX 6 10 0 0
BITMAP
000023
0000C5
01BC00
086A30
000000
07E700
4E7D00
996A11
A9CAA4
5E7D80
ENDCHAR
STARTCHAR uni1EA6
ENCODING 7846
SWIDTH 786 0
DWIDTH 7 0
BBX 9 15 0 0
BITMAP
0004200000
0008E20000
00006B0000
00002D5000
0000BCB000
0001D2C000
0018DFD500
01CD656200
09C10A8000
1F400E6000
5E002F3000
7D005F1000
7D00BF0210
3F77DF6C20
08EB2CE600
ENDCHAR
STARTCHAR uni1EA7
ENCODING 7847
SWIDTH 470 0
DWIDTH 4 0
BBX 6 10 0 0
BITMAP
330000
4C1000
01BC00
086A30
000000
07E700
4E7D00
996A11
A9CAA4
5E7D80
ENDCHAR
STARTCHAR uni1EA8
ENCODING 7848
SWIDTH 786 0
DWIDTH 7 0
BBX 9 15 0 0
BITMAP
00000DC000
000002D100
000009C000
00002F5000
0000BCB000
0001D2C000
0018DFD500
01CD656200
09C10A8000
1F400E6000
5E002F3000
7D005F1000
7D00BF0210
3F77DF6C20
08EB2CE600
ENDCHAR
STARTCHAR uni1EA9
ENCODING 7849
SWIDTH 470 0
DWIDTH 4 0
BBX 6 9 0 0
BITMAP
0001E6
00004A
01BBC6
08AD40
07E800
4E7D00
996A11
A9CAA4
5E7D80
ENDCHAR
STARTCHAR uni1EAA
ENCODING 7850
SWIDTH 786 0
DWIDTH 7 0
BBX 9 14 0 0
BITMAP
00009C3B00
0001C5D500
00002D5000
0000BCB000
0001D2C000
0018DFD500
01CD656200
09C10A8000
1F400E6000
5E002F3000
7D005F1000
7D00BF0210
3F77DF6C20
08EB2CE600
ENDCHAR
STARTCHAR uni1EAB
ENCODING 7851
SWIDTH 470 0
DWIDTH 4 0
BBX 6 10 0 0
BITMAP
04D6A0
043930
01DD00
096A30
000000
07E700
4E7D00
996A11
A9CAA4
5E7D80
ENDCHAR
STARTCHAR uni1EAC
ENCODING 7852
SWIDTH 786 0
DWIDTH 7 0
BBX 9 15 0 -3
BITMAP
00002D5000
0000BCB000
0001D2C000
0018DFD500
01CD656200
09C10A8000
1F400E6000
5E002F3000
7D005F1000
7D00BF0210
3F77DF6C20
08EB2CE600
0000000000
006D000000
0001000000
ENDCHAR
STARTCHAR uni1EAD
ENCODING 7853
SWIDTH 470 0
DWIDTH 4 0
BBX 6 13 0 -3
BITMAP
002400
00CD00
05AC20
0A4A30
000000
07E700
4E7D00
996A11
A9CAA4
5E7D80
000000
0D5000
010000
ENDCHAR
STARTCHAR uni1EAE
ENCODING 7854
SWIDTH 786 0
DWIDTH 7 0
BBX 9 12 0 0
BITMAP
000004C000
0003848300
0001DFC100
0018DFD500
01CD656200
09C10A8000
1F400E6000
5E002F3000
7D005F1000
7D00BF0210
3F77DF6C20
08EB2CE600
ENDCHAR
STARTCHAR uni1EAF
ENCODING 7855
SWIDTH 470 0
DWIDTH 4 0
BBX 6 9 0 0
BITMAP
001B40
093680
09FF50
001000
07E700
4E7D00
996A11
A9CAA4
5E7D80
ENDCHAR
STARTCHAR uni1EB0
ENCODING 7856
SWIDTH 786 0
DWIDTH 7 0
BBX 9 12 0 0
BITMAP
0000970000
0003846300
0001DFC100
0018DFD500
01CD656200
09C10A8000
1F400E6000
5E002F3000
7D005F1000
7D00BF0210
3F77DF6C20
08EB2CE600
ENDCHAR
STARTCHAR uni1EB1
ENCODING 7857
SWIDTH 470 0
DWIDTH 4 0
BBX 6 9 0 0
BITMAP
03C100
094470
08FE50
001000
07E700
4E7D00
996A11
A9CAA4
5E7D80
ENDCHAR
STARTCHAR uni1EB2
ENCODING 7858
SWIDTH 786 0
DWIDTH 7 0
BBX 9 13 0 0
BITMAP
00003E5000
00001E6000
0004B2A500
0001CFB100
0018DFE500
01CD656200
09C10A8000
1F400E6000
5E002F3000
7D005F1000
7D00BF0210
3F77DF6C20
08EB2CE600
ENDCHAR
STARTCHAR uni1EB3
ENCODING 7859
SWIDTH 470 0
DWIDTH 4 0
BBX 6 10 0 0
BITMAP
00CB00
019B10
0D45A0
07FE40
001100
07E700
4E7D00
996A11
A9CAA4
5E7D80
ENDCHAR
STARTCHAR uni1EB4
ENCODING 7860
SWIDTH 786 0
DWIDTH 7 0
BBX 9 13 0 0
BITMAP
00009A6500
0000638100
0003908400
0001CFB100
0018DFD500
01CD656200
09C10A8000
1F400E6000
5E002F3000
7D005F1000
7D00BF0210
3F77DF6C20
08EB2CE600
ENDCHAR
STARTCHAR uni1EB5
ENCODING 7861
SWIDTH 470 0
DWIDTH 4 0
BBX 6 10 0 0
BITMAP
04C590
052830
0B2390
08FE40
001000
07E700
4E7D00
996A11
A9CAA4
5E7D80
ENDCHAR
STARTCHAR uni1EB6
ENCODING 7862
SWIDTH 786 0
DWIDTH 7 0
BBX 9 14 0 -3
BITMAP
0003918400
0001DFC100
0018DFD500
01CD656200
09C10A8000
1F400E6000
5E002F3000
7D005F1000
7D00BF0210
3F77DF6C20
08EB2CE600
0000000000
006D000000
0001000000
ENDCHAR
STARTCHAR uni1EB7
ENCODING 7863
SWIDTH 470 0
DWIDTH 4 0
BBX 6 12 0 -3
BITMAP
030030
0D46A0
07FE30
001100
07E700
4E7D00
996A11
A9CAA4
5E7D80
000000
0D5000
010000
ENDCHAR
STARTCHAR uni1EB8
ENCODING 7864
SWIDTH 686 0
DWIDTH 6 0
BBX 8 12 0 -3
BITMAP
008EE900
08E43E40
0C800C60
0AB10710
04FF3000
4E730000
AA000000
8E5236B3
18DFEC70
00000000
007C0000
00010000
ENDCHAR
STARTCHAR uni1EB9
ENCODING 7865
SWIDTH 393 0
DWIDTH 4 0
BBX 5 8 0 -3
BITMAP
0BE300
7B9700
ABC230
9D4A80
2CE910
000000
0A8000
010000
ENDCHAR
STARTCHAR uni1EBA
ENCODING 7866
SWIDTH 686 0
DWIDTH 6 0
BBX 8 12 0 0
BITMAP
0006E500
00017900
0002F500
008EF900
08E43E40
0C800C60
0AB10710
04FF3000
4E730000
AA000000
8E5236B3
18DFEC70
ENDCHAR
STARTCHAR uni1EBB
ENCODING 7867
SWIDTH 393 0
DWIDTH 4 0
BBX 5 9 0 0
BITMAP
04E600
015B00
00E600
001000
0BE300
7B9700
ABC230
9D4A80
2CE910
ENDCHAR
STARTCHAR uni1EBC
ENCODING 7868
SWIDTH 686 0
DWIDTH 6 0
BBX 8 11 0 0
BITMAP
002D7840
0087AC10
008EE900
08E43E40
0C800C60
0AB10710
04FF3000
4E730000
AA000000
8E5236B3
18DFEC70
ENDCHAR
STARTCHAR uni1EBD
ENCODING 7869
SWIDTH 393 0
DWIDTH 4 0
BBX 5 8 0 0
BITMAP
1D8660
579D10
000000
0BE300
7B9700
ABC230
9D4A80
2CE910
ENDCHAR
STARTCHAR uni1EBE
ENCODING 7870
SWIDTH 686 0
DWIDTH 6 0
BBX 8 13 0 0
BITMAP
00000050
000006A0
0006D400
002C4A00
008EE900
08E43E40
0C800C60
0AB10710
04FF3000
4E730000
AA000000
8E5236B3
18DFEC70
ENDCHAR
STARTCHAR uni1EBF
ENCODING 7871
SWIDTH 393 0
DWIDTH 4 0
BBX 6 10 0 0
BITMAP
000051
0004B1
04D600
0C3B00
000000
0BE300
7B9700
ABC230
9D4A80
2CE910
ENDCHAR
STARTCHAR uni1EC0
ENCODING 7872
SWIDTH 686 0
DWIDTH 6 0
BBX 8 13 0 0
BITMAP
00500000
00A60000
0006D400
002C4A00
008EE900
08E43E40
0C800C60
0AB10710
04FF3000
4E730000
AA000000
8E5236B3
18DFEC70
ENDCHAR
STARTCHAR uni1EC1
ENCODING 7873
SWIDTH 393 0
DWIDTH 4 0
BBX 5 10 0 0
BITMAP
500000
880000
04D600
0C3B00
000000
0BE300
7B9700
ABC230
9D4A80
2CE910
ENDCHAR
STARTCHAR uni1EC2
ENCODING 7874
SWIDTH 686 0
DWIDTH 6 0
BBX 8 12 0 0
BITMAP
000008D0
000001B2
0005E9D0
00AFFF10
08E53F40
0C800C60
0AB10710
04FF3000
4E730000
AA000000
8E5236B3
18DFEC70
ENDCHAR
STARTCHAR uni1EC3
ENCODING 7875
SWIDTH 393 0
DWIDTH 4 0
BBX 6 9 0 0
BITMAP
0007E1
000194
04E9E1
0D8C10
0BE400
7B9700
ABC230
9D4A80
2CE910
ENDCHAR
STARTCHAR uni1EC4
ENCODING 7876
SWIDTH 686 0
DWIDTH 6 0
BBX 8 13 0 0
BITMAP
000BA930
00056700
0008E600
002C4A00
008EE900
08E43E40
0C800C60
0AB10710
04FF3000
4E730000
AA000000
8E5236B3
18DFEC70
ENDCHAR
STARTCHAR uni1EC5
ENCODING 7877
SWIDTH 393 0
DWIDTH 4 0
BBX 5 10 0 0
BITMAP
09B850
065800
06E800
0D3C00
000000
0BE300
7B9700
ABC230
9D4A80
2CE910
ENDCHAR
STARTCHAR uni1EC6
ENCODING 7878
SWIDTH 686 0
DWIDTH 6 0
BBX 8 15 0 -3
BITMAP
0004E300
000CC900
003C3B00
008EE900
08E43E40
0C800C60
0AB10710
04FF3000
4E730000
AA000000
8E5236B3
18DFEC70
00000000
007C0000
00010000
ENDCHAR
STARTCHAR uni1EC7
ENCODING 7879
SWIDTH 393 0
DWIDTH 4 0
BBX 5 13 0 -3
BITMAP
005200
03E800
0A7B00
1C1C00
000000
0BE300
7B9700
ABC230
9D4A80
2CE910
000000
0A8000
010000
ENDCHAR
STARTCHAR uni1EC8
ENCODING 7880
SWIDTH 495 0
DWIDTH 4 0
BBX 6 12 -1 0
BITMAP
0008E3
000197
0004F3
00EFFD
002D81
000E50
001F30
003F10
005E00
007C00
01AB10
1FFFD0
ENDCHAR
STARTCHAR uni1EC9
ENCODING 7881
SWIDTH 246 0
DWIDTH 2 0
BBX 4 9 0 0
BITMAP
3E80
04C0
0D70
0100
2C00
6B00
8912
8AB4
4E70
ENDCHAR
STARTCHAR uni1ECA
ENCODING 7882
SWIDTH 495 0
DWIDTH 4 0
BBX 6 12 -1 -3
BITMAP
00EFFD
002D81
000E50
001F30
003F10
005E00
007C00
01AB10
1FFFD0
000000
00C700
001000
ENDCHAR
STARTCHAR uni1ECB
ENCODING 7883
SWIDTH 246 0
DWIDTH 2 0
BBX 4 10 0 -3
BITMAP
1D50
0100
2C00
6B00
8912
8AB4
4E70
0000
B700
1000
ENDCHAR
STARTCHAR uni1ECC
ENCODING 7884
SWIDTH 816 0
DWIDTH 7 0
BBX 8 12 0 -3
BITMAP
005DEA10
05E63DA0
0D7005F1
3F2003F2
5E0003F2
6E0005E0
4F100BA0
1DA38E20
03CEB300
00000000
006D0000
00010000
ENDCHAR
STARTCHAR uni1ECD
ENCODING 7885
SWIDTH 451 0
DWIDTH 4 0
BBX 6 8 0 -3
BITMAP
1BE400
7BBC20
A76FF3
9A7B10
2DD200
000000
0C7000
010000
ENDCHAR
STARTCHAR uni1ECE
ENCODING 7886
SWIDTH 816 0
DWIDTH 7 0
BBX 8 12 0 0
BITMAP
0004E700
00015B00
0000E700
005DFA10
05E63DA0
0D7005F1
3F2003F2
5E0003F2
6E0005E0
4F100BA0
1DA38E20
03CEB300
ENDCHAR
STARTCHAR uni1ECF
ENCODING 7887
SWIDTH 451 0
DWIDTH 4 0
BBX 6 9 0 0
BITMAP
04E600
015A00
01F500
001000
1BE400
7BBC20
A76FF3
9A7B10
2DD200
ENDCHAR
STARTCHAR uni1ED0
ENCODING 7888
SWIDTH 816 0
DWIDTH 7 0
BBX 8 13 0 0
BITMAP
00000051
000004B1
0004D600
000C3C00
005DEA10
05E63DA0
0D7005F1
3F2003F2
5E0003F2
6E0005E0
4F100BA0
1DA38E20
03CEB300
ENDCHAR
STARTCHAR uni1ED1
ENCODING 7889
SWIDTH 451 0
DWIDTH 4 0
BBX 6 10 0 0
BITMAP
000050
0005B1
04D600
1C3B00
000000
1BE400
7BBC20
A76FF3
9A7B10
2DD200
ENDCHAR
STARTCHAR uni1ED2
ENCODING 7890
SWIDTH 816 0
DWIDTH 7 0
BBX 8 13 0 0
BITMAP
00500000
00880000
0004D600
000C3C00
005DEA10
05E63DA0
0D7005F1
3F2003F2
5E0003F2
6E0005E0
4F100BA0
1DA38E20
03CEB300
ENDCHAR
STARTCHAR uni1ED3
ENCODING 7891
SWIDTH 451 0
DWIDTH 4 0
BBX 6 10 0 0
BITMAP
500000
980000
04D600
1C3B00
000000
1BE400
7BBC20
A76FF3
9A7B10
2DD200
ENDCHAR
STARTCHAR uni1ED4
ENCODING 7892
SWIDTH 816 0
DWIDTH 7 0
BBX 8 12 0 0
BITMAP
000006E2
00000194
0003E9E1
005FFF20
05E63DA0
0D7005F1
3F2003F2
5E0003F2
6E0005E0
4F100BA0
1DA38E20
03CEB300
ENDCHAR
STARTCHAR uni1ED5
ENCODING 7893
SWIDTH 451 0
DWIDTH 4 0
BBX 6 9 0 0
BITMAP
0007D1
000193
04E9E1
1D8C10
1CE500
7BBC20
A76FF3
9A7B10
2DD200
ENDCHAR
STARTCHAR uni1ED6
ENCODING 7894
SWIDTH 816 0
DWIDTH 7 0
BBX 8 13 0 0
BITMAP
0009B750
00065800
0006E800
000D3C00
005DEA10
05E63DA0
0D7005F1
3F2003F2
5E0003F2
6E0005E0
4F100BA0
1DA38E20
03CEB300
ENDCHAR
STARTCHAR uni1ED7
ENCODING 7895
SWIDTH 451 0
DWIDTH 4 0
BBX 6 10 0 0
BITMAP
09B840
065800
06E700
1D3B00
000000
1BE400
7BBC20
A76FF3
9A7B10
2DD200
ENDCHAR
STARTCHAR uni1ED8
ENCODING 7896
SWIDTH 816 0
DWIDTH 7 0
BBX 8 15 0 -3
BITMAP
0002D500
000ACB00
001D2C00
005DEA10
05E63DA0
0D7005F1
3F2003F2
5E0003F2
6E0005E0
4F100BA0
1DA38E20
03CEB300
00000000
006D0000
00010000
ENDCHAR
STARTCHAR uni1ED9
ENCODING 7897
SWIDTH 451 0
DWIDTH 4 0
BBX 6 13 0 -3
BITMAP
005100
03E700
0B7A00
1C1B00
000000
1BE400
7BBC20
A76FF3
9A7B10
2DD200
000000
0C7000
010000
ENDCHAR
STARTCHAR uni1EDA
ENCODING 7898
SWIDTH 816 0
DWIDTH 7 0
BBX 8 12 0 0
BITMAP
00000240
00002DA4
0000B68A
005DFFF4
05E63DB0
0D7005F1
3F2003F2
5E0003F2
6E0005E0
4F100B90
1DA38E20
03CEB300
ENDCHAR
STARTCHAR uni1EDB
ENCODING 7899
SWIDTH 451 0
DWIDTH 4 0
BBX 6 9 0 0
BITMAP
004B00
00A600
01A230
000860
1BFD10
7BBB20
A76FF3
9A7B10
2DD200
ENDCHAR
STARTCHAR uni1EDC
ENCODING 7900
SWIDTH 816 0
DWIDTH 7 0
BBX 8 12 0 0
BITMAP
00500000
00DB0014
0019708A
005DFFF4
05E63DB0
0D7005F1
3F2003F2
5E0003F2
6E0005E0
4F100B90
1DA38E20
03CEB300
ENDCHAR
STARTCHAR uni1EDD
ENCODING 7901
SWIDTH 451 0
DWIDTH 4 0
BBX 6 10 0 0
BITMAP
230000
5C0000
0D3000
046230
000860
1BFD10
7BBB20
A76FF3
9A7B10
2DD200
ENDCHAR
STARTCHAR uni1EDE
ENCODING 7902
SWIDTH 816 0
DWIDTH 7 0
BBX 8 12 0 0
BITMAP
0004E700
00015B14
0000E78A
005DFFF4
05E63DB0
0D7005F1
3F2003F2
5E0003F2
6E0005E0
4F100B90
1DA38E20
03CEB300
ENDCHAR
STARTCHAR uni1EDF
ENCODING 7903
SWIDTH 451 0
DWIDTH 4 0
BBX 6 9 0 0
BITMAP
07E300
018700
03F530
001860
1BFD10
7BBB20
A76FF3
9A7B10
2DD200
ENDCHAR
STARTCHAR uni1EE0
ENCODING 7904
SWIDTH 816 0
DWIDTH 7 0
BBX 8 11 0 0
BITMAP
001D9684
00589D9A
005DFFF4
05E63DB0
0D7005F1
3F2003F2
5E0003F2
6E0005E0
4F100B90
1DA38E20
03CEB300
ENDCHAR
STARTCHAR uni1EE1
ENCODING 7905
SWIDTH 451 0
DWIDTH 4 0
BBX 6 8 0 0
BITMAP
1D5A00
57B930
000860
1BFD10
7BBB10
A76FF3
9A7B00
2DD200
ENDCHAR
STARTCHAR uni1EE2
ENCODING 7906
SWIDTH 816 0
DWIDTH 7 0
BBX 8 14 0 -3
BITMAP
00000014
0000008A
005DFFF4
05E63DB0
0D7005F1
3F2003F2
5E0003F2
6E0005E0
4F100B90
1DA38E20
03CEB300
00000000
006D0000
00010000
ENDCHAR
STARTCHAR uni1EE3
ENCODING 7907
SWIDTH 451 0
DWIDTH 4 0
BBX 6 10 0 -3
BITMAP
000230
000860
1BFD10
7BBB20
A76FF3
9A7B10
2DD200
000000
0C7000
010000
ENDCHAR
STARTCHAR uni1EE4
ENCODING 7908
SWIDTH 890 0
DWIDTH 8 0
BBX 10 12 0 -3
BITMAP
1BE4009600
B6C800D700
50C700F500
00E503F300
02F207F100
05E00CE000
07C04CD021
07E6C7E7D1
02DD42DE50
0000000000
000D600000
0001000000
ENDCHAR
STARTCHAR uni1EE5
ENCODING 7909
SWIDTH 462 0
DWIDTH 4 0
BBX 6 8 0 -3
BITMAP
2C1C00
6B5B00
89A911
8CE9B3
4D6E60
000000
0B8000
010000
ENDCHAR
STARTCHAR uni1EE6
ENCODING 7910
SWIDTH 890 0
DWIDTH 8 0
BBX 10 12 0 0
BITMAP
0000CD1000
00002C3000
00008D1000
1BE4119600
B6C800D700
50C700F500
00E503F300
02F207F100
05E00CE000
07C04CD021
07E6C7E7D1
02DD42DE50
ENDCHAR
STARTCHAR uni1EE7
ENCODING 7911
SWIDTH 462 0
DWIDTH 4 0
BBX 6 9 0 0
BITMAP
01EA00
003D00
00BA00
001000
2C1C00
6B5B00
89A911
8CE9B3
4D6E60
ENDCHAR
STARTCHAR uni1EE8
ENCODING 7912
SWIDTH 890 0
DWIDTH 8 0
BBX 10 12 0 0
BITMAP
0000005000
000009E250
00005A25D0
1BE4009F70
B6C800D800
50C700F500
00E503F300
02F207F100
05E00CE000
07C04CD021
07E6C7E7D1
02DD42DE50
ENDCHAR
STARTCHAR uni1EE9
ENCODING 7913
SWIDTH 512 0
DWIDTH 5 0
BBX 6 9 0 0
BITMAP
000B30
003D10
008340
0001D1
2C1E80
6B5C00
89A903
8CE969
4D6EA1
ENDCHAR
STARTCHAR uni1EEA
ENCODING 7914
SWIDTH 890 0
DWIDTH 8 0
BBX 10 12 0 0
BITMAP
0033000000
006E400050
0005C005D0
1BE4009F70
B6C800D800
50C700F500
00E503F300
02F207F100
05E00CE000
07C04CD021
07E6C7E7D1
02DD42DE50
ENDCHAR
STARTCHAR uni1EEB
ENCODING 7915
SWIDTH 512 0
DWIDTH 5 0
BBX 6 10 0 0
BITMAP
050000
0D4000
06A000
00A040
0001D1
2C1E80
6B5C00
89A903
8CE969
4D6EA1
ENDCHAR
STARTCHAR uni1EEC
ENCODING 7916
SWIDTH 890 0
DWIDTH 8 0
BBX 10 12 0 0
BITMAP
0000CD1000
00002C3050
00008D15D0
1BE4119F70
B6C800D800
50C700F500
00E503F300
02F207F100
05E00CE000
07C04CD021
07E6C7E7D1
02DD42DE50
ENDCHAR
STARTCHAR uni1EED
ENCODING 7917
SWIDTH 512 0
DWIDTH 5 0
BBX 6 9 0 0
BITMAP
01EA00
003D00
00BA40
0011D1
2C1E80
6B5C00
89A903
8CE969
4D6EA1
ENDCHAR
STARTCHAR uni1EEE
ENCODING 7918
SWIDTH 890 0
DWIDTH 8 0
BBX 10 11 0 0
BITMAP
0007D3C050
000C5D75D0
1BE4009F70
B6C800D800
50C700F500
00E503F300
02F207F100
05E00CE000
07C04CD021
07E6C7E7D1
02DD42DE50
ENDCHAR
STARTCHAR uni1EEF
ENCODING 7919
SWIDTH 512 0
DWIDTH 5 0
BBX 6 8 0 0
BITMAP
07B650
0A6D50
0001D1
2C1E80
6B5C00
89A903
8CE969
4D6EA1
ENDCHAR
STARTCHAR uni1EF0
ENCODING 7920
SWIDTH 890 0
DWIDTH 8 0
BBX 10 14 0 -3
BITMAP
0000000050
00000005D0
1BE4009F70
B6C800D800
50C700F500
00E503F300
02F207F100
05E00CE000
07C04CD021
07E6C7E7D1
02DD42DE50
0000000000
000D600000
0001000000
ENDCHAR
STARTCHAR uni1EF1
ENCODING 7921
SWIDTH 512 0
DWIDTH 5 0
BBX 6 10 0 -3
BITMAP
000040
0001D1
2C1E80
6B5C00
89A903
8CE969
4D6EA1
000000
0B8000
010000
ENDCHAR
STARTCHAR Ygrave
ENCODING 7922
SWIDTH 851 0
DWIDTH 8 0
BBX 9 16 0 -4
BITMAP
0024000000
005F500000
0003C10000
1BE4009600
B6C800D700
70C700E500
00E603F400
02F307F200
04F10CF000
03F27BD000
00CFB9EC80
0007DDB200
006B1B6000
00B64E1000
008FE50000
0002000000
ENDCHAR
STARTCHAR ygrave
ENCODING 7923
SWIDTH 479 0
DWIDTH 4 0
BBX 6 15 0 -5
BITMAP
050000
0D4000
06A000
00A000
000000
2C1D00
6B5C00
88AA21
8CEBD2
4DBD30
04F400
3CE100
B5C000
D97000
BC1000
ENDCHAR
STARTCHAR uni1EF4
ENCODING 7924
SWIDTH 851 0
DWIDTH 8 0
BBX 9 13 0 -4
BITMAP
1BE4009600
B6C800D700
70C700E500
00E603F400
02F307F200
04F10CF000
03F27BD000
00CFB9EC80
0007DDB200
006B1B6000
00B64E1000
008FE5C700
0002001000
ENDCHAR
STARTCHAR uni1EF5
ENCODING 7925
SWIDTH 479 0
DWIDTH 4 0
BBX 6 10 0 -5
BITMAP
2C1D00
6B5C00
88AA21
8CEBD2
4DBD30
04F400
3CE100
B5C000
D9AE10
BC1100
ENDCHAR
STARTCHAR uni1EF6
ENCODING 7926
SWIDTH 851 0
DWIDTH 8 0
BBX 9 16 0 -4
BITMAP
0000AD2000
00002A5000
00006E1000
1BE4119600
B6C800D700
70C700E500
00E603F400
02F307F200
04F10CF000
03F27BD000
00CFB9EC80
0007DDB200
006B1B6000
00B64E1000
008FE50000
0002000000
ENDCHAR
STARTCHAR uni1EF7
ENCODING 7927
SWIDTH 479 0
DWIDTH 4 0
BBX 6 14 0 -5
BITMAP
01EA00
003D00
00BA00
001000
2C1D00
6B5C00
88AA21
8CEBD2
4DBD30
04F400
3CE100
B5C000
D97000
BC1000
ENDCHAR
STARTCHAR uni1EF8
ENCODING 7928
SWIDTH 851 0
DWIDTH 8 0
BBX 9 15 0 -4
BITMAP
0005D4C100
000B5C9000
1BE4009600
B6C800D700
70C700E500
00E603F400
02F307F200
04F10CF000
03F27BD000
00CFB9EC80
0007DDB200
006B1B6000
00B64E1000
008FE50000
0002000000
ENDCHAR
STARTCHAR uni1EF9
ENCODING 7929
SWIDTH 479 0
DWIDTH 4 0
BBX 6 13 0 -5
BITMAP
0AB490
1B6E40
000000
2C1D00
6B5C00
88AA21
8CEBD2
4DBD30
04F400
3CE100
B5C000
D97000
BC1000
ENDCHAR
STARTCHAR endash
ENCODING 8211
SWIDTH 484 0
DWIDTH 4 0
BBX 4 2 0 2
BITMAP
6FFE
0222
ENDCHAR
STARTCHAR emdash
ENCODING 8212
SWIDTH 620 0
DWIDTH 6 0
BBX 6 2 0 2
BITMAP
6FFFF2
022220
ENDCHAR
STARTCHAR quoteleft
ENCODING 8216
SWIDTH 237 0
DWIDTH 2 0
BBX 2 4 1 6
BITMAP
57
C6
F4
61
ENDCHAR
STARTCHAR quoteright
ENCODING 8217
SWIDTH 236 0
DWIDTH 2 0
BBX 2 4 1 6
BITMAP
88
C7
D2
50
ENDCHAR
STARTCHAR quotesinglbase
ENCODING 8218
SWIDTH 257 0
DWIDTH 2 0
BBX 2 4 0 -2
BITMAP
24
9B
B7
B1
ENDCHAR
STARTCHAR quotedblleft
ENCODING 8220
SWIDTH 457 0
DWIDTH 4 0
BBX 4 4 1 6
BITMAP
5757
C6C6
F5F4
6160
ENDCHAR
STARTCHAR quotedblright
ENCODING 8221
SWIDTH 456 0
DWIDTH 4 0
BBX 4 4 1 6
BITMAP
8898
C7C7
D2E2
5050
ENDCHAR
STARTCHAR quotedblbase
ENCODING 8222
SWIDTH 477 0
DWIDTH 4 0
BBX 4 4 0 -2
BITMAP
2434
9B9B
B7B7
B1B1
ENDCHAR
STARTCHAR dagger
ENCODING 8224
SWIDTH 588 0
DWIDTH 5 0
BBX 5 8 1 2
BITMAP
01C000
03C000
AFFF20
18A200
087000
0A5000
0C3000
050000
ENDCHAR
STARTCHAR daggerdbl
ENCODING 8225
SWIDTH 588 0
DWIDTH 5 0
BBX 6 8 0 2
BITMAP
001C00
003C00
0AFFF2
018920
1EFFC0
02B610
00C300
004000
ENDCHAR
STARTCHAR bullet
ENCODING 8226
SWIDTH 512 0
DWIDTH 5 0
BBX 4 3 0 1
BITMAP
0AE6
1FFA
0BE5
ENDCHAR
STARTCHAR ellipsis
ENCODING 8230
SWIDTH 777 0
DWIDTH 7 0
BBX 7 2 0 0
BITMAP
8A3D2C60
8B4E2D60
ENDCHAR
STARTCHAR perthousand
ENCODING 8240
SWIDTH 1277 0
DWIDTH 12 0
BBX 12 8 0 0
BITMAP
1CC109300000
68D56E100000
88AEF8000000
2CB3E1000000
000987E62DB1
002E2E3D96B4
00A82E3CA5B3
00C10AE44EA0
ENDCHAR
STARTCHAR guilsinglleft
ENCODING 8249
SWIDTH 350 0
DWIDTH 3 0
BBX 3 4 0 0
BITMAP
0890
9C20
7D20
0880
ENDCHAR
STARTCHAR guilsinglright
ENCODING 8250
SWIDTH 350 0
DWIDTH 3 0
BBX 3 4 0 0
BITMAP
6A00
1CA0
1AB0
7A10
ENDCHAR
STARTCHAR fraction
ENCODING 8260
SWIDTH 200 0
DWIDTH 2 0
BBX 4 7 -1 1
BITMAP
0005
004C
00C5
05C0
0D40
6B00
A300
ENDCHAR
STARTCHAR uni2074
ENCODING 8308
SWIDTH 450 0
DWIDTH 4 0
BBX 5 5 0 3
BITMAP
02C000
098B00
1E5A00
2DEE20
007600
ENDCHAR
STARTCHAR colonmonetary
ENCODING 8353
SWIDTH 517 0
DWIDTH 5 0
BBX 6 8 0 -1
BITMAP
006B91
0BEF90
4D9A80
7A9B30
8E8500
5EB750
4DFA10
981000
ENDCHAR
STARTCHAR franc
ENCODING 8355
SWIDTH 750 0
DWIDTH 7 0
BBX 7 6 0 0
BITMAP
3FFFE600
1F002D20
4FFDBF30
6A1EBB70
892F4000
761D0000
ENDCHAR
STARTCHAR lira
ENCODING 8356
SWIDTH 525 0
DWIDTH 5 0
BBX 5 6 0 0
BITMAP
04DE50
0E7680
9FF500
BFF300
5E4210
BFFF70
ENDCHAR
STARTCHAR uni20A6
ENCODING 8358
SWIDTH 672 0
DWIDTH 6 0
BBX 6 7 0 0
BITMAP
041033
0CA098
0EE3A6
9FFFFC
BFFFFB
5D29F2
4A01C0
ENDCHAR
STARTCHAR peseta
ENCODING 8359
SWIDTH 1085 0
DWIDTH 10 0
BBX 10 7 0 0
BITMAP
4DE50C1000
4F6E1F0000
3D0FFFF4D0
5B3E6B16C0
7DD6690CE4
9A206B7998
95002DB6E3
ENDCHAR
STARTCHAR uni20A9
ENCODING 8361
SWIDTH 775 0
DWIDTH 7 0
BBX 8 6 0 0
BITMAP
9FFFFFF2
1F3F6A80
AFFFFFF1
1E8E7E20
0DCAC800
0995D100
ENDCHAR
STARTCHAR dong
ENCODING 8363
SWIDTH 463 0
DWIDTH 4 0
BBX 5 10 0 -2
BITMAP
000A60
2FFFB0
022F30
08EE00
5E8C00
A87A00
A8C900
5EA700
DFFE00
222200
ENDCHAR
STARTCHAR Euro
ENCODING 8364
SWIDTH 552 0
DWIDTH 5 0
BBX 5 6 0 0
BITMAP
03CE70
0D85D0
AFF450
CFF200
2F6470
06ED30
ENDCHAR
STARTCHAR uni20AD
ENCODING 8365
SWIDTH 590 0
DWIDTH 5 0
BBX 6 6 0 0
BITMAP
0B32D1
0E3B50
AFFEC1
4C8B00
6B2F51
6808E5
ENDCHAR
STARTCHAR uni20AE
ENCODING 8366
SWIDTH 513 0
DWIDTH 5 0
BBX 5 6 0 0
BITMAP
4EFF90
03E410
06E600
19E800
0A9000
067000
ENDCHAR
STARTCHAR uni20B1
ENCODING 8369
SWIDTH 557 0
DWIDTH 5 0
BBX 6 7 0 0
BITMAP
047300
3FCE20
AFFFF1
DFFFF0
3FAD20
4D5100
4A0000
ENDCHAR
STARTCHAR uni20B2
ENCODING 8370
SWIDTH 599 0
DWIDTH 5 0
BBX 6 10 0 -2
BITMAP
001300
004600
06EE60
2EB8B0
7B9230
89A7E1
6DB6F1
0AFCE0
0190A0
013000
ENDCHAR
STARTCHAR uni20B4
ENCODING 8372
SWIDTH 570 0
DWIDTH 5 0
BBX 5 6 0 0
BITMAP
09EC20
193C60
5FFFC0
AFFFC0
3E5760
1CFC20
ENDCHAR
STARTCHAR uni20B5
ENCODING 8373
SWIDTH 517 0
DWIDTH 5 0
BBX 5 10 0 -2
BITMAP
003600
019900
0BEF70
4D8880
7A9210
89A000
5DB750
0AFB10
019000
013000
ENDCHAR
STARTCHAR uni20B8
ENCODING 8376
SWIDTH 522 0
DWIDTH 5 0
BBX 5 6 0 0
BITMAP
4EFF90
7FFF60
14D210
03B000
059000
057000
ENDCHAR
STARTCHAR uni20B9
ENCODING 8377
SWIDTH 511 0
DWIDTH 5 0
BBX 5 5 0 0
BITMAP
5DEDA0
7DFE80
AF8100
06E200
009E50
ENDCHAR
STARTCHAR uni20BA
ENCODING 8378
SWIDTH 452 0
DWIDTH 4 0
BBX 4 7 0 0
BITMAP
0510
0E62
0FB1
9FB2
7E20
8C3C
3EC3
ENDCHAR
STARTCHAR uni20BC
ENCODING 8380
SWIDTH 673 0
DWIDTH 6 0
BBX 6 8 0 0
BITMAP
000400
000A00
01BF90
0ABCE3
2F3997
7B3789
A85689
C46487
ENDCHAR
STARTCHAR uni20BD
ENCODING 8381
SWIDTH 505 0
DWIDTH 5 0
BBX 5 6 0 0
BITMAP
2DDA10
0D3C50
0F3E40
AFE800
CFF200
5A2000
ENDCHAR
STARTCHAR uni2116
ENCODING 8470
SWIDTH 1198 0
DWIDTH 11 0
BBX 11 9 0 0
BITMAP
04B3CE50BE30
08BD5AB4B890
0AE608B6A780
0CE00A92EE20
0D900C701100
0F600F4CFF30
2F302F212200
3F104F100000
3C003D000000
ENDCHAR
STARTCHAR trademark
ENCODING 8482
SWIDTH 1150 0
DWIDTH 10 0
BBX 9 4 1 4
BITMAP
DFF7AE7CB0
1D07C4E3D0
3A096593A0
580A266480
ENDCHAR
STARTCHAR partialdiff
ENCODING 8706
SWIDTH 451 0
DWIDTH 4 0
BBX 5 7 0 0
BITMAP
2D7000
01C700
004E00
1BDF10
892E00
986B00
3DC200
ENDCHAR
STARTCHAR product
ENCODING 8719
SWIDTH 700 0
DWIDTH 6 0
BBX 7 8 0 0
BITMAP
06EEEE10
0A823F00
0C504D00
0E306B00
1F108900
3E00A700
5C00C500
35007100
ENDCHAR
STARTCHAR summation
ENCODING 8721
SWIDTH 700 0
DWIDTH 6 0
BBX 7 9 0 -1
BITMAP
08EEEE20
04F52100
006E2000
0009C000
0009C000
009C1000
0AB10000
6FEEE400
02222000
ENDCHAR
STARTCHAR minus
ENCODING 8722
SWIDTH 700 0
DWIDTH 6 0
BBX 6 2 0 1
BITMAP
2EEEE8
022220
ENDCHAR
STARTCHAR uni2215
ENCODING 8725
SWIDTH 700 0
DWIDTH 6 0
BBX 5 9 1 0
BITMAP
000050
0007B0
001E30
008A00
01E300
099000
2E2000
A80000
D10000
ENDCHAR
STARTCHAR uni2219
ENCODING 8729
SWIDTH 700 0
DWIDTH 6 0
BBX 2 2 2 1
BITMAP
8D
12
ENDCHAR
STARTCHAR radical
ENCODING 8730
SWIDTH 700 0
DWIDTH 6 0
BBX 7 9 0 -1
BITMAP
00000240
00000970
00001E10
00007800
6E50D200
04A4A000
00DB4000
00AC0000
00230000
ENDCHAR
STARTCHAR infinity
ENCODING 8734
SWIDTH 700 0
DWIDTH 6 0
BBX 7 4 0 1
BITMAP
2DC8E800
978D2F10
A77D2F00
3EB9E700
ENDCHAR
STARTCHAR integral
ENCODING 8747
SWIDTH 700 0
DWIDTH 6 0
BBX 6 11 0 -3
BITMAP
0004DD
000C70
000E30
001F10
003E00
005D00
007B00
009900
00B700
01E400
6EA000
ENDCHAR
STARTCHAR approxequal
ENCODING 8776
SWIDTH 700 0
DWIDTH 6 0
BBX 6 5 0 0
BITMAP
026105
0D9DAA
150271
1CC477
593BD2
ENDCHAR
STARTCHAR notequal
ENCODING 8800
SWIDTH 700 0
DWIDTH 6 0
BBX 6 6 0 -1
BITMAP
000490
1DEFEA
016B10
4EFEE6
05B110
001000
ENDCHAR
STARTCHAR lessequal
ENCODING 8804
SWIDTH 700 0
DWIDTH 6 0
BBX 6 6 0 -1
BITMAP
00159A
1BD841
08DC82
000274
4EEEE6
022220
ENDCHAR
STARTCHAR greaterequal
ENCODING 8805
SWIDTH 700 0
DWIDTH 6 0
BBX 6 6 0 -1
BITMAP
0AA510
015AE8
16ADA4
284000
4EEEE6
022220
ENDCHAR
STARTCHAR lozenge
ENCODING 9674
SWIDTH 700 0
DWIDTH 6 0
BBX 5 9 1 0
BITMAP
004200
01E900
098D00
2D1B40
A60780
950C40
4A5A00
0DD200
098000
ENDCHAR
STARTCHAR fi
ENCODING 64257
SWIDTH 633 0
DWIDTH 6 0
BBX 7 14 0 -4
BITMAP
005E2000
01D96000
05B94000
097C8C00
0DD50100
AFFFF300
3F32E300
3E76F120
4D77F5B0
5D65CC20
4D740000
2F910000
0DB00000
01000000
ENDCHAR
STARTCHAR fl
ENCODING 64258
SWIDTH 688 0
DWIDTH 6 0
BBX 8 14 0 -4
BITMAP
008D1AC0
03DB7BD1
097BB6C1
0D4CD3D0
1F86F590
4EB3EB30
6E14FA00
7BEFE112
8B93F4B3
89A09E70
79A00000
6BA00000
2F700000
01000000
ENDCHAR
STARTCHAR .notdef
ENCODING -1
SWIDTH 265 0
DWIDTH 2 0
BBX 1 1 0 0
BITMAP
00
ENDCHAR
STARTCHAR Iacute_J.loclNLD
ENCODING -1
SWIDTH 776 0
DWIDTH 7 0
BBX 9 12 0 0
BITMAP
0002400330
002E804E60
00B600C400
0790068000
0AA00A9000
0C800C8000
0E602F7000
0E83CE5000
09FF7E3000
00323F1000
1B43C90000
09EE910000
ENDCHAR
STARTCHAR A.ss01
ENCODING -1
SWIDTH 780 0
DWIDTH 7 0
BBX 8 9 0 0
BITMAP
0018DED4
01CC5440
09C10A90
1F400D60
5F002F30
7D005F10
7D00AE00
4F56ED00
08EC7B00
ENDCHAR
STARTCHAR Aacute.ss01
ENCODING -1
SWIDTH 780 0
DWIDTH 7 0
BBX 8 12 0 0
BITMAP
00000024
000002D9
00000B60
0018DED4
01CC5440
09C10A90
1F400D60
5F002F30
7D005F10
7D00AE00
4F56ED00
08EC7B00
ENDCHAR
STARTCHAR Abreve.ss01
ENCODING -1
SWIDTH 780 0
DWIDTH 7 0
BBX 8 11 0 0
BITMAP
00039184
0001DFC1
0018DFD4
01CC5440
09C10A90
1F400D60
5F002F30
7D005F10
7D00AE00
4F56ED00
08EC7B00
ENDCHAR
STARTCHAR uni1EAE.ss01
ENCODING -1
SWIDTH 780 0
DWIDTH 7 0
BBX 8 12 0 0
BITMAP
000004C0
00038483
0001DFC1
0018DFD4
01CC5440
09C10A90
1F400D60
5F002F30
7D005F10
7D00AE00
4F56ED00
08EC7B00
ENDCHAR
STARTCHAR uni1EB6.ss01
ENCODING -1
SWIDTH 780 0
DWIDTH 7 0
BBX 8 14 0 -3
BITMAP
00039184
0001DFC1
0018DFD4
01CC5440
09C10A90
1F400D60
5F002F30
7D005F10
7D00AE00
4F56ED00
08EC7B00
00000000
006D0000
00010000
ENDCHAR
STARTCHAR uni1EB0.ss01
ENCODING -1
SWIDTH 780 0
DWIDTH 7 0
BBX 8 12 0 0
BITMAP
00009700
00038463
0001DFC1
0018DFD4
01CC5440
09C10A90
1F400D60
5F002F30
7D005F10
7D00AE00
4F56ED00
08EC7B00
ENDCHAR
STARTCHAR uni1EB2.ss01
ENCODING -1
SWIDTH 780 0
DWIDTH 7 0
BBX 8 13 0 0
BITMAP
00003E50
00001E60
0004B2A5
0001CFB1
0018DFD4
01CC5440
09C10A90
1F400D60
5F002F30
7D005F10
7D00AE00
4F56ED00
08EC7B00
ENDCHAR
STARTCHAR uni1EB4.ss01
ENCODING -1
SWIDTH 780 0
DWIDTH 7 0
BBX 8 13 0 0
BITMAP
00009A65
00006381
00039084
0001CFB1
0018DFD4
01CC5440
09C10A90
1F400D60
5F002F30
7D005F10
7D00AE00
4F56ED00
08EC7B00
ENDCHAR
STARTCHAR Acircumflex.ss01
ENCODING -1
SWIDTH 780 0
DWIDTH 7 0
BBX 8 12 0 0
BITMAP
00002D50
0000BCB0
0001D2C0
0018DED4
01CC5440
09C10A90
1F400D60
5F002F30
7D005F10
7D00AE00
4F56ED00
08EC7B00
ENDCHAR
STARTCHAR uni1EA4.ss01
ENCODING -1
SWIDTH 780 0
DWIDTH 7 0
BBX 9 13 0 0
BITMAP
0000000510
0000004B10
00004D6000
0000C3B000
0018DED400
01CC544000
09C10A9000
1F400D6000
5F002F3000
7D005F1000
7D00AE0000
4F56ED0000
08EC7B0000
ENDCHAR
STARTCHAR uni1EAC.ss01
ENCODING -1
SWIDTH 780 0
DWIDTH 7 0
BBX 8 15 0 -3
BITMAP
00002D50
0000BCB0
0001D2C0
0018DED4
01CC5440
09C10A90
1F400D60
5F002F30
7D005F10
7D00AE00
4F56ED00
08EC7B00
00000000
006D0000
00010000
ENDCHAR
STARTCHAR uni1EA6.ss01
ENCODING -1
SWIDTH 780 0
DWIDTH 7 0
BBX 8 13 0 0
BITMAP
00050000
00088000
00004D60
0000C3B0
0018DED4
01CC5440
09C10A90
1F400D60
5F002F30
7D005F10
7D00AE00
4F56ED00
08EC7B00
ENDCHAR
STARTCHAR uni1EA8.ss01
ENCODING -1
SWIDTH 780 0
DWIDTH 7 0
BBX 9 12 0 0
BITMAP
0000007E10
0000001940
00004E9E10
0018FFF600
01CC645000
09C10A9000
1F400D6000
5F002F3000
7D005F1000
7D00AE0000
4F56ED0000
08EC7B0000
ENDCHAR
STARTCHAR uni1EAA.ss01
ENCODING -1
SWIDTH 780 0
DWIDTH 7 0
BBX 8 13 0 0
BITMAP
00009B85
00006580
00006E80
0000D3C0
0018DED4
01CC5440
09C10A90
1F400D60
5F002F30
7D005F10
7D00AE00
4F56ED00
08EC7B00
ENDCHAR
STARTCHAR uni0200.ss01
ENCODING -1
SWIDTH 780 0
DWIDTH 7 0
BBX 8 12 0 0
BITMAP
00023510
0005BB50
0000B470
0018DED4
01CC5440
09C10A90
1F400D60
5F002F30
7D005F10
7D00AE00
4F56ED00
08EC7B00
ENDCHAR
STARTCHAR Adieresis.ss01
ENCODING -1
SWIDTH 780 0
DWIDTH 7 0
BBX 8 10 0 0
BITMAP
0001D4D0
0018EFE4
01CC5440
09C10A90
1F400D60
5F002F30
7D005F10
7D00AE00
4F56ED00
08EC7B00
ENDCHAR
STARTCHAR uni1EA0.ss01
ENCODING -1
SWIDTH 780 0
DWIDTH 7 0
BBX 8 12 0 -3
BITMAP
0018DED4
01CC5440
09C10A90
1F400D60
5F002F30
7D005F10
7D00AE00
4F56ED00
08EC7B00
00000000
006D0000
00010000
ENDCHAR
STARTCHAR Agrave.ss01
ENCODING -1
SWIDTH 780 0
DWIDTH 7 0
BBX 8 12 0 0
BITMAP
00050000
000DA000
00019700
0018DED4
01CC5440
09C10A90
1F400D60
5F002F30
7D005F10
7D00AE00
4F56ED00
08EC7B00
ENDCHAR
STARTCHAR uni1EA2.ss01
ENCODING -1
SWIDTH 780 0
DWIDTH 7 0
BBX 8 12 0 0
BITMAP
00004E70
000015B0
00000E70
0018DFD4
01CC5440
09C10A90
1F400D60
5F002F30
7D005F10
7D00AE00
4F56ED00
08EC7B00
ENDCHAR
STARTCHAR uni0202.ss01
ENCODING -1
SWIDTH 780 0
DWIDTH 7 0
BBX 8 11 0 0
BITMAP
00009EA1
0004C3C5
0018DEE5
01CC5440
09C10A90
1F400D60
5F002F30
7D005F10
7D00AE00
4F56ED00
08EC7B00
ENDCHAR
STARTCHAR Amacron.ss01
ENCODING -1
SWIDTH 780 0
DWIDTH 7 0
BBX 8 10 0 0
BITMAP
0000EFB0
0018FFF4
01CC5440
09C10A90
1F400D60
5F002F30
7D005F10
7D00AE00
4F56ED00
08EC7B00
ENDCHAR
STARTCHAR Aogonek.ss01
ENCODING -1
SWIDTH 780 0
DWIDTH 7 0
BBX 8 13 0 -4
BITMAP
0018DED4
01CC5440
09C10A90
1F400D60
5F002F30
7D005F10
7D00AE00
4F56ED00
08EC9C00
0000C200
0001D000
0000DF30
00000200
ENDCHAR
STARTCHAR Aring.ss01
ENCODING -1
SWIDTH 780 0
DWIDTH 7 0
BBX 8 12 0 0
BITMAP
00004E60
000097B0
00007F60
0018DFD4
01CC5440
09C10A90
1F400D60
5F002F30
7D005F10
7D00AE00
4F56ED00
08EC7B00
ENDCHAR
STARTCHAR Aringacute.ss01
ENCODING -1
SWIDTH 780 0
DWIDTH 7 0
BBX 9 14 0 0
BITMAP
00000006A0
00004E7A20
000097B000
00006F7000
0000010000
0018DED400
01CC544000
09C10A9000
1F400D6000
5F002F3000
7D005F1000
7D00AE0000
4F56ED0000
08EC7B0000
ENDCHAR
STARTCHAR Atilde.ss01
ENCODING -1
SWIDTH 780 0
DWIDTH 7 0
BBX 8 11 0 0
BITMAP
0001D866
000689D1
0018DED4
01CC5440
09C10A90
1F400D60
5F002F30
7D005F10
7D00AE00
4F56ED00
08EC7B00
ENDCHAR
STARTCHAR AE.ss01
ENCODING -1
SWIDTH 1057 0
DWIDTH 10 0
BBX 10 9 0 0
BITMAP
0019E5DFF9
01DD66D221
0AC109A000
1F400D7000
5F001FFFE0
7D005F4210
7D00BF2000
3F56CEA343
07ED34CFD4
ENDCHAR
STARTCHAR AEacute.ss01
ENCODING -1
SWIDTH 1057 0
DWIDTH 10 0
BBX 10 12 0 0
BITMAP
0000000240
0000002D90
000000B600
0019E5DFF9
01DD66D221
0AC109A000
1F400D7000
5F001FFFE0
7D005F4210
7D00BF2000
3F56CEA343
07ED34CFD4
ENDCHAR
STARTCHAR B.ss01
ENCODING -1
SWIDTH 826 0
DWIDTH 7 0
BBX 8 9 0 0
BITMAP
03CEFC50
046339F2
04A001F4
08A02AD1
0B88FC20
0E515E70
1F300B90
2F438F50
2DFEC500
ENDCHAR
STARTCHAR C.ss01
ENCODING -1
SWIDTH 704 0
DWIDTH 6 0
BBX 7 9 0 0
BITMAP
005CE900
05E64F30
0D700E40
3F200700
5E000000
6E000000
4F100210
0DA35D30
03CFC400
ENDCHAR
STARTCHAR Cacute.ss01
ENCODING -1
SWIDTH 704 0
DWIDTH 6 0
BBX 7 12 0 0
BITMAP
00000240
00002D90
0000B600
005CE900
05E64F30
0D700E40
3F200700
5E000000
6E000000
4F100210
0DA35D30
03CFC400
ENDCHAR
STARTCHAR Ccaron.ss01
ENCODING -1
SWIDTH 704 0
DWIDTH 6 0
BBX 7 12 0 0
BITMAP
00050510
000B7C00
0003E300
005CE900
05E64F30
0D700E40
3F200700
5E000000
6E000000
4F100210
0DA35D30
03CFC400
ENDCHAR
STARTCHAR Ccedilla.ss01
ENCODING -1
SWIDTH 704 0
DWIDTH 6 0
BBX 7 13 0 -4
BITMAP
005CE900
05F64F30
0D700E40
3F200810
5E000000
6E000000
4F100110
0D912C30
02CFB300
001A6000
00096000
01FD1000
00200000
ENDCHAR
STARTCHAR Ccircumflex.ss01
ENCODING -1
SWIDTH 704 0
DWIDTH 6 0
BBX 7 12 0 0
BITMAP
0002D500
000BCB00
001D2C00
005CE900
05E64F30
0D700E40
3F200700
5E000000
6E000000
4F100210
0DA35D30
03CFC400
ENDCHAR
STARTCHAR Cdotaccent.ss01
ENCODING -1
SWIDTH 704 0
DWIDTH 6 0
BBX 7 10 0 0
BITMAP
0003E200
005DF900
05E64F30
0D700E40
3F200700
5E000000
6E000000
4F100210
0DA35D30
03CFC400
ENDCHAR
STARTCHAR D.ss01
ENCODING -1
SWIDTH 810 0
DWIDTH 7 0
BBX 8 9 0 0
BITMAP
04CFD700
04536E80
04A007E0
08A004F1
0B7004F1
0E5007E0
1F300D80
3F44BD10
2DFD9100
ENDCHAR
STARTCHAR uni01C4.ss01
ENCODING -1
SWIDTH 1455 0
DWIDTH 13 0
BBX 14 12 0 0
BITMAP
00000000014150
0000000002D960
00000000009B00
04CFD701DFFFE3
04536E802229F2
04A007E0002F80
08A004F100BD00
0B7004F106F400
0E5007E02E9000
1F300D80BE1000
3F44BD16F72200
2DFD910BFFFFB0
ENDCHAR
STARTCHAR Eth.ss01
ENCODING -1
SWIDTH 821 0
DWIDTH 7 0
BBX 8 9 0 0
BITMAP
00AFE800
00F55E90
03F005F1
07C002F3
AFFF62F2
1D8205E1
0F400CA0
2F44BD10
2DFD9100
ENDCHAR
STARTCHAR Dcaron.ss01
ENCODING -1
SWIDTH 810 0
DWIDTH 7 0
BBX 8 12 0 0
BITMAP
00050500
000D7900
0007C100
04CFD700
04536E80
04A007E0
08A004F1
0B7004F1
0E5007E0
1F300D80
3F44BD10
2DFD9100
ENDCHAR
STARTCHAR Dcroat.ss01
ENCODING -1
SWIDTH 821 0
DWIDTH 7 0
BBX 8 9 0 0
BITMAP
00AFE800
00F55E90
03F005F1
07C002F3
AFFF62F2
1D8205E1
0F400CA0
2F44BD10
2DFD9100
ENDCHAR
STARTCHAR E.ss01
ENCODING -1
SWIDTH 720 0
DWIDTH 6 0
BBX 7 9 0 0
BITMAP
019EE900
0AD44F40
0E600D50
0CA10710
04FF3000
3E730000
8C000110
7E536D30
09EFC400
ENDCHAR
STARTCHAR Eacute.ss01
ENCODING -1
SWIDTH 720 0
DWIDTH 6 0
BBX 7 12 0 0
BITMAP
00000320
00004F60
0001C400
019EE900
0AD44F40
0E600D50
0CA10710
04FF3000
3E730000
8C000110
7E536D30
09EFC400
ENDCHAR
STARTCHAR Ebreve.ss01
ENCODING -1
SWIDTH 720 0
DWIDTH 6 0
BBX 7 11 0 0
BITMAP
00671A10
003EFA00
019EF900
0AD44F40
0E600D50
0CA10710
04FF3000
3E730000
8C000110
7E536D30
09EFC400
ENDCHAR
STARTCHAR Ecaron.ss01
ENCODING -1
SWIDTH 720 0
DWIDTH 6 0
BBX 7 12 0 0
BITMAP
00050500
000D7A00
0006D100
019EE900
0AD44F40
0E600D50
0CA10710
04FF3000
3E730000
8C000110
7E536D30
09EFC400
ENDCHAR
STARTCHAR Ecircumflex.ss01
ENCODING -1
SWIDTH 720 0
DWIDTH 6 0
BBX 7 12 0 0
BITMAP
0004E200
000DC800
004B4A00
019EE900
0AD44F40
0E600D50
0CA10710
04FF3000
3E730000
8C000110
7E536D30
09EFC400
ENDCHAR
STARTCHAR uni1EBE.ss01
ENCODING -1
SWIDTH 720 0
DWIDTH 6 0
BBX 7 13 0 0
BITMAP
00000050
00000790
0007D300
002B5900
019EE900
0AD44F40
0E600D50
0CA10710
04FF3000
3E730000
8C000110
7E536D30
09EFC400
ENDCHAR
STARTCHAR uni1EC6.ss01
ENCODING -1
SWIDTH 720 0
DWIDTH 6 0
BBX 7 15 0 -3
BITMAP
0004E200
000DC800
004B4A00
019EE900
0AD44F40
0E600D50
0CA10710
04FF3000
3E730000
8C000110
7E536D30
09EFC400
00000000
00A90000
00100000
ENDCHAR
STARTCHAR uni1EC0.ss01
ENCODING -1
SWIDTH 720 0
DWIDTH 6 0
BBX 7 13 0 0
BITMAP
00500000
00A50000
0007D300
002B5900
019EE900
0AD44F40
0E600D50
0CA10710
04FF3000
3E730000
8C000110
7E536D30
09EFC400
ENDCHAR
STARTCHAR uni1EC2.ss01
ENCODING -1
SWIDTH 720 0
DWIDTH 6 0
BBX 8 12 0 0
BITMAP
00000AC0
000001C1
0006E9C0
01BFFF10
0AD44F40
0E600D50
0CA10710
04FF3000
3E730000
8C000110
7E536D30
09EFC400
ENDCHAR
STARTCHAR uni1EC4.ss01
ENCODING -1
SWIDTH 720 0
DWIDTH 6 0
BBX 7 13 0 0
BITMAP
000BAA20
00157600
0009E500
003B4900
019EE900
0AD44F40
0E600D50
0CA10710
04FF3000
3E730000
8C000110
7E536D30
09EFC400
ENDCHAR
STARTCHAR uni0204.ss01
ENCODING -1
SWIDTH 720 0
DWIDTH 6 0
BBX 7 12 0 0
BITMAP
00325000
0088E200
00297400
019EE900
0AD44F40
0E600D50
0CA10710
04FF3000
3E730000
8C000110
7E536D30
09EFC400
ENDCHAR
STARTCHAR Edieresis.ss01
ENCODING -1
SWIDTH 720 0
DWIDTH 6 0
BBX 7 10 0 0
BITMAP
003D5B00
019FEA00
0AD44F40
0E600D50
0CA10710
04FF3000
3E730000
8C000110
7E536D30
09EFC400
ENDCHAR
STARTCHAR Edotaccent.ss01
ENCODING -1
SWIDTH 720 0
DWIDTH 6 0
BBX 7 10 0 0
BITMAP
0006D000
019EF900
0AD44F40
0E600D50
0CA10710
04FF3000
3E730000
8C000110
7E536D30
09EFC400
ENDCHAR
STARTCHAR uni1EB8.ss01
ENCODING -1
SWIDTH 720 0
DWIDTH 6 0
BBX 7 12 0 -3
BITMAP
019EE900
0AD44F40
0E600D50
0CA10710
04FF3000
3E730000
8C000110
7E536D30
09EFC400
00000000
00A90000
00100000
ENDCHAR
STARTCHAR Egrave.ss01
ENCODING -1
SWIDTH 720 0
DWIDTH 6 0
BBX 7 12 0 0
BITMAP
01500000
02E80000
002B4000
019EE900
0AD44F40
0E600D50
0CA10710
04FF3000
3E730000
8C000110
7E536D30
09EFC400
ENDCHAR
STARTCHAR uni1EBA.ss01
ENCODING -1
SWIDTH 720 0
DWIDTH 6 0
BBX 7 12 0 0
BITMAP
0007E400
00018800
0003F400
019EF900
0AD44F40
0E600D50
0CA10710
04FF3000
3E730000
8C000110
7E536D30
09EFC400
ENDCHAR
STARTCHAR uni0206.ss01
ENCODING -1
SWIDTH 720 0
DWIDTH 6 0
BBX 7 11 0 0
BITMAP
001BE800
007A4E20
019EEA00
0AD44F40
0E600D50
0CA10710
04FF3000
3E730000
8C000110
7E536D30
09EFC400
ENDCHAR
STARTCHAR Emacron.ss01
ENCODING -1
SWIDTH 720 0
DWIDTH 6 0
BBX 7 10 0 0
BITMAP
002FF800
019FFA00
0AD44F40
0E600D50
0CA10710
04FF3000
3E730000
8C000110
7E536D30
09EFC400
ENDCHAR
STARTCHAR Eogonek.ss01
ENCODING -1
SWIDTH 720 0
DWIDTH 6 0
BBX 7 13 0 -4
BITMAP
019EE900
0AD44F40
0E600D50
0CA10710
04FF3000
3E730000
8C000110
7E536D40
09EFF700
001E2000
003D0000
000DF200
00001000
ENDCHAR
STARTCHAR uni1EBC.ss01
ENCODING -1
SWIDTH 720 0
DWIDTH 6 0
BBX 7 11 0 0
BITMAP
003E6930
0096BB00
019EE900
0AD44F40
0E600D50
0CA10710
04FF3000
3E730000
8C000110
7E536D30
09EFC400
ENDCHAR
STARTCHAR F.ss01
ENCODING -1
SWIDTH 671 0
DWIDTH 6 0
BBX 7 10 0 0
BITMAP
00000100
1FFFFF90
01E62100
01F30000
03F10000
5FFFF600
09C22000
0A900000
0C800000
0B500000
ENDCHAR
STARTCHAR G.ss01
ENCODING -1
SWIDTH 811 0
DWIDTH 7 0
BBX 7 12 0 -3
BITMAP
005CEB10
05F63D70
0D700A70
3F200520
5E000000
6E00AFB0
4F3018C0
0CC43AA0
01AEEE80
00000B60
00000D40
00000500
ENDCHAR
STARTCHAR Gbreve.ss01
ENCODING -1
SWIDTH 811 0
DWIDTH 7 0
BBX 7 14 0 -3
BITMAP
002A1660
000CFD20
005CFB10
05F63D70
0D700A70
3F200520
5E000000
6E00AFB0
4F3018C0
0CC43AA0
01AEEE80
00000B60
00000D40
00000500
ENDCHAR
STARTCHAR Gcaron.ss01
ENCODING -1
SWIDTH 811 0
DWIDTH 7 0
BBX 7 15 0 -3
BITMAP
00041420
00087D10
0002D500
005CEB10
05F63D70
0D700A70
3F200520
5E000000
6E00AFB0
4F3018C0
0CC43AA0
01AEEE80
00000B60
00000D40
00000500
ENDCHAR
STARTCHAR Gcircumflex.ss01
ENCODING -1
SWIDTH 811 0
DWIDTH 7 0
BBX 7 15 0 -3
BITMAP
0001D700
0008CD00
000D2D10
005CEB10
05F63D70
0D700A70
3F200520
5E000000
6E00AFB0
4F3018C0
0CC43AA0
01AEEE80
00000B60
00000D40
00000500
ENDCHAR
STARTCHAR uni0122.ss01
ENCODING -1
SWIDTH 811 0
DWIDTH 7 0
BBX 7 12 0 -3
BITMAP
005CEB10
05F63D70
0D700A70
3F200520
5E000000
6E00AFB0
4F3018C0
0CC43AA0
01AEEE80
00010B60
000E1D40
000C0500
ENDCHAR
STARTCHAR Gdotaccent.ss01
ENCODING -1
SWIDTH 811 0
DWIDTH 7 0
BBX 7 13 0 -3
BITMAP
0001E400
005CFB10
05F63D70
0D700A70
3F200520
5E000000
6E00AFB0
4F3018C0
0CC43AA0
01AEEE80
00000B60
00000D40
00000500
ENDCHAR
STARTCHAR H.ss01
ENCODING -1
SWIDTH 846 0
DWIDTH 8 0
BBX 8 9 0 0
BITMAP
02D001E1
04F003F1
06D005E0
08B006D0
6FFFFFF7
1D822B90
0F400D60
2F300F50
2E100E20
ENDCHAR
STARTCHAR Hbar.ss01
ENCODING -1
SWIDTH 856 0
DWIDTH 8 0
BBX 8 9 0 0
BITMAP
02E101E2
2EFFFFFC
07D226E1
08B006D0
5FFFFFF8
0C822BA0
0E500C70
1F400E50
1E100D30
ENDCHAR
STARTCHAR Hcircumflex.ss01
ENCODING -1
SWIDTH 846 0
DWIDTH 8 0
BBX 8 12 0 0
BITMAP
0001C800
0007CE00
000C3C10
02D001E1
04F003F1
06D005E0
08B006D0
6FFFFFF7
1D822B90
0F400D60
2F300F50
2E100E20
ENDCHAR
STARTCHAR I.ss01
ENCODING -1
SWIDTH 357 0
DWIDTH 3 0
BBX 3 9 0 0
BITMAP
04C0
07D0
08B0
0A90
0C70
0E50
2F30
3F10
3D00
ENDCHAR
STARTCHAR Iacute.ss01
ENCODING -1
SWIDTH 357 0
DWIDTH 3 0
BBX 5 12 0 0
BITMAP
000240
002D90
00B600
04C000
07D000
08B000
0A9000
0C7000
0E5000
2F3000
3F1000
3D0000
ENDCHAR
STARTCHAR Iacute_J.loclNLD.ss01
ENCODING -1
SWIDTH 776 0
DWIDTH 7 0
BBX 9 12 0 0
BITMAP
0002400330
002E804E60
00B600C400
0790068000
0AA00A9000
0C800C8000
0E602F7000
0E83CE5000
09FF7E3000
00323F1000
1B43C90000
09EE910000
ENDCHAR
STARTCHAR Ibreve.ss01
ENCODING -1
SWIDTH 357 0
DWIDTH 3 0
BBX 5 11 0 0
BITMAP
391840
1DFC10
04E000
07D000
08B000
0A9000
0C7000
0E5000
2F3000
3F1000
3D0000
ENDCHAR
STARTCHAR Icircumflex.ss01
ENCODING -1
SWIDTH 357 0
DWIDTH 3 0
BBX 4 12 0 0
BITMAP
02D5
0ACB
1D2D
04C0
07D0
08B0
0A90
0C70
0E50
2F30
3F10
3D00
ENDCHAR
STARTCHAR uni0208.ss01
ENCODING -1
SWIDTH 357 0
DWIDTH 3 0
BBX 4 12 0 0
BITMAP
2341
5BA5
0B38
04C0
07D0
08B0
0A90
0C70
0E50
2F30
3F10
3D00
ENDCHAR
STARTCHAR Idieresis.ss01
ENCODING -1
SWIDTH 357 0
DWIDTH 3 0
BBX 5 10 0 0
BITMAP
0D4E10
05C100
07D000
08B000
0A9000
0C7000
0E5000
2F3000
3F1000
3D0000
ENDCHAR
STARTCHAR Idotaccent.ss01
ENCODING -1
SWIDTH 357 0
DWIDTH 3 0
BBX 4 10 0 0
BITMAP
02E3
04D0
07D0
08B0
0A90
0C70
0E50
2F30
3F10
3D00
ENDCHAR
STARTCHAR uni1ECA.ss01
ENCODING -1
SWIDTH 357 0
DWIDTH 3 0
BBX 3 12 0 -3
BITMAP
04C0
07D0
08B0
0A90
0C70
0E50
2F30
3F10
3D00
0000
8B00
1100
ENDCHAR
STARTCHAR Igrave.ss01
ENCODING -1
SWIDTH 357 0
DWIDTH 3 0
BBX 3 12 0 0
BITMAP
5000
DB00
1980
04C0
07D0
08B0
0A90
0C70
0E50
2F30
3F10
3D00
ENDCHAR
STARTCHAR uni1EC8.ss01
ENCODING -1
SWIDTH 357 0
DWIDTH 3 0
BBX 4 12 0 0
BITMAP
04E7
015B
00E7
04E0
07D0
08B0
0A90
0C70
0E50
2F30
3F10
3D00
ENDCHAR
STARTCHAR uni020A.ss01
ENCODING -1
SWIDTH 357 0
DWIDTH 3 0
BBX 5 11 0 0
BITMAP
08EB10
3C3B50
05C100
07D000
08B000
0A9000
0C7000
0E5000
2F3000
3F1000
3D0000
ENDCHAR
STARTCHAR Imacron.ss01
ENCODING -1
SWIDTH 357 0
DWIDTH 3 0
BBX 4 10 0 0
BITMAP
0DFC
06E1
07D0
08B0
0A90
0C70
0E50
2F30
3F10
3D00
ENDCHAR
STARTCHAR Iogonek.ss01
ENCODING -1
SWIDTH 357 0
DWIDTH 3 0
BBX 3 13 0 -4
BITMAP
04C0
07D0
08B0
0A90
0C70
0E50
1F30
3F10
4F00
6900
B400
8F80
0200
ENDCHAR
STARTCHAR Itilde.ss01
ENCODING -1
SWIDTH 357 0
DWIDTH 3 0
BBX 5 11 0 0
BITMAP
1D9670
589D20
04C000
07D000
08B000
0A9000
0C7000
0E5000
2F3000
3F1000
3D0000
ENDCHAR
STARTCHAR J.ss01
ENCODING -1
SWIDTH 716 0
DWIDTH 6 0
BBX 7 9 0 0
BITMAP
04BEEC50
1E636F20
4D006D00
1A008B00
00009A00
0000B700
1300E400
4E47D000
08ED3000
ENDCHAR
STARTCHAR Jcircumflex.ss01
ENCODING -1
SWIDTH 716 0
DWIDTH 6 0
BBX 7 12 0 0
BITMAP
0006D100
001EC600
005A5800
04BEEC50
1E636F20
4D006D00
1A008B00
00009A00
0000B700
1300E400
4E47D000
08ED3000
ENDCHAR
STARTCHAR K.ss01
ENCODING -1
SWIDTH 779 0
DWIDTH 7 0
BBX 7 9 0 0
BITMAP
03D005C0
06D00B90
08B03F20
0A94D600
4FFF5000
0E7C9000
1F35F100
3F20D920
2D005EC0
ENDCHAR
STARTCHAR uni0136.ss01
ENCODING -1
SWIDTH 779 0
DWIDTH 7 0
BBX 7 12 0 -3
BITMAP
03D005C0
06D00B90
08B03F20
0A94D600
4FFF5000
0E7C9000
1F35F100
3F20D920
2D005EC0
00010000
005A0000
00560000
ENDCHAR
STARTCHAR L.ss01
ENCODING -1
SWIDTH 625 0
DWIDTH 6 0
BBX 6 9 0 0
BITMAP
04C000
07C000
09A000
0B8000
0D6000
0F4000
2F2000
4F5441
4FFFF6
ENDCHAR
STARTCHAR uni01C7.ss01
ENCODING -1
SWIDTH 1291 0
DWIDTH 12 0
BBX 12 9 0 0
BITMAP
04C0002AEED7
07C000D734F4
09A001F003F1
0B8000A105E0
0D60000007C0
0F40000009A0
2F2000400C60
4F5443F55E10
4FFFF66EE500
ENDCHAR
STARTCHAR Lacute.ss01
ENCODING -1
SWIDTH 625 0
DWIDTH 6 0
BBX 6 12 0 0
BITMAP
000240
002D90
00B600
04C000
07C000
09A000
0B8000
0D6000
0F4000
2F2000
4F5441
4FFFF6
ENDCHAR
STARTCHAR Lcaron.ss01
ENCODING -1
SWIDTH 625 0
DWIDTH 6 0
BBX 6 9 0 0
BITMAP
04C000
07C000
09A096
0B80A2
0D6000
0F4000
2F2000
4F5441
4FFFF6
ENDCHAR
STARTCHAR uni013B.ss01
ENCODING -1
SWIDTH 625 0
DWIDTH 6 0
BBX 6 12 0 -3
BITMAP
04C000
07C000
09A000
0B8000
0D6000
0F4000
2F2000
4F5441
4FFFF6
000000
008700
008400
ENDCHAR
STARTCHAR Ldot.ss01
ENCODING -1
SWIDTH 625 0
DWIDTH 6 0
BBX 6 9 0 0
BITMAP
04C000
07C000
09A000
0B8000
0D64E1
0F4010
2F2000
4F5441
4FFFF6
ENDCHAR
STARTCHAR uni01C8.ss01
ENCODING -1
SWIDTH 854 0
DWIDTH 8 0
BBX 8 14 0 -5
BITMAP
04C00000
07C00000
09A0008B
0B800011
0D600087
0F4000B6
2F2000C4
4F5441E3
4FFFF6F1
000009D0
00007CA0
0002B870
00069D20
0003E800
ENDCHAR
STARTCHAR Lslash.ss01
ENCODING -1
SWIDTH 625 0
DWIDTH 6 0
BBX 6 9 0 0
BITMAP
04C000
07C010
09CB70
0BF800
8F7000
4F4000
2F2000
4F5441
4FFFF6
ENDCHAR
STARTCHAR M.ss01
ENCODING -1
SWIDTH 1139 0
DWIDTH 10 0
BBX 10 9 0 0
BITMAP
04B5EB0AE6
08BC4F989C
0AE30EC07C
0CD01F709A
0D903F30C8
0F506F00E5
2F308C01F3
3F109A03F2
3C009703D0
ENDCHAR
STARTCHAR N.ss01
ENCODING -1
SWIDTH 799 0
DWIDTH 7 0
BBX 7 9 0 0
BITMAP
04B3CE50
08BD5AB0
0AE608B0
0CE00A90
0D900C70
0F600F40
2F302F20
3F104F10
3C003D00
ENDCHAR
STARTCHAR uni01CA.ss01
ENCODING -1
SWIDTH 1515 0
DWIDTH 14 0
BBX 14 9 0 0
BITMAP
04B3CE502AEED7
08BD5AB0D734F4
0AE608B1F003F1
0CE00A90A105E0
0D900C700007C0
0F600F400008A0
2F302F20500B60
3F104F11F65E10
3C003D006EE500
ENDCHAR
STARTCHAR Nacute.ss01
ENCODING -1
SWIDTH 799 0
DWIDTH 7 0
BBX 7 12 0 0
BITMAP
00000240
00002E80
0000B600
04B3CE50
08BD5AB0
0AE608B0
0CE00A90
0D900C70
0F600F40
2F302F20
3F104F10
3C003D00
ENDCHAR
STARTCHAR Ncaron.ss01
ENCODING -1
SWIDTH 799 0
DWIDTH 7 0
BBX 7 12 0 0
BITMAP
00050510
000B7C00
0004E300
04B3CE50
08BD5AB0
0AE608B0
0CE00A90
0D900C70
0F600F40
2F302F20
3F104F10
3C003D00
ENDCHAR
STARTCHAR uni0145.ss01
ENCODING -1
SWIDTH 799 0
DWIDTH 7 0
BBX 7 12 0 -3
BITMAP
04B3CE50
08BD5AB0
0AE608B0
0CE00A90
0D900C70
0F600F40
2F302F20
3F104F10
3C003D00
00010000
005A0000
00560000
ENDCHAR
STARTCHAR Eng.ss01
ENCODING -1
SWIDTH 792 0
DWIDTH 7 0
BBX 7 14 0 -5
BITMAP
04B3CE40
08BD5BA0
0AE60AA0
0BE00C80
0DA00E50
0F602F30
2F305F00
3F107C00
3C00A900
0000D500
0101F100
2E27A000
09FD2000
00100000
ENDCHAR
STARTCHAR uni01CB.ss01
ENCODING -1
SWIDTH 1008 0
DWIDTH 9 0
BBX 10 14 0 -5
BITMAP
04B3CE5000
08BD5AB000
0AE608B2E2
0CE00A9010
0D900C72C0
0F600F45C0
2F302F26A0
3F104F1880
3C003D0960
0000003E40
000002CE10
00000A5D00
00000D9800
00000BC100
ENDCHAR
STARTCHAR Ntilde.ss01
ENCODING -1
SWIDTH 799 0
DWIDTH 7 0
BBX 7 11 0 0
BITMAP
001D8660
00689D10
04B3CE50
08BD5AB0
0AE608B0
0CE00A90
0D900C70
0F600F40
2F302F20
3F104F10
3C003D00
ENDCHAR
STARTCHAR OE.ss01
ENCODING -1
SWIDTH 1166 0
DWIDTH 11 0
BBX 11 9 0 0
BITMAP
005DEB3DFF90
05E63DED2200
0D7005F90000
3F2003F70000
5E0003FFFE00
6E0005F42100
4F100BF20000
1DA38EEA3430
03CFB34CFD40
ENDCHAR
STARTCHAR P.ss01
ENCODING -1
SWIDTH 662 0
DWIDTH 6 0
BBX 6 9 0 0
BITMAP
09EEB2
19F4CB
05E05F
07C06E
09A3D8
7FFE80
0E7000
0F4000
1E1000
ENDCHAR
STARTCHAR Thorn.ss01
ENCODING -1
SWIDTH 658 0
DWIDTH 6 0
BBX 6 9 0 0
BITMAP
02E100
07FEA1
2CD5E8
08B09C
0A909B
0C84E5
8FFE70
1F5000
1E2000
ENDCHAR
STARTCHAR Q.ss01
ENCODING -1
SWIDTH 816 0
DWIDTH 7 0
BBX 8 12 0 -3
BITMAP
005DEA10
05E63CA0
0D7005F1
3F1003F2
5E0003F2
6E0006E0
4F200C90
0CD7BE10
02AFC200
0007E200
0000DA00
00003600
ENDCHAR
STARTCHAR R.ss01
ENCODING -1
SWIDTH 744 0
DWIDTH 7 0
BBX 7 9 0 0
BITMAP
09EFB200
19F3BC00
06D07D00
08B3D700
3FFE6000
0D9E6000
0E58D000
1F33F610
1D108E80
ENDCHAR
STARTCHAR Racute.ss01
ENCODING -1
SWIDTH 744 0
DWIDTH 7 0
BBX 7 12 0 0
BITMAP
00000500
00009E10
0005A200
09EFB200
19F3BC00
06D07D00
08B3D700
3FFE6000
0D9E6000
0E58D000
1F33F610
1D108E80
ENDCHAR
STARTCHAR Rcaron.ss01
ENCODING -1
SWIDTH 744 0
DWIDTH 7 0
BBX 7 12 0 0
BITMAP
00232400
004BB400
000B9000
09EFB200
19F3BC00
06D07D00
08B3D700
3FFE6000
0D9E6000
0E58D000
1F33F610
1D108E80
ENDCHAR
STARTCHAR uni0156.ss01
ENCODING -1
SWIDTH 744 0
DWIDTH 7 0
BBX 7 12 0 -3
BITMAP
09EFB200
19F3BC00
06D07D00
08B3D700
3FFE6000
0D9E6000
0E58D000
1F33F610
1D108E80
00010000
00690000
00650000
ENDCHAR
STARTCHAR uni0210.ss01
ENCODING -1
SWIDTH 744 0
DWIDTH 7 0
BBX 7 12 0 0
BITMAP
00514000
00E6C000
0065B000
09EFB200
19F3BC00
06D07D00
08B3D700
3FFE6000
0D9E6000
0E58D000
1F33F610
1D108E80
ENDCHAR
STARTCHAR uni0212.ss01
ENCODING -1
SWIDTH 744 0
DWIDTH 7 0
BBX 7 11 0 0
BITMAP
004DD400
00C66C00
09FFB300
19F3BC00
06D07D00
08B3D700
3FFE6000
0D9E6000
0E58D000
1F33F610
1D108E80
ENDCHAR
STARTCHAR T.ss01
ENCODING -1
SWIDTH 631 0
DWIDTH 6 0
BBX 7 9 0 0
BITMAP
3DEFFF80
034F4210
004F0000
007C0000
009A0000
00B80000
00D60000
00F50000
00D20000
ENDCHAR
STARTCHAR Tbar.ss01
ENCODING -1
SWIDTH 631 0
DWIDTH 6 0
BBX 7 9 0 0
BITMAP
3DEFFF80
034F4210
004F0000
007C0000
0EFFF200
02B92000
00D60000
00F50000
00D20000
ENDCHAR
STARTCHAR Tcaron.ss01
ENCODING -1
SWIDTH 631 0
DWIDTH 6 0
BBX 7 12 0 0
BITMAP
00322300
0059C300
000C8000
3DEFFF80
034F4210
004F0000
007C0000
009A0000
00B80000
00D60000
00F50000
00D20000
ENDCHAR
STARTCHAR uni0162.ss01
ENCODING -1
SWIDTH 631 0
DWIDTH 6 0
BBX 7 12 0 -3
BITMAP
3DEFFF80
034F4210
005E0000
007C0000
009A0000
00B80000
00E60000
00F40000
06F40000
01890000
0EF40000
01100000
ENDCHAR
STARTCHAR uni021A.ss01
ENCODING -1
SWIDTH 631 0
DWIDTH 6 0
BBX 7 12 0 -3
BITMAP
3DEFFF80
034F4210
004F0000
007C0000
009A0000
00B80000
00D60000
00F50000
00D20000
00100000
00E00000
01B00000
ENDCHAR
STARTCHAR U.ss01
ENCODING -1
SWIDTH 800 0
DWIDTH 7 0
BBX 7 9 0 0
BITMAP
04C004C0
07D007D0
08B009B0
0A900C90
0D601F70
0F406F60
2F30CF40
2F8B9F20
0AE92D00
ENDCHAR
STARTCHAR Uacute.ss01
ENCODING -1
SWIDTH 800 0
DWIDTH 7 0
BBX 7 12 0 0
BITMAP
00000240
00002D90
0000B600
04C004C0
07D007D0
08B009B0
0A900C90
0D601F70
0F406F60
2F30CF40
2F8B9F20
0AE92D00
ENDCHAR
STARTCHAR Ubreve.ss01
ENCODING -1
SWIDTH 800 0
DWIDTH 7 0
BBX 7 11 0 0
BITMAP
00391840
001DFC10
04C014C0
07D007D0
08B009B0
0A900C90
0D601F70
0F406F60
2F30CF40
2F8B9F20
0AE92D00
ENDCHAR
STARTCHAR Ucircumflex.ss01
ENCODING -1
SWIDTH 800 0
DWIDTH 7 0
BBX 7 12 0 0
BITMAP
0002D500
000ACB00
001D2C00
04C004C0
07D007D0
08B009B0
0A900C90
0D601F70
0F406F60
2F30CF40
2F8B9F20
0AE92D00
ENDCHAR
STARTCHAR uni0214.ss01
ENCODING -1
SWIDTH 800 0
DWIDTH 7 0
BBX 7 12 0 0
BITMAP
00234100
005BB500
000B4800
04C004C0
07D007D0
08B009B0
0A900C90
0D601F70
0F406F60
2F30CF40
2F8B9F20
0AE92D00
ENDCHAR
STARTCHAR Udieresis.ss01
ENCODING -1
SWIDTH 800 0
DWIDTH 7 0
BBX 7 10 0 0
BITMAP
000D4D10
04C105C0
07D007D0
08B009B0
0A900C90
0D601F70
0F406F60
2F30CF40
2F8B9F20
0AE92D00
ENDCHAR
STARTCHAR uni1EE4.ss01
ENCODING -1
SWIDTH 800 0
DWIDTH 7 0
BBX 7 12 0 -3
BITMAP
04C004C0
07D007D0
08B009B0
0A900C90
0D601F70
0F406F60
2F30CF40
2F8B9F20
0AE92D00
00000000
005D0000
00010000
ENDCHAR
STARTCHAR Ugrave.ss01
ENCODING -1
SWIDTH 800 0
DWIDTH 7 0
BBX 7 12 0 0
BITMAP
00500000
00DB0000
00197000
04C004C0
07D007D0
08B009B0
0A900C90
0D601F70
0F406F60
2F30CF40
2F8B9F20
0AE92D00
ENDCHAR
STARTCHAR uni1EE6.ss01
ENCODING -1
SWIDTH 800 0
DWIDTH 7 0
BBX 7 12 0 0
BITMAP
0004E700
00015B00
0000E700
04C024C0
07D007D0
08B009B0
0A900C90
0D601F70
0F406F60
2F30CF40
2F8B9F20
0AE92D00
ENDCHAR
STARTCHAR Uhorn.ss01
ENCODING -1
SWIDTH 800 0
DWIDTH 7 0
BBX 9 11 0 0
BITMAP
0000000410
0000001D30
04C004FC00
07D007D100
08B009B000
0A900C9000
0D601F8000
0F406F6000
2F30CF4000
2F8B9F2000
0AE92D0000
ENDCHAR
STARTCHAR uni1EE8.ss01
ENCODING -1
SWIDTH 800 0
DWIDTH 7 0
BBX 9 12 0 0
BITMAP
0000024000
00002D9410
0000B61D30
04C004FC00
07D007D100
08B009B000
0A900C9000
0D601F8000
0F406F6000
2F30CF4000
2F8B9F2000
0AE92D0000
ENDCHAR
STARTCHAR uni1EF0.ss01
ENCODING -1
SWIDTH 800 0
DWIDTH 7 0
BBX 9 14 0 -3
BITMAP
0000000410
0000001D30
04C004FC00
07D007D100
08B009B000
0A900C9000
0D601F8000
0F406F6000
2F30CF4000
2F8B9F2000
0AE92D0000
0000000000
005D000000
0001000000
ENDCHAR
STARTCHAR uni1EEA.ss01
ENCODING -1
SWIDTH 800 0
DWIDTH 7 0
BBX 9 12 0 0
BITMAP
0050000000
00DB000410
0019701D30
04C004FC00
07D007D100
08B009B000
0A900C9000
0D601F8000
0F406F6000
2F30CF4000
2F8B9F2000
0AE92D0000
ENDCHAR
STARTCHAR uni1EEC.ss01
ENCODING -1
SWIDTH 800 0
DWIDTH 7 0
BBX 9 12 0 0
BITMAP
0004E70000
00015B0410
0000E71D30
04C024FC00
07D007D100
08B009B000
0A900C9000
0D601F8000
0F406F6000
2F30CF4000
2F8B9F2000
0AE92D0000
ENDCHAR
STARTCHAR uni1EEE.ss01
ENCODING -1
SWIDTH 800 0
DWIDTH 7 0
BBX 9 11 0 0
BITMAP
001D966410
00589D2D30
04C004FC00
07D007D100
08B009B000
0A900C9000
0D601F8000
0F406F6000
2F30CF4000
2F8B9F2000
0AE92D0000
ENDCHAR
STARTCHAR Uhungarumlaut.ss01
ENCODING -1
SWIDTH 800 0
DWIDTH 7 0
BBX 7 12 0 0
BITMAP
00024410
00079D30
00093A00
04C004C0
07D007D0
08B009B0
0A900C90
0D601F70
0F406F60
2F30CF40
2F8B9F20
0AE92D00
ENDCHAR
STARTCHAR uni0216.ss01
ENCODING -1
SWIDTH 800 0
DWIDTH 7 0
BBX 7 11 0 0
BITMAP
0009EB10
003C3C50
04C104C0
07D007D0
08B009B0
0A900C90
0D601F70
0F406F60
2F30CF40
2F8B9F20
0AE92D00
ENDCHAR
STARTCHAR Umacron.ss01
ENCODING -1
SWIDTH 800 0
DWIDTH 7 0
BBX 7 10 0 0
BITMAP
000EFB00
04C225C0
07D007D0
08B009B0
0A900C90
0D601F70
0F406F60
2F30CF40
2F8B9F20
0AE92D00
ENDCHAR
STARTCHAR Uogonek.ss01
ENCODING -1
SWIDTH 800 0
DWIDTH 7 0
BBX 7 13 0 -4
BITMAP
04C004C0
07D007D0
08B009B0
0A900CA0
0D601F80
0F406F60
2F30CF40
2F8B9F20
0AE93F10
00007800
0000B400
00007F80
00000200
ENDCHAR
STARTCHAR Uring.ss01
ENCODING -1
SWIDTH 800 0
DWIDTH 7 0
BBX 7 12 0 0
BITMAP
0004E600
00097B00
0006F700
04C014C0
07D007D0
08B009B0
0A900C90
0D601F70
0F406F60
2F30CF40
2F8B9F20
0AE92D00
ENDCHAR
STARTCHAR Utilde.ss01
ENCODING -1
SWIDTH 800 0
DWIDTH 7 0
BBX 7 11 0 0
BITMAP
001D9660
00589D10
04C004C0
07D007D0
08B009B0
0A900C90
0D601F70
0F406F60
2F30CF40
2F8B9F20
0AE92D00
ENDCHAR
STARTCHAR V.ss01
ENCODING -1
SWIDTH 797 0
DWIDTH 7 0
BBX 7 9 1 0
BITMAP
88000D40
B9003F20
C7005E00
D7009A00
D600D600
C703F100
A90A9000
7E9E2000
1CD40000
ENDCHAR
STARTCHAR W.ss01
ENCODING -1
SWIDTH 1236 0
DWIDTH 11 0
BBX 11 9 1 0
BITMAP
88005B001D30
B9009C003F10
C700CA006D00
D600EA00AA00
D604F900D500
D609DA03E100
B81E7B099000
8DB93F8E2000
2DB10AE50000
ENDCHAR
STARTCHAR Wacute.ss01
ENCODING -1
SWIDTH 1236 0
DWIDTH 11 0
BBX 11 12 1 0
BITMAP
000000240000
000002E80000
00000B600000
88005B001D30
B9009C003F10
C700CA006D00
D600EA00AA00
D604F900D500
D609DA03E100
B81E7B099000
8DB93F8E2000
2DB10AE50000
ENDCHAR
STARTCHAR Wcircumflex.ss01
ENCODING -1
SWIDTH 1236 0
DWIDTH 11 0
BBX 11 12 1 0
BITMAP
00003E400000
0000BCA00000
0002D2C00000
88005B001D30
B9009C003F10
C700CA006D00
D600EA00AA00
D604F900D500
D609DA03E100
B81E7B099000
8DB93F8E2000
2DB10AE50000
ENDCHAR
STARTCHAR Wdieresis.ss01
ENCODING -1
SWIDTH 1236 0
DWIDTH 11 0
BBX 11 10 1 0
BITMAP
0001E4D00000
88006C101D30
B9009C003F10
C700CA006D00
D600EA00AA00
D604F900D500
D609DA03E100
B81E7B099000
8DB93F8E2000
2DB10AE50000
ENDCHAR
STARTCHAR Wgrave.ss01
ENCODING -1
SWIDTH 1236 0
DWIDTH 11 0
BBX 11 12 1 0
BITMAP
000600000000
000DA0000000
000197000000
88005B001D30
B9009C003F10
C700CA006D00
D600EA00AA00
D604F900D500
D609DA03E100
B81E7B099000
8DB93F8E2000
2DB10AE50000
ENDCHAR
STARTCHAR X.ss01
ENCODING -1
SWIDTH 677 0
DWIDTH 6 0
BBX 8 9 -1 0
BITMAP
00A70098
007E06E2
001F6E50
000AF900
0008F200
004ED700
01E77D00
0BB01F40
4D200A70
ENDCHAR
STARTCHAR Y.ss01
ENCODING -1
SWIDTH 776 0
DWIDTH 7 0
BBX 7 9 0 0
BITMAP
07900680
0AA00A90
0C800C80
0E602F70
0E83CE50
09FF7E30
00323F10
1B43C900
09EE9100
ENDCHAR
STARTCHAR Yacute.ss01
ENCODING -1
SWIDTH 776 0
DWIDTH 7 0
BBX 7 12 0 0
BITMAP
00000420
00005F50
0001C400
07900680
0AA00A90
0C800C80
0E602F70
0E83CE50
09FF7E30
00323F10
1B43C900
09EE9100
ENDCHAR
STARTCHAR Ycircumflex.ss01
ENCODING -1
SWIDTH 776 0
DWIDTH 7 0
BBX 7 12 0 0
BITMAP
0005E200
001DC700
004B4900
07900680
0AA00A90
0C800C80
0E602F70
0E83CE50
09FF7E30
00323F10
1B43C900
09EE9100
ENDCHAR
STARTCHAR Ydieresis.ss01
ENCODING -1
SWIDTH 776 0
DWIDTH 7 0
BBX 7 10 0 0
BITMAP
003C5B00
07910780
0AA00A90
0C800C80
0E602F70
0E83CE50
09FF7E30
00323F10
1B43C900
09EE9100
ENDCHAR
STARTCHAR uni1EF4.ss01
ENCODING -1
SWIDTH 776 0
DWIDTH 7 0
BBX 7 12 0 -3
BITMAP
07900680
0AA00A90
0C800C80
0E602F70
0E83CE50
09FF7E30
00323F10
1B43C900
09EE9100
00000000
00A80000
00100000
ENDCHAR
STARTCHAR Ygrave.ss01
ENCODING -1
SWIDTH 776 0
DWIDTH 7 0
BBX 7 12 0 0
BITMAP
01500000
02F70000
002B4000
07900680
0AA00A90
0C800C80
0E602F70
0E83CE50
09FF7E30
00323F10
1B43C900
09EE9100
ENDCHAR
STARTCHAR uni1EF6.ss01
ENCODING -1
SWIDTH 776 0
DWIDTH 7 0
BBX 7 12 0 0
BITMAP
0007E400
00018700
0003F400
07901680
0AA00A90
0C800C80
0E602F70
0E83CE50
09FF7E30
00323F10
1B43C900
09EE9100
ENDCHAR
STARTCHAR uni0232.ss01
ENCODING -1
SWIDTH 776 0
DWIDTH 7 0
BBX 7 10 0 0
BITMAP
003FF800
07922780
0AA00A90
0C800C80
0E602F70
0E83CE50
09FF7E30
00323F10
1B43C900
09EE9100
ENDCHAR
STARTCHAR uni1EF8.ss01
ENCODING -1
SWIDTH 776 0
DWIDTH 7 0
BBX 7 11 0 0
BITMAP
003E6930
0096BB00
07900680
0AA00A90
0C800C80
0E602F70
0E83CE50
09FF7E30
00323F10
1B43C900
09EE9100
ENDCHAR
STARTCHAR Z.ss01
ENCODING -1
SWIDTH 665 0
DWIDTH 6 0
BBX 7 9 0 0
BITMAP
2DFFFD10
0222AE10
0003F600
000CC000
007F3000
03F80000
0CD00000
8F522000
CFFFF900
ENDCHAR
STARTCHAR Zacute.ss01
ENCODING -1
SWIDTH 665 0
DWIDTH 6 0
BBX 7 12 0 0
BITMAP
00000500
00009E20
0005A200
2DFFFD10
0222AE10
0003F600
000CC000
007F3000
03F80000
0CD00000
8F522000
CFFFF900
ENDCHAR
STARTCHAR Zcaron.ss01
ENCODING -1
SWIDTH 665 0
DWIDTH 6 0
BBX 7 12 0 0
BITMAP
00232400
003BA500
000B9000
2DFFFD10
0222AE10
0003F600
000CC000
007F3000
03F80000
0CD00000
8F522000
CFFFF900
ENDCHAR
STARTCHAR Zdotaccent.ss01
ENCODING -1
SWIDTH 665 0
DWIDTH 6 0
BBX 7 10 0 0
BITMAP
000A9000
2DFFFD10
0222AE10
0003F600
000CC000
007F3000
03F80000
0CD00000
8F522000
CFFFF900
ENDCHAR
STARTCHAR i.loclTRK
ENCODING -1
SWIDTH 246 0
DWIDTH 2 0
BBX 4 7 0 0
BITMAP
1E40
0100
2C00
6B00
8912
8AB4
4E70
ENDCHAR
STARTCHAR a.fina
ENCODING -1
SWIDTH 458 0
DWIDTH 4 0
BBX 4 5 0 0
BITMAP
07EC
4E7C
997B
A9CA
5EA8
ENDCHAR
STARTCHAR aacute.fina
ENCODING -1
SWIDTH 458 0
DWIDTH 4 0
BBX 5 9 0 0
BITMAP
000A50
002E10
006500
000000
07EC00
4E7C00
997B00
A9CA00
5EA800
ENDCHAR
STARTCHAR abreve.fina
ENCODING -1
SWIDTH 458 0
DWIDTH 4 0
BBX 5 9 0 0
BITMAP
030030
0D46A0
07FE30
001100
07EC00
4E7C00
997B00
A9CA00
5EA800
ENDCHAR
STARTCHAR uni1EAF.fina
ENCODING -1
SWIDTH 458 0
DWIDTH 4 0
BBX 5 9 0 0
BITMAP
001B40
093680
09FF50
001000
07EC00
4E7C00
997B00
A9CA00
5EA800
ENDCHAR
STARTCHAR uni1EB7.fina
ENCODING -1
SWIDTH 458 0
DWIDTH 4 0
BBX 5 12 0 -3
BITMAP
030030
0D46A0
07FE30
001100
07EC00
4E7C00
997B00
A9CA00
5EA800
000000
0D5000
010000
ENDCHAR
STARTCHAR uni1EB1.fina
ENCODING -1
SWIDTH 458 0
DWIDTH 4 0
BBX 5 9 0 0
BITMAP
03C100
094470
08FE50
001000
07EC00
4E7C00
997B00
A9CA00
5EA800
ENDCHAR
STARTCHAR uni1EB3.fina
ENCODING -1
SWIDTH 458 0
DWIDTH 4 0
BBX 5 10 0 0
BITMAP
00CB00
019B10
0D45A0
07FE40
001100
07EC00
4E7C00
997B00
A9CA00
5EA800
ENDCHAR
STARTCHAR uni1EB5.fina
ENCODING -1
SWIDTH 458 0
DWIDTH 4 0
BBX 5 10 0 0
BITMAP
04C590
052830
0B2390
08FE40
001000
07EC00
4E7C00
997B00
A9CA00
5EA800
ENDCHAR
STARTCHAR acircumflex.fina
ENCODING -1
SWIDTH 458 0
DWIDTH 4 0
BBX 5 10 0 0
BITMAP
002400
00CD00
05AC20
0A4A30
000000
07EC00
4E7C00
997B00
A9CA00
5EA800
ENDCHAR
STARTCHAR uni1EA5.fina
ENCODING -1
SWIDTH 458 0
DWIDTH 4 0
BBX 6 10 0 0
BITMAP
000023
0000C5
01BC00
086A30
000000
07EC00
4E7C00
997B00
A9CA00
5EA800
ENDCHAR
STARTCHAR uni1EAD.fina
ENCODING -1
SWIDTH 458 0
DWIDTH 4 0
BBX 5 13 0 -3
BITMAP
002400
00CD00
05AC20
0A4A30
000000
07EC00
4E7C00
997B00
A9CA00
5EA800
000000
0D5000
010000
ENDCHAR
STARTCHAR uni1EA7.fina
ENCODING -1
SWIDTH 458 0
DWIDTH 4 0
BBX 5 10 0 0
BITMAP
330000
4C1000
01BC00
086A30
000000
07EC00
4E7C00
997B00
A9CA00
5EA800
ENDCHAR
STARTCHAR uni1EA9.fina
ENCODING -1
SWIDTH 458 0
DWIDTH 4 0
BBX 6 9 0 0
BITMAP
0001E6
00004A
01BBC6
08AD40
07ED00
4E7C00
997B00
A9CA00
5EA800
ENDCHAR
STARTCHAR uni1EAB.fina
ENCODING -1
SWIDTH 458 0
DWIDTH 4 0
BBX 5 10 0 0
BITMAP
04D6A0
043930
01DD00
096A30
000000
07EC00
4E7C00
997B00
A9CA00
5EA800
ENDCHAR
STARTCHAR uni0201.fina
ENCODING -1
SWIDTH 458 0
DWIDTH 4 0
BBX 4 10 0 0
BITMAP
1441
4DA7
0D5B
064A
0000
07EC
4E7C
997B
A9CA
5EA8
ENDCHAR
STARTCHAR adieresis.fina
ENCODING -1
SWIDTH 458 0
DWIDTH 4 0
BBX 5 7 0 0
BITMAP
087A50
010100
07EC00
4E7C00
997B00
A9CA00
5EA800
ENDCHAR
STARTCHAR uni1EA1.fina
ENCODING -1
SWIDTH 458 0
DWIDTH 4 0
BBX 4 8 0 -3
BITMAP
07EC
4E7C
997B
A9CA
5EA8
0000
0D50
0100
ENDCHAR
STARTCHAR agrave.fina
ENCODING -1
SWIDTH 458 0
DWIDTH 4 0
BBX 4 10 0 0
BITMAP
0410
0B60
04C0
00A1
0000
07EC
4E7C
997B
A9CA
5EA8
ENDCHAR
STARTCHAR uni1EA3.fina
ENCODING -1
SWIDTH 458 0
DWIDTH 4 0
BBX 5 9 0 0
BITMAP
00DB00
002D10
009B00
001000
07EC00
4E7C00
997B00
A9CA00
5EA800
ENDCHAR
STARTCHAR uni0203.fina
ENCODING -1
SWIDTH 458 0
DWIDTH 4 0
BBX 5 8 0 0
BITMAP
03DD20
0C69A0
070160
07EC00
4E7C00
997B00
A9CA00
5EA800
ENDCHAR
STARTCHAR amacron.fina
ENCODING -1
SWIDTH 458 0
DWIDTH 4 0
BBX 5 7 0 0
BITMAP
08FF20
012200
07EC00
4E7C00
997B00
A9CA00
5EA800
ENDCHAR
STARTCHAR aogonek.fina
ENCODING -1
SWIDTH 458 0
DWIDTH 4 0
BBX 5 8 0 -3
BITMAP
07E700
4E7D00
997B00
A9CA00
5EB900
00D300
00E000
00AE30
ENDCHAR
STARTCHAR aring.fina
ENCODING -1
SWIDTH 458 0
DWIDTH 4 0
BBX 5 9 0 0
BITMAP
00CB00
03AC20
01EC00
001000
07EC00
4E7C00
997B00
A9CA00
5EA800
ENDCHAR
STARTCHAR aringacute.fina
ENCODING -1
SWIDTH 458 0
DWIDTH 4 0
BBX 6 10 0 0
BITMAP
000015
00CB77
03AC20
01EC00
001000
07EC00
4E7C00
997B00
A9CA00
5EA800
ENDCHAR
STARTCHAR atilde.fina
ENCODING -1
SWIDTH 458 0
DWIDTH 4 0
BBX 5 8 0 0
BITMAP
08C3A0
0C5D50
000000
07EC00
4E7C00
997B00
A9CA00
5EA800
ENDCHAR
STARTCHAR ae.fina
ENCODING -1
SWIDTH 671 0
DWIDTH 6 0
BBX 7 5 0 0
BITMAP
07EBE800
4E6E6C00
986DC600
99BF6A30
4E89E900
ENDCHAR
STARTCHAR aeacute.fina
ENCODING -1
SWIDTH 671 0
DWIDTH 6 0
BBX 7 9 0 0
BITMAP
00008700
0000D300
00047000
00000000
07EBE800
4E6E6C00
986DC600
99BF6A30
4E89E900
ENDCHAR
STARTCHAR b.fina
ENCODING -1
SWIDTH 475 0
DWIDTH 4 0
BBX 5 10 0 0
BITMAP
01D800
089C00
0D4B00
2E6700
5CA100
6EE600
7D5E00
7A1F10
4C6D00
0BE400
ENDCHAR
STARTCHAR c.fina
ENCODING -1
SWIDTH 404 0
DWIDTH 4 0
BBX 4 5 0 0
BITMAP
1BE2
7CA4
A720
9A4A
2DD4
ENDCHAR
STARTCHAR cacute.fina
ENCODING -1
SWIDTH 404 0
DWIDTH 4 0
BBX 4 9 0 0
BITMAP
002D
0089
00A1
0000
1BE2
7CA4
A720
9A4A
2DD4
ENDCHAR
STARTCHAR ccaron.fina
ENCODING -1
SWIDTH 404 0
DWIDTH 4 0
BBX 5 10 0 0
BITMAP
041410
0A5D10
07B900
03D200
000000
1BE200
7CA400
A72000
9A4A00
2DD400
ENDCHAR
STARTCHAR ccedilla.fina
ENCODING -1
SWIDTH 404 0
DWIDTH 4 0
BBX 4 9 0 -4
BITMAP
0BE2
6CA4
A741
A808
5FE8
0AE0
00D1
6FA0
0200
ENDCHAR
STARTCHAR ccircumflex.fina
ENCODING -1
SWIDTH 404 0
DWIDTH 4 0
BBX 4 10 0 0
BITMAP
0051
03E7
0B7A
1C1B
0000
1BE2
7CA4
A720
9A4A
2DD4
ENDCHAR
STARTCHAR cdotaccent.fina
ENCODING -1
SWIDTH 404 0
DWIDTH 4 0
BBX 4 7 0 0
BITMAP
03E2
0010
1BE2
7CA4
A720
9A4A
2DD4
ENDCHAR
STARTCHAR d.fina
ENCODING -1
SWIDTH 493 0
DWIDTH 4 0
BBX 6 10 0 0
BITMAP
0003E3
000AA7
000E66
002D83
004CB0
07ED90
4E9F30
986C00
A9AD00
4E8D00
ENDCHAR
STARTCHAR dcaron.fina
ENCODING -1
SWIDTH 458 0
DWIDTH 4 0
BBX 6 10 0 0
BITMAP
00001D
0007AD
000A97
000C50
000E20
07EF00
4E7D00
996B00
A9CA00
5EA800
ENDCHAR
STARTCHAR dcroat.fina
ENCODING -1
SWIDTH 458 0
DWIDTH 4 0
BBX 5 9 0 0
BITMAP
000780
000A80
07FFC0
012E30
07EF10
4E7D00
996B00
A9CA00
5EA800
ENDCHAR
STARTCHAR uni01C6.fina
ENCODING -1
SWIDTH 876 0
DWIDTH 8 0
BBX 9 14 0 -5
BITMAP
0007876860
000A769D10
000C52F700
000E344200
07EF4FFF30
4E7C03E700
996A1C6000
A9CAAF6000
5E7D85F100
00001CF200
0000A5F100
0001C7A000
0001ED2000
0000100000
ENDCHAR
STARTCHAR e.fina
ENCODING -1
SWIDTH 411 0
DWIDTH 4 0
BBX 4 5 0 0
BITMAP
0BE3
7B97
ABD2
9D5B
2DE5
ENDCHAR
STARTCHAR eacute.fina
ENCODING -1
SWIDTH 411 0
DWIDTH 4 0
BBX 4 9 0 0
BITMAP
001D
0079
00A1
0000
0BE3
7B97
ABD2
9D5B
2DE5
ENDCHAR
STARTCHAR ebreve.fina
ENCODING -1
SWIDTH 411 0
DWIDTH 4 0
BBX 5 9 0 0
BITMAP
120210
4D1C40
0CFB00
002000
0BE300
7B9700
ABD200
9D5B00
2DE500
ENDCHAR
STARTCHAR ecaron.fina
ENCODING -1
SWIDTH 411 0
DWIDTH 4 0
BBX 5 10 0 0
BITMAP
041420
0A5D20
07B900
03D200
000000
0BE300
7B9700
ABD200
9D5B00
2DE500
ENDCHAR
STARTCHAR ecircumflex.fina
ENCODING -1
SWIDTH 411 0
DWIDTH 4 0
BBX 4 10 0 0
BITMAP
0052
03E8
0A7B
1C1C
0000
0BE3
7B97
ABD2
9D5B
2DE5
ENDCHAR
STARTCHAR uni1EBF.fina
ENCODING -1
SWIDTH 411 0
DWIDTH 4 0
BBX 6 10 0 0
BITMAP
000051
0004B1
04D600
0C3B00
000000
0BE300
7B9700
ABD200
9D5B00
2DE500
ENDCHAR
STARTCHAR uni1EC7.fina
ENCODING -1
SWIDTH 411 0
DWIDTH 4 0
BBX 4 13 0 -3
BITMAP
0052
03E8
0A7B
1C1C
0000
0BE3
7B97
ABD2
9D5B
2DE5
0000
0A80
0100
ENDCHAR
STARTCHAR uni1EC1.fina
ENCODING -1
SWIDTH 411 0
DWIDTH 4 0
BBX 4 10 0 0
BITMAP
5000
8800
04D6
0C3B
0000
0BE3
7B97
ABD2
9D5B
2DE5
ENDCHAR
STARTCHAR uni1EC3.fina
ENCODING -1
SWIDTH 411 0
DWIDTH 4 0
BBX 6 9 0 0
BITMAP
0007E1
000194
04E9E1
0D8C10
0BE400
7B9700
ABD200
9D5B00
2DE500
ENDCHAR
STARTCHAR uni1EC5.fina
ENCODING -1
SWIDTH 411 0
DWIDTH 4 0
BBX 5 10 0 0
BITMAP
09B850
065800
06E800
0D3C00
000000
0BE300
7B9700
ABD200
9D5B00
2DE500
ENDCHAR
STARTCHAR uni0205.fina
ENCODING -1
SWIDTH 411 0
DWIDTH 4 0
BBX 4 10 0 0
BITMAP
4150
A8F1
5AA5
0A37
0000
0BE3
7B97
ABD2
9D5B
2DE5
ENDCHAR
STARTCHAR edieresis.fina
ENCODING -1
SWIDTH 411 0
DWIDTH 4 0
BBX 4 7 0 0
BITMAP
0D3D
0101
0BE3
7B97
ABD2
9D5B
2DE5
ENDCHAR
STARTCHAR edotaccent.fina
ENCODING -1
SWIDTH 411 0
DWIDTH 4 0
BBX 4 7 0 0
BITMAP
03E2
0010
0BE3
7B97
ABD2
9D5B
2DE5
ENDCHAR
STARTCHAR uni1EB9.fina
ENCODING -1
SWIDTH 411 0
DWIDTH 4 0
BBX 4 8 0 -3
BITMAP
0BE3
7B97
ABD2
9D5B
2DE5
0000
0A80
0100
ENDCHAR
STARTCHAR egrave.fina
ENCODING -1
SWIDTH 411 0
DWIDTH 4 0
BBX 4 10 0 0
BITMAP
0500
2F10
0A60
0290
0000
0BE3
7B97
ABD2
9D5B
2DE5
ENDCHAR
STARTCHAR uni1EBB.fina
ENCODING -1
SWIDTH 411 0
DWIDTH 4 0
BBX 4 9 0 0
BITMAP
04E6
015B
00E6
0010
0BE3
7B97
ABD2
9D5B
2DE5
ENDCHAR
STARTCHAR uni0207.fina
ENCODING -1
SWIDTH 411 0
DWIDTH 4 0
BBX 5 8 0 0
BITMAP
08EA00
3D3D40
240520
0BE300
7B9700
ABD200
9D5B00
2DE500
ENDCHAR
STARTCHAR emacron.fina
ENCODING -1
SWIDTH 411 0
DWIDTH 4 0
BBX 4 7 0 0
BITMAP
0EFB
0221
0BE3
7B97
ABD2
9D5B
2DE5
ENDCHAR
STARTCHAR eogonek.fina
ENCODING -1
SWIDTH 411 0
DWIDTH 4 0
BBX 4 9 0 -4
BITMAP
0AE3
6B97
9AD3
AD48
5ED8
07A0
0960
06FA
0010
ENDCHAR
STARTCHAR uni1EBD.fina
ENCODING -1
SWIDTH 411 0
DWIDTH 4 0
BBX 5 8 0 0
BITMAP
1D8660
579D10
000000
0BE300
7B9700
ABD200
9D5B00
2DE500
ENDCHAR
STARTCHAR g.fina
ENCODING -1
SWIDTH 449 0
DWIDTH 4 0
BBX 4 10 0 -5
BITMAP
07E7
4E7D
996A
A9B8
5ED6
04F4
2CE1
B5D0
D980
BC10
ENDCHAR
STARTCHAR gbreve.fina
ENCODING -1
SWIDTH 449 0
DWIDTH 4 0
BBX 5 14 0 -5
BITMAP
030030
0D46A0
07FE30
001100
07E700
4E7D00
996A00
A9B800
5ED600
04F400
2CE100
B5D000
D98000
BC1000
ENDCHAR
STARTCHAR gcaron.fina
ENCODING -1
SWIDTH 449 0
DWIDTH 4 0
BBX 5 15 0 -5
BITMAP
024140
04B870
01DD10
00B700
000000
07E700
4E7D00
996A00
A9B800
5ED600
04F400
2CE100
B5D000
D98000
BC1000
ENDCHAR
STARTCHAR gcircumflex.fina
ENCODING -1
SWIDTH 449 0
DWIDTH 4 0
BBX 5 15 0 -5
BITMAP
002400
00CD00
05AC20
0A4A30
000000
07E700
4E7D00
996A00
A9B800
5ED600
04F400
2CE100
B5D000
D98000
BC1000
ENDCHAR
STARTCHAR uni0123.fina
ENCODING -1
SWIDTH 449 0
DWIDTH 4 0
BBX 4 14 0 -5
BITMAP
0046
0087
0073
0000
07E7
4E7D
996A
A9B8
5ED6
04F4
2CE1
B5D0
D980
BC10
ENDCHAR
STARTCHAR gdotaccent.fina
ENCODING -1
SWIDTH 449 0
DWIDTH 4 0
BBX 4 12 0 -5
BITMAP
00B7
0010
07E7
4E7D
996A
A9B8
5ED6
04F4
2CE1
B5D0
D980
BC10
ENDCHAR
STARTCHAR h.fina
ENCODING -1
SWIDTH 490 0
DWIDTH 4 0
BBX 5 10 0 0
BITMAP
01C900
079D00
0D4B00
1E7600
4DC000
6F8D20
7BCF20
7E6F00
7E3E00
593C00
ENDCHAR
STARTCHAR hbar.fina
ENCODING -1
SWIDTH 490 0
DWIDTH 4 0
BBX 5 9 0 0
BITMAP
069000
0A8000
6FFD00
1F4100
3E5D20
5CCF20
7F6F00
7E3E00
593C00
ENDCHAR
STARTCHAR hcircumflex.fina
ENCODING -1
SWIDTH 490 0
DWIDTH 4 0
BBX 5 13 0 0
BITMAP
007D10
02ED50
068670
01C900
079D00
0D4B00
1E7600
4DC000
6F8D20
7BCF20
7E6F00
7E3E00
593C00
ENDCHAR
STARTCHAR i.fina
ENCODING -1
SWIDTH 222 0
DWIDTH 2 0
BBX 3 7 0 0
BITMAP
0D50
0100
2D00
5C00
8A00
9800
9500
ENDCHAR
STARTCHAR dotlessi.fina
ENCODING -1
SWIDTH 222 0
DWIDTH 2 0
BBX 2 5 0 0
BITMAP
2D
5C
8A
98
95
ENDCHAR
STARTCHAR iacute.fina
ENCODING -1
SWIDTH 222 0
DWIDTH 2 0
BBX 4 9 0 0
BITMAP
00C2
05C0
0920
0000
2D00
5C00
8A00
9800
9500
ENDCHAR
STARTCHAR iacute_j.loclNLD.fina
ENCODING -1
SWIDTH 479 0
DWIDTH 4 0
BBX 6 14 0 -5
BITMAP
00B3C3
03D4D0
083830
000000
2C1D00
6B5C00
88AA00
8CE800
4DB600
04F400
3CE100
B5C000
D97000
BC1000
ENDCHAR
STARTCHAR ibreve.fina
ENCODING -1
SWIDTH 222 0
DWIDTH 2 0
BBX 5 9 -1 0
BITMAP
030120
1E2970
0AFD10
002000
02D000
05C000
08A000
098000
095000
ENDCHAR
STARTCHAR icircumflex.fina
ENCODING -1
SWIDTH 222 0
DWIDTH 2 0
BBX 3 10 0 0
BITMAP
0430
1DA0
87D0
C1C0
0000
2D00
5C00
8A00
9800
9500
ENDCHAR
STARTCHAR uni0209.fina
ENCODING -1
SWIDTH 222 0
DWIDTH 2 0
BBX 4 10 -1 0
BITMAP
3350
89D4
2D87
0929
0000
02D0
05C0
08A0
0980
0950
ENDCHAR
STARTCHAR idieresis.fina
ENCODING -1
SWIDTH 222 0
DWIDTH 2 0
BBX 4 7 0 0
BITMAP
C4D2
1010
2D00
5C00
8A00
9800
9500
ENDCHAR
STARTCHAR i.loclTRK.fina
ENCODING -1
SWIDTH 222 0
DWIDTH 2 0
BBX 3 7 0 0
BITMAP
1E40
0100
2D00
5C00
8A00
9800
9500
ENDCHAR
STARTCHAR uni1ECB.fina
ENCODING -1
SWIDTH 222 0
DWIDTH 2 0
BBX 4 10 -1 -3
BITMAP
00D5
0010
02D0
05C0
08A0
0980
0950
0000
1E40
0100
ENDCHAR
STARTCHAR igrave.fina
ENCODING -1
SWIDTH 222 0
DWIDTH 2 0
BBX 2 10 0 0
BITMAP
50
E3
78
0A
00
2D
5C
8A
98
95
ENDCHAR
STARTCHAR uni1EC9.fina
ENCODING -1
SWIDTH 222 0
DWIDTH 2 0
BBX 3 9 0 0
BITMAP
2E80
03D0
0D80
0100
2D00
5C00
8A00
9800
9500
ENDCHAR
STARTCHAR uni020B.fina
ENCODING -1
SWIDTH 222 0
DWIDTH 2 0
BBX 5 8 -1 0
BITMAP
06EB10
1E4C60
160340
02D000
05C000
08A000
098000
095000
ENDCHAR
STARTCHAR imacron.fina
ENCODING -1
SWIDTH 222 0
DWIDTH 2 0
BBX 3 7 0 0
BITMAP
BFE0
1220
2D00
5C00
8A00
9800
9500
ENDCHAR
STARTCHAR iogonek.fina
ENCODING -1
SWIDTH 222 0
DWIDTH 2 0
BBX 4 10 -1 -3
BITMAP
01E4
0010
02D0
06C0
0890
0980
0B30
2C00
1EE1
0110
ENDCHAR
STARTCHAR itilde.fina
ENCODING -1
SWIDTH 222 0
DWIDTH 2 0
BBX 5 8 -1 0
BITMAP
0BA480
3A7E30
000000
02D000
05C000
08A000
098000
095000
ENDCHAR
STARTCHAR j.fina
ENCODING -1
SWIDTH 229 0
DWIDTH 2 0
BBX 5 12 -2 -5
BITMAP
003E20
000100
003C00
005C00
007A00
008800
00A600
04E400
2BF100
B5C000
D97000
CC1000
ENDCHAR
STARTCHAR uni0237.fina
ENCODING -1
SWIDTH 229 0
DWIDTH 2 0
BBX 4 10 -2 -5
BITMAP
003C
005C
007A
0088
00A6
04E4
2BF1
B5C0
D970
CC10
ENDCHAR
STARTCHAR jcircumflex.fina
ENCODING -1
SWIDTH 229 0
DWIDTH 2 0
BBX 5 15 -2 -5
BITMAP
000420
002E90
0097C0
00C1C0
000000
003C00
005C00
007A00
008800
00A600
04E400
2BF100
B5C000
D97000
CC1000
ENDCHAR
STARTCHAR k.fina
ENCODING -1
SWIDTH 521 0
DWIDTH 5 0
BBX 5 10 0 0
BITMAP
01C900
079D00
0D4B00
1E7600
4DB000
6E7E50
7ABA80
7E7D30
7E9B10
593E70
ENDCHAR
STARTCHAR uni0137.fina
ENCODING -1
SWIDTH 521 0
DWIDTH 5 0
BBX 5 13 0 -3
BITMAP
01C900
079D00
0D4B00
1E7600
4DB000
6E7E50
7ABA80
7E7D30
7E9B10
593E70
046000
087000
073000
ENDCHAR
STARTCHAR kgreenlandic.fina
ENCODING -1
SWIDTH 541 0
DWIDTH 5 0
BBX 5 5 0 0
BITMAP
2C7E40
6CE870
8EA210
8ED3C0
699E70
ENDCHAR
STARTCHAR l.fina
ENCODING -1
SWIDTH 368 0
DWIDTH 3 0
BBX 4 10 0 0
BITMAP
01C8
089C
0D3C
1E39
4C85
6AC0
7E80
7E10
5D44
0BE3
ENDCHAR
STARTCHAR lacute.fina
ENCODING -1
SWIDTH 368 0
DWIDTH 3 0
BBX 6 13 0 0
BITMAP
000051
0007F3
003B30
01C800
089C00
0D3C00
1E3900
4C8500
6AC000
7E8000
7E1000
5D4400
0BE300
ENDCHAR
STARTCHAR lcaron.fina
ENCODING -1
SWIDTH 368 0
DWIDTH 3 0
BBX 6 10 0 0
BITMAP
01C800
089C00
0D3CC2
1E39B0
4C8500
6AC000
7E8000
7E1000
5D4400
0BE300
ENDCHAR
STARTCHAR uni013C.fina
ENCODING -1
SWIDTH 368 0
DWIDTH 3 0
BBX 4 13 0 -3
BITMAP
01C8
089C
0D3C
1E39
4C85
6AC0
7E80
7E10
5D44
0BE3
0A10
0E00
0A00
ENDCHAR
STARTCHAR ldot.fina
ENCODING -1
SWIDTH 466 0
DWIDTH 4 0
BBX 5 10 0 0
BITMAP
04B000
099000
0C6000
0E3000
2F6400
5DA700
7A0000
890120
7C3B40
2CE700
ENDCHAR
STARTCHAR uni01C9.fina
ENCODING -1
SWIDTH 555 0
DWIDTH 5 0
BBX 6 15 0 -5
BITMAP
01C800
089C00
0D3C00
1E4DE1
4C8510
6AC4B0
7E76B0
7E1890
5C4D70
0CDD50
005F30
03BF00
0B5B00
1DA600
0CB000
ENDCHAR
STARTCHAR lslash.fina
ENCODING -1
SWIDTH 368 0
DWIDTH 3 0
BBX 5 11 0 0
BITMAP
02AEC0
0B8320
02D800
0A8C00
0E2B00
4C5800
6BB200
7D9000
7E1000
4D4400
0BE300
ENDCHAR
STARTCHAR m.fina
ENCODING -1
SWIDTH 732 0
DWIDTH 7 0
BBX 7 5 0 0
BITMAP
2C6E3D40
6BDEBE50
8E6F7E30
8D4F2F20
682C0D00
ENDCHAR
STARTCHAR n.fina
ENCODING -1
SWIDTH 484 0
DWIDTH 4 0
BBX 5 5 0 0
BITMAP
2C5E10
6BDF10
8E6E00
8D4D00
683B00
ENDCHAR
STARTCHAR nacute.fina
ENCODING -1
SWIDTH 484 0
DWIDTH 4 0
BBX 5 9 0 0
BITMAP
000950
001E20
005500
000000
2C5E10
6BDF10
8E6E00
8D4D00
683B00
ENDCHAR
STARTCHAR napostrophe.fina
ENCODING -1
SWIDTH 484 0
DWIDTH 4 0
BBX 5 9 0 0
BITMAP
A00000
E00000
A00000
000000
2C5E10
6BDF10
8E6E00
8D4D00
683B00
ENDCHAR
STARTCHAR ncaron.fina
ENCODING -1
SWIDTH 484 0
DWIDTH 4 0
BBX 5 10 0 0
BITMAP
014150
03B780
01DD10
00B700
000000
2C5E10
6BDF10
8E6E00
8D4D00
683B00
ENDCHAR
STARTCHAR uni0146.fina
ENCODING -1
SWIDTH 484 0
DWIDTH 4 0
BBX 5 8 0 -3
BITMAP
2C5E10
6BDF10
8E6E00
8D4D00
683B00
046000
087000
073000
ENDCHAR
STARTCHAR eng.fina
ENCODING -1
SWIDTH 484 0
DWIDTH 4 0
BBX 5 8 0 -3
BITMAP
2C5E10
6BDF10
8E6D00
8D5A00
688700
00C300
95C000
6D4000
ENDCHAR
STARTCHAR uni01CC.fina
ENCODING -1
SWIDTH 725 0
DWIDTH 7 0
BBX 7 12 0 -5
BITMAP
00000A90
00000100
2C5E1A40
6BDF1D40
8E6E0F20
8D4D8F00
682ECD00
0001BB00
000AC800
0049B400
0088D000
005E5000
ENDCHAR
STARTCHAR ntilde.fina
ENCODING -1
SWIDTH 484 0
DWIDTH 4 0
BBX 5 8 0 0
BITMAP
07D3B0
0C5D60
000000
2C5E10
6BDF10
8E6E00
8D4D00
683B00
ENDCHAR
STARTCHAR o.fina
ENCODING -1
SWIDTH 453 0
DWIDTH 4 0
BBX 4 5 0 0
BITMAP
1BE4
7B7C
A74D
9A8A
2DD2
ENDCHAR
STARTCHAR oacute.fina
ENCODING -1
SWIDTH 453 0
DWIDTH 4 0
BBX 4 9 0 0
BITMAP
002D
0089
00A1
0000
1BE4
7B7C
A74D
9A8A
2DD2
ENDCHAR
STARTCHAR obreve.fina
ENCODING -1
SWIDTH 453 0
DWIDTH 4 0
BBX 5 9 0 0
BITMAP
120210
4C1C40
1CFB00
002000
1BE400
7B7C00
A74D00
9A8A00
2DD200
ENDCHAR
STARTCHAR ocircumflex.fina
ENCODING -1
SWIDTH 453 0
DWIDTH 4 0
BBX 4 10 0 0
BITMAP
0051
03E7
0B7A
1C1B
0000
1BE4
7B7C
A74D
9A8A
2DD2
ENDCHAR
STARTCHAR uni1ED1.fina
ENCODING -1
SWIDTH 453 0
DWIDTH 4 0
BBX 6 10 0 0
BITMAP
000050
0005B1
04D600
1C3B00
000000
1BE400
7B7C00
A74D00
9A8A00
2DD200
ENDCHAR
STARTCHAR uni1ED9.fina
ENCODING -1
SWIDTH 453 0
DWIDTH 4 0
BBX 4 13 0 -3
BITMAP
0051
03E7
0B7A
1C1B
0000
1BE4
7B7C
A74D
9A8A
2DD2
0000
0C70
0100
ENDCHAR
STARTCHAR uni1ED3.fina
ENCODING -1
SWIDTH 453 0
DWIDTH 4 0
BBX 4 10 0 0
BITMAP
5000
9800
04D6
1C3B
0000
1BE4
7B7C
A74D
9A8A
2DD2
ENDCHAR
STARTCHAR uni1ED5.fina
ENCODING -1
SWIDTH 453 0
DWIDTH 4 0
BBX 6 9 0 0
BITMAP
0007D1
000193
04E9E1
1D8C10
1CE500
7B7C00
A74D00
9A8A00
2DD200
ENDCHAR
STARTCHAR uni1ED7.fina
ENCODING -1
SWIDTH 453 0
DWIDTH 4 0
BBX 5 10 0 0
BITMAP
09B840
065800
06E700
1D3B00
000000
1BE400
7B7C00
A74D00
9A8A00
2DD200
ENDCHAR
STARTCHAR uni020D.fina
ENCODING -1
SWIDTH 453 0
DWIDTH 4 0
BBX 4 10 0 0
BITMAP
4150
B8F1
5AB4
0A37
0000
1BE4
7B7C
A74D
9A8A
2DD2
ENDCHAR
STARTCHAR odieresis.fina
ENCODING -1
SWIDTH 453 0
DWIDTH 4 0
BBX 4 7 0 0
BITMAP
1E3D
0101
1BE4
7B7C
A74D
9A8A
2DD2
ENDCHAR
STARTCHAR uni022B.fina
ENCODING -1
SWIDTH 453 0
DWIDTH 4 0
BBX 4 9 0 0
BITMAP
0BFE
0122
1E3D
0101
1BE4
7B7C
A74D
9A8A
2DD2
ENDCHAR
STARTCHAR uni0231.fina
ENCODING -1
SWIDTH 453 0
DWIDTH 4 0
BBX 4 9 0 0
BITMAP
0BFE
0122
03E2
0010
1BE4
7B7C
A74D
9A8A
2DD2
ENDCHAR
STARTCHAR uni1ECD.fina
ENCODING -1
SWIDTH 453 0
DWIDTH 4 0
BBX 4 8 0 -3
BITMAP
1BE4
7B7C
A74D
9A8A
2DD2
0000
0C70
0100
ENDCHAR
STARTCHAR ograve.fina
ENCODING -1
SWIDTH 453 0
DWIDTH 4 0
BBX 4 10 0 0
BITMAP
1400
2E10
0A50
0280
0000
1BE4
7B7C
A74D
9A8A
2DD2
ENDCHAR
STARTCHAR uni1ECF.fina
ENCODING -1
SWIDTH 453 0
DWIDTH 4 0
BBX 4 9 0 0
BITMAP
04E6
015A
01F5
0010
1BE4
7B7C
A74D
9A8A
2DD2
ENDCHAR
STARTCHAR ohorn.fina
ENCODING -1
SWIDTH 453 0
DWIDTH 4 0
BBX 5 7 0 0
BITMAP
000220
000960
1BFD10
7B7C00
A74D00
9A8A00
2DD200
ENDCHAR
STARTCHAR uni1EDB.fina
ENCODING -1
SWIDTH 453 0
DWIDTH 4 0
BBX 5 9 0 0
BITMAP
004B00
00A600
01A220
000960
1BFD10
7B7C00
A74D00
9A8A00
2DD200
ENDCHAR
STARTCHAR uni1EE3.fina
ENCODING -1
SWIDTH 453 0
DWIDTH 4 0
BBX 5 10 0 -3
BITMAP
000220
000960
1BFD10
7B7C00
A74D00
9A8A00
2DD200
000000
0C7000
010000
ENDCHAR
STARTCHAR uni1EDD.fina
ENCODING -1
SWIDTH 453 0
DWIDTH 4 0
BBX 5 10 0 0
BITMAP
230000
5C0000
0D3000
046220
000960
1BFD10
7B7C00
A74D00
9A8A00
2DD200
ENDCHAR
STARTCHAR uni1EDF.fina
ENCODING -1
SWIDTH 453 0
DWIDTH 4 0
BBX 5 9 0 0
BITMAP
07E300
018700
03F520
001960
1BFD10
7B7C00
A74D00
9A8A00
2DD200
ENDCHAR
STARTCHAR uni1EE1.fina
ENCODING -1
SWIDTH 453 0
DWIDTH 4 0
BBX 5 8 0 0
BITMAP
1D5A00
57BA20
000960
1BFD10
7B7C00
A74D00
9A8A00
2DD200
ENDCHAR
STARTCHAR ohungarumlaut.fina
ENCODING -1
SWIDTH 453 0
DWIDTH 4 0
BBX 5 10 0 0
BITMAP
005320
04DA70
087D20
092900
000000
1BE400
7B7C00
A74D00
9A8A00
2DD200
ENDCHAR
STARTCHAR uni020F.fina
ENCODING -1
SWIDTH 453 0
DWIDTH 4 0
BBX 5 8 0 0
BITMAP
08E900
3D3E30
340520
1BE400
7B7C00
A74D00
9A8A00
2DD200
ENDCHAR
STARTCHAR omacron.fina
ENCODING -1
SWIDTH 453 0
DWIDTH 4 0
BBX 4 7 0 0
BITMAP
0EFB
0221
1BE4
7B7C
A74D
9A8A
2DD2
ENDCHAR
STARTCHAR uni01EB.fina
ENCODING -1
SWIDTH 453 0
DWIDTH 4 0
BBX 4 8 0 -3
BITMAP
1BE4
7B7B
974D
A86B
4FF4
0A60
0D20
08E5
ENDCHAR
STARTCHAR oslash.fina
ENCODING -1
SWIDTH 463 0
DWIDTH 4 0
BBX 4 9 0 -2
BITMAP
0040
00A0
1BF5
7BDD
A98F
9DAB
3ED3
0910
0400
ENDCHAR
STARTCHAR oslashacute.fina
ENCODING -1
SWIDTH 463 0
DWIDTH 4 0
BBX 4 11 0 -2
BITMAP
00D2
05C0
0960
00A0
1BF5
7BDD
A98F
9DAB
3ED3
0910
0400
ENDCHAR
STARTCHAR otilde.fina
ENCODING -1
SWIDTH 453 0
DWIDTH 4 0
BBX 5 8 0 0
BITMAP
1D8750
679D10
000000
1BE400
7B7C00
A74D00
9A8A00
2DD200
ENDCHAR
STARTCHAR uni022D.fina
ENCODING -1
SWIDTH 453 0
DWIDTH 4 0
BBX 5 9 0 0
BITMAP
0AFF10
1EA950
679D10
000000
1BE400
7B7C00
A74D00
9A8A00
2DD200
ENDCHAR
STARTCHAR oe.fina
ENCODING -1
SWIDTH 686 0
DWIDTH 6 0
BBX 7 5 0 0
BITMAP
1BE7EA00
7B7F5E00
A74EB700
9A8F7850
2DC9EA00
ENDCHAR
STARTCHAR p.fina
ENCODING -1
SWIDTH 457 0
DWIDTH 4 0
BBX 6 10 -2 -5
BITMAP
005BD9
006E6E
006A4E
00BBA8
02EFA1
08B900
0B8700
0CA500
1CC100
0C9000
ENDCHAR
STARTCHAR thorn.fina
ENCODING -1
SWIDTH 483 0
DWIDTH 4 0
BBX 5 13 0 -4
BITMAP
094000
0E3000
2F1000
4D0000
6B9D10
7E7E30
9D1F10
ABB900
BC6000
B50000
C50000
B40000
100000
ENDCHAR
STARTCHAR q.fina
ENCODING -1
SWIDTH 449 0
DWIDTH 4 0
BBX 5 10 0 -4
BITMAP
000510
07EF10
4E7D00
996A00
A9B700
5EE500
00E300
01F100
02F000
005000
ENDCHAR
STARTCHAR r.fina
ENCODING -1
SWIDTH 495 0
DWIDTH 4 0
BBX 5 5 0 0
BITMAP
2C6E10
6CCF50
8F4D40
8D0000
680000
ENDCHAR
STARTCHAR racute.fina
ENCODING -1
SWIDTH 495 0
DWIDTH 4 0
BBX 5 9 0 0
BITMAP
000C30
004D00
008300
000000
2C6E10
6CCF50
8F4D40
8D0000
680000
ENDCHAR
STARTCHAR rcaron.fina
ENCODING -1
SWIDTH 495 0
DWIDTH 4 0
BBX 5 10 0 0
BITMAP
033230
068A50
03CC00
00D500
000000
2C6E10
6CCF50
8F4D40
8D0000
680000
ENDCHAR
STARTCHAR uni0157.fina
ENCODING -1
SWIDTH 495 0
DWIDTH 4 0
BBX 5 8 0 -3
BITMAP
2C6E10
6CCF50
8F4D40
8D0000
680000
650000
960000
920000
ENDCHAR
STARTCHAR uni0211.fina
ENCODING -1
SWIDTH 495 0
DWIDTH 4 0
BBX 5 10 0 0
BITMAP
235100
7AC500
1D7800
092A00
000000
2C6E10
6CCF50
8F4D40
8D0000
680000
ENDCHAR
STARTCHAR uni0213.fina
ENCODING -1
SWIDTH 495 0
DWIDTH 4 0
BBX 5 8 0 0
BITMAP
05EC10
0E4B70
060340
2C6E10
6CCF50
8F4D40
8D0000
680000
ENDCHAR
STARTCHAR s.fina
ENCODING -1
SWIDTH 394 0
DWIDTH 4 0
BBX 4 5 0 0
BITMAP
05A0
0C90
5BE3
C6D6
1AD2
ENDCHAR
STARTCHAR sacute.fina
ENCODING -1
SWIDTH 394 0
DWIDTH 4 0
BBX 4 9 0 0
BITMAP
002D
0079
00A1
0000
05A0
0C90
5BE3
C6D6
1AD2
ENDCHAR
STARTCHAR scaron.fina
ENCODING -1
SWIDTH 394 0
DWIDTH 4 0
BBX 5 10 0 0
BITMAP
041410
0A5D10
07B900
03D200
000000
05A000
0C9000
5BE300
C6D600
1AD200
ENDCHAR
STARTCHAR scedilla.fina
ENCODING -1
SWIDTH 394 0
DWIDTH 4 0
BBX 4 9 0 -4
BITMAP
05A0
0B90
3EF2
C3C6
4CE2
03E1
00D0
6E80
0100
ENDCHAR
STARTCHAR scircumflex.fina
ENCODING -1
SWIDTH 394 0
DWIDTH 4 0
BBX 4 10 0 0
BITMAP
0051
03E8
0A7B
1C1C
0000
05A0
0C90
5BE3
C6D6
1AD2
ENDCHAR
STARTCHAR uni0219.fina
ENCODING -1
SWIDTH 394 0
DWIDTH 4 0
BBX 4 8 0 -3
BITMAP
05A0
0C90
5BE3
C6D6
1AD2
0560
0870
0820
ENDCHAR
STARTCHAR germandbls.fina
ENCODING -1
SWIDTH 580 0
DWIDTH 5 0
BBX 6 11 0 -2
BITMAP
01AE80
09A4F1
1E12E0
4C1D70
6A8B00
797E40
892BE1
89E1F2
99BD90
980000
870000
ENDCHAR
STARTCHAR uni01C9.ss01.fina
ENCODING -1
SWIDTH 466 0
DWIDTH 4 0
BBX 5 14 0 -5
BITMAP
087000
0C6000
0E4E40
2F1100
5D1E00
7A3E00
885C00
99CA00
5ED800
03E600
1CD300
95E000
D89000
AD2000
ENDCHAR
STARTCHAR eng.ss01.fina
ENCODING -1
SWIDTH 484 0
DWIDTH 4 0
BBX 5 10 0 -5
BITMAP
2C5E10
6BDF10
8E6E00
8D4C00
686A00
01D700
0BD500
66D100
B8B000
7E3000
ENDCHAR
STARTCHAR p.ss01.fina
ENCODING -1
SWIDTH 488 0
DWIDTH 4 0
BBX 7 10 -2 -5
BITMAP
001E4D20
003FCF20
004F4F00
005C3E00
00BB3C00
03E90000
09A80000
0AA50000
1AD10000
0C900000
ENDCHAR
STARTCHAR z.ss01.fina
ENCODING -1
SWIDTH 406 0
DWIDTH 4 0
BBX 5 10 -1 -4
BITMAP
035140
06DFE0
006D20
04D200
05F500
008D00
04DE00
1C6B00
59B500
3E9000
ENDCHAR
STARTCHAR zacute.ss01.fina
ENCODING -1
SWIDTH 406 0
DWIDTH 4 0
BBX 5 13 -1 -4
BITMAP
0002C0
000880
000A00
035140
06DFE0
006D20
04D200
05F500
008D00
04DE00
1C6B00
59B500
3E9000
ENDCHAR
STARTCHAR zcaron.ss01.fina
ENCODING -1
SWIDTH 406 0
DWIDTH 4 0
BBX 6 14 -1 -4
BITMAP
005141
00B4D1
008B80
004D10
035140
06DFE0
006D20
04D200
05F500
008D00
04DE00
1C6B00
59B500
3E9000
ENDCHAR
STARTCHAR zdotaccent.ss01.fina
ENCODING -1
SWIDTH 406 0
DWIDTH 4 0
BBX 5 11 -1 -4
BITMAP
004E10
035240
06DFE0
006D20
04D200
05F500
008D00
04DE00
1C6B00
59B500
3E9000
ENDCHAR
STARTCHAR t.fina
ENCODING -1
SWIDTH 413 0
DWIDTH 4 0
BBX 4 9 0 0
BITMAP
00AA
06AD
0B6B
0EB3
EFFE
4E21
2E00
1F45
08E7
ENDCHAR
STARTCHAR tbar.fina
ENCODING -1
SWIDTH 387 0
DWIDTH 3 0
BBX 4 8 0 0
BITMAP
0780
0B70
0E40
CFF6
EFF2
6C20
3E45
0AE4
ENDCHAR
STARTCHAR tcaron.fina
ENCODING -1
SWIDTH 413 0
DWIDTH 4 0
BBX 6 9 0 0
BITMAP
00AA00
06AD68
0B6B74
0EB300
EFFE00
4E2100
2E0000
1F4500
08E700
ENDCHAR
STARTCHAR uni0163.fina
ENCODING -1
SWIDTH 413 0
DWIDTH 4 0
BBX 4 13 0 -4
BITMAP
00AA
06AD
0B6B
0EB3
EFFE
4E21
2E00
1F12
0CEA
09E1
00C2
5FB0
0200
ENDCHAR
STARTCHAR uni021B.fina
ENCODING -1
SWIDTH 413 0
DWIDTH 4 0
BBX 4 12 0 -3
BITMAP
00AA
06AD
0B6B
0EB3
EFFE
4E21
2E00
1F45
08E7
0470
0780
0740
ENDCHAR
STARTCHAR u.fina
ENCODING -1
SWIDTH 460 0
DWIDTH 4 0
BBX 4 5 0 0
BITMAP
2C1C
6B5D
89AB
8CEA
5D88
ENDCHAR
STARTCHAR uacute.fina
ENCODING -1
SWIDTH 460 0
DWIDTH 4 0
BBX 5 9 0 0
BITMAP
000B30
003D10
008300
000000
2C1C00
6B5D00
89AB00
8CEA00
5D8800
ENDCHAR
STARTCHAR ubreve.fina
ENCODING -1
SWIDTH 460 0
DWIDTH 4 0
BBX 5 9 0 0
BITMAP
030020
0E3880
08FD20
002000
2C1C00
6B5D00
89AB00
8CEA00
5D8800
ENDCHAR
STARTCHAR ucircumflex.fina
ENCODING -1
SWIDTH 460 0
DWIDTH 4 0
BBX 5 10 0 0
BITMAP
003300
00DC00
068E00
0B2B10
000000
2C1C00
6B5D00
89AB00
8CEA00
5D8800
ENDCHAR
STARTCHAR uni0215.fina
ENCODING -1
SWIDTH 460 0
DWIDTH 4 0
BBX 4 10 0 0
BITMAP
2351
6BC5
1D69
082A
0000
2C1C
6B5D
89AB
8CEA
5D88
ENDCHAR
STARTCHAR udieresis.fina
ENCODING -1
SWIDTH 460 0
DWIDTH 4 0
BBX 5 7 0 0
BITMAP
0A5C30
010100
2C1C00
6B5D00
89AB00
8CEA00
5D8800
ENDCHAR
STARTCHAR uni1EE5.fina
ENCODING -1
SWIDTH 460 0
DWIDTH 4 0
BBX 4 8 0 -3
BITMAP
2C1C
6B5D
89AB
8CEA
5D88
0000
0B80
0100
ENDCHAR
STARTCHAR ugrave.fina
ENCODING -1
SWIDTH 460 0
DWIDTH 4 0
BBX 4 10 0 0
BITMAP
0500
0D40
06A0
00A0
0000
2C1C
6B5D
89AB
8CEA
5D88
ENDCHAR
STARTCHAR uni1EE7.fina
ENCODING -1
SWIDTH 460 0
DWIDTH 4 0
BBX 4 9 0 0
BITMAP
01EA
003D
00BA
0010
2C1C
6B5D
89AB
8CEA
5D88
ENDCHAR
STARTCHAR uhorn.fina
ENCODING -1
SWIDTH 472 0
DWIDTH 4 0
BBX 6 7 0 0
BITMAP
000040
0001D1
2C1E80
6B5D00
89AB00
8CEA00
5D8800
ENDCHAR
STARTCHAR uni1EE9.fina
ENCODING -1
SWIDTH 472 0
DWIDTH 4 0
BBX 6 9 0 0
BITMAP
000B30
003D10
008340
0001D1
2C1E80
6B5D00
89AB00
8CEA00
5D8800
ENDCHAR
STARTCHAR uni1EF1.fina
ENCODING -1
SWIDTH 472 0
DWIDTH 4 0
BBX 6 10 0 -3
BITMAP
000040
0001D1
2C1E80
6B5D00
89AB00
8CEA00
5D8800
000000
0B8000
010000
ENDCHAR
STARTCHAR uni1EEB.fina
ENCODING -1
SWIDTH 472 0
DWIDTH 4 0
BBX 6 10 0 0
BITMAP
050000
0D4000
06A000
00A040
0001D1
2C1E80
6B5D00
89AB00
8CEA00
5D8800
ENDCHAR
STARTCHAR uni1EED.fina
ENCODING -1
SWIDTH 472 0
DWIDTH 4 0
BBX 6 9 0 0
BITMAP
01EA00
003D00
00BA40
0011D1
2C1E80
6B5D00
89AB00
8CEA00
5D8800
ENDCHAR
STARTCHAR uni1EEF.fina
ENCODING -1
SWIDTH 472 0
DWIDTH 4 0
BBX 6 8 0 0
BITMAP
07B650
0A6D50
0001D1
2C1E80
6B5D00
89AB00
8CEA00
5D8800
ENDCHAR
STARTCHAR uhungarumlaut.fina
ENCODING -1
SWIDTH 460 0
DWIDTH 4 0
BBX 5 10 0 0
BITMAP
005140
00E8C0
03C960
064A00
000000
2C1C00
6B5D00
89AB00
8CEA00
5D8800
ENDCHAR
STARTCHAR uni0217.fina
ENCODING -1
SWIDTH 460 0
DWIDTH 4 0
BBX 5 8 0 0
BITMAP
04EC10
0E5A80
070250
2C1C00
6B5D00
89AB00
8CEA00
5D8800
ENDCHAR
STARTCHAR umacron.fina
ENCODING -1
SWIDTH 460 0
DWIDTH 4 0
BBX 5 7 0 0
BITMAP
0AFF10
012200
2C1C00
6B5D00
89AB00
8CEA00
5D8800
ENDCHAR
STARTCHAR uogonek.fina
ENCODING -1
SWIDTH 460 0
DWIDTH 4 0
BBX 5 9 0 -4
BITMAP
2C1C00
6B5D00
89AB00
8CEA00
5DA900
00D300
00E000
00BF30
000200
ENDCHAR
STARTCHAR uring.fina
ENCODING -1
SWIDTH 460 0
DWIDTH 4 0
BBX 4 9 0 0
BITMAP
01DA
059D
03FA
0010
2C1C
6B5D
89AB
8CEA
5D88
ENDCHAR
STARTCHAR utilde.fina
ENCODING -1
SWIDTH 460 0
DWIDTH 4 0
BBX 5 8 0 0
BITMAP
0AB490
1B6E40
000000
2C1C00
6B5D00
89AB00
8CEA00
5D8800
ENDCHAR
STARTCHAR v.fina
ENCODING -1
SWIDTH 420 0
DWIDTH 4 0
BBX 5 5 0 0
BITMAP
771D10
886B00
89C500
7DD000
3E4000
ENDCHAR
STARTCHAR w.fina
ENCODING -1
SWIDTH 666 0
DWIDTH 6 0
BBX 7 5 0 0
BITMAP
772C0C30
888D2E00
89DD8800
7DBEE200
3E3D7000
ENDCHAR
STARTCHAR wacute.fina
ENCODING -1
SWIDTH 666 0
DWIDTH 6 0
BBX 7 9 0 0
BITMAP
0001D000
0007A000
000A1000
00000000
772C0C30
888D2E00
89DD8800
7DBEE200
3E3D7000
ENDCHAR
STARTCHAR wcircumflex.fina
ENCODING -1
SWIDTH 666 0
DWIDTH 6 0
BBX 7 10 0 0
BITMAP
00052000
002E8000
00A7B000
00C1C000
00000000
772C0C30
888D2E00
89DD8800
7DBEE200
3E3D7000
ENDCHAR
STARTCHAR wdieresis.fina
ENCODING -1
SWIDTH 666 0
DWIDTH 6 0
BBX 7 7 0 0
BITMAP
00D3E100
00101000
772C0C30
888D2E00
89DD8800
7DBEE200
3E3D7000
ENDCHAR
STARTCHAR wgrave.fina
ENCODING -1
SWIDTH 666 0
DWIDTH 6 0
BBX 7 10 0 0
BITMAP
00500000
02F10000
00A60000
00190000
00000000
772C0C30
888D2E00
89DD8800
7DBEE200
3E3D7000
ENDCHAR
STARTCHAR x.fina
ENCODING -1
SWIDTH 580 0
DWIDTH 5 0
BBX 6 5 0 0
BITMAP
1E9BB0
28E990
31D500
C7F885
9E8EB1
ENDCHAR
STARTCHAR y.fina
ENCODING -1
SWIDTH 449 0
DWIDTH 4 0
BBX 4 10 0 -5
BITMAP
2C1D
6B5C
88AA
8CE8
4DB6
04F4
3CE1
B5C0
D970
BC10
ENDCHAR
STARTCHAR yacute.fina
ENCODING -1
SWIDTH 449 0
DWIDTH 4 0
BBX 5 14 0 -5
BITMAP
000B30
003D10
008300
000000
2C1D00
6B5C00
88AA00
8CE800
4DB600
04F400
3CE100
B5C000
D97000
BC1000
ENDCHAR
STARTCHAR ycircumflex.fina
ENCODING -1
SWIDTH 449 0
DWIDTH 4 0
BBX 5 15 0 -5
BITMAP
003300
00DC00
068E00
0B2B10
000000
2C1D00
6B5C00
88AA00
8CE800
4DB600
04F400
3CE100
B5C000
D97000
BC1000
ENDCHAR
STARTCHAR ydieresis.fina
ENCODING -1
SWIDTH 449 0
DWIDTH 4 0
BBX 5 12 0 -5
BITMAP
0A5C30
010100
2C1D00
6B5C00
88AA00
8CE800
4DB600
04F400
3CE100
B5C000
D97000
BC1000
ENDCHAR
STARTCHAR uni1EF5.fina
ENCODING -1
SWIDTH 449 0
DWIDTH 4 0
BBX 5 10 0 -5
BITMAP
2C1D00
6B5C00
88AA00
8CE800
4DB600
04F400
3CE100
B5C000
D9BE10
BC1100
ENDCHAR
STARTCHAR ygrave.fina
ENCODING -1
SWIDTH 449 0
DWIDTH 4 0
BBX 4 15 0 -5
BITMAP
0500
0D40
06A0
00A0
0000
2C1D
6B5C
88AA
8CE8
4DB6
04F4
3CE1
B5C0
D970
BC10
ENDCHAR
STARTCHAR uni1EF7.fina
ENCODING -1
SWIDTH 449 0
DWIDTH 4 0
BBX 4 14 0 -5
BITMAP
01EA
003D
00BA
0010
2C1D
6B5C
88AA
8CE8
4DB6
04F4
3CE1
B5C0
D970
BC10
ENDCHAR
STARTCHAR uni0233.fina
ENCODING -1
SWIDTH 449 0
DWIDTH 4 0
BBX 5 12 0 -5
BITMAP
0AFF10
012200
2C1D00
6B5C00
88AA00
8CE800
4DB600
04F400
3CE100
B5C000
D97000
BC1000
ENDCHAR
STARTCHAR uni1EF9.fina
ENCODING -1
SWIDTH 449 0
DWIDTH 4 0
BBX 5 13 0 -5
BITMAP
0AB490
1B6E40
000000
2C1D00
6B5C00
88AA00
8CE800
4DB600
04F400
3CE100
B5C000
D97000
BC1000
ENDCHAR
STARTCHAR z.fina
ENCODING -1
SWIDTH 412 0
DWIDTH 4 0
BBX 4 5 0 0
BITMAP
7FFC
17E5
3E30
B921
DFFD
ENDCHAR
STARTCHAR zacute.fina
ENCODING -1
SWIDTH 412 0
DWIDTH 4 0
BBX 4 9 0 0
BITMAP
001D
006A
00A1
0000
7FFC
17E5
3E30
B921
DFFD
ENDCHAR
STARTCHAR zcaron.fina
ENCODING -1
SWIDTH 412 0
DWIDTH 4 0
BBX 5 10 0 0
BITMAP
041320
095D20
06BA00
02E200
000000
7FFC00
17E500
3E3000
B92100
DFFD00
ENDCHAR
STARTCHAR zdotaccent.fina
ENCODING -1
SWIDTH 412 0
DWIDTH 4 0
BBX 4 7 0 0
BITMAP
02E3
0010
7FFC
17E5
3E30
B921
DFFD
ENDCHAR
STARTCHAR iacute_j.loclNLD
ENCODING -1
SWIDTH 479 0
DWIDTH 4 0
BBX 6 14 0 -5
BITMAP
00B3C3
03D4D0
083830
000000
2C1D00
6B5C00
88AA21
8CEBD2
4DBD30
04F400
3CE100
B5C000
D97000
BC1000
ENDCHAR
STARTCHAR b.ss01
ENCODING -1
SWIDTH 449 0
DWIDTH 4 0
BBX 6 10 0 0
BITMAP
01D800
089C00
0D4B00
2E7600
5DC000
6F9A00
7A9F41
7A4FE2
5C8900
0CC100
ENDCHAR
STARTCHAR d.ss01
ENCODING -1
SWIDTH 470 0
DWIDTH 4 0
BBX 6 9 0 0
BITMAP
000780
000A70
000C50
000E20
07EF00
4E7C00
996A11
A9CAA4
5E7D80
ENDCHAR
STARTCHAR f.ss01
ENCODING -1
SWIDTH 323 0
DWIDTH 3 0
BBX 7 15 -2 -5
BITMAP
0001C900
00079D00
000D3C00
001E3900
004C8500
005BC100
007E8200
007FFE10
008A2100
00890000
02980000
1CA70000
49B40000
58E10000
2D800000
ENDCHAR
STARTCHAR l.ss01
ENCODING -1
SWIDTH 237 0
DWIDTH 2 0
BBX 4 9 0 0
BITMAP
0870
0C60
0E30
2F10
5D00
7A00
8811
99B2
5E60
ENDCHAR
STARTCHAR lacute.ss01
ENCODING -1
SWIDTH 237 0
DWIDTH 2 0
BBX 5 12 0 0
BITMAP
000420
005F40
02C300
087000
0C6000
0E3000
2F1000
5D0000
7A0000
881100
99B200
5E6000
ENDCHAR
STARTCHAR uni013C.ss01
ENCODING -1
SWIDTH 237 0
DWIDTH 2 0
BBX 4 12 0 -3
BITMAP
0870
0C60
0E30
2F10
5D00
7A00
8811
99B2
5E60
3700
6900
6400
ENDCHAR
STARTCHAR uni01C9.ss01
ENCODING -1
SWIDTH 491 0
DWIDTH 4 0
BBX 6 14 0 -5
BITMAP
087000
0C6000
0E5E40
2F1100
5D1E00
7A3E00
885C12
99CCD4
5EDE40
03E600
1CD300
95E000
D89000
AD2000
ENDCHAR
STARTCHAR lslash.ss01
ENCODING -1
SWIDTH 324 0
DWIDTH 3 0
BBX 4 10 0 0
BITMAP
04B0
0990
0C72
0EF5
8F40
9D00
7A00
8902
7B4C
2DD4
ENDCHAR
STARTCHAR eng.ss01
ENCODING -1
SWIDTH 508 0
DWIDTH 5 0
BBX 6 10 0 -5
BITMAP
2C5E10
6BDF10
8E6E02
8D4DC6
686F60
01D800
0BD500
66D100
B8B000
7E3000
ENDCHAR
STARTCHAR o.ss01
ENCODING -1
SWIDTH 451 0
DWIDTH 4 0
BBX 5 5 0 0
BITMAP
1BFB20
7B7ED0
A74C20
9A8900
2DD200
ENDCHAR
STARTCHAR oacute.ss01
ENCODING -1
SWIDTH 451 0
DWIDTH 4 0
BBX 5 9 0 0
BITMAP
002D00
008900
00A100
000000
1BFB20
7B7ED0
A74C20
9A8900
2DD200
ENDCHAR
STARTCHAR obreve.ss01
ENCODING -1
SWIDTH 451 0
DWIDTH 4 0
BBX 5 9 0 0
BITMAP
120210
4C1C40
1CFB00
002000
1BFB20
7B7ED0
A74C20
9A8900
2DD200
ENDCHAR
STARTCHAR ocircumflex.ss01
ENCODING -1
SWIDTH 451 0
DWIDTH 4 0
BBX 5 10 0 0
BITMAP
005100
03E700
0B7A00
1C1B00
000000
1BFB20
7B7ED0
A74C20
9A8900
2DD200
ENDCHAR
STARTCHAR uni1ED1.ss01
ENCODING -1
SWIDTH 451 0
DWIDTH 4 0
BBX 6 10 0 0
BITMAP
000050
0005B1
04D600
1C3B00
000000
1BFB20
7B7ED0
A74C20
9A8900
2DD200
ENDCHAR
STARTCHAR uni1ED9.ss01
ENCODING -1
SWIDTH 451 0
DWIDTH 4 0
BBX 5 13 0 -3
BITMAP
005100
03E700
0B7A00
1C1B00
000000
1BFB20
7B7ED0
A74C20
9A8900
2DD200
000000
0C7000
010000
ENDCHAR
STARTCHAR uni1ED3.ss01
ENCODING -1
SWIDTH 451 0
DWIDTH 4 0
BBX 5 10 0 0
BITMAP
500000
980000
04D600
1C3B00
000000
1BFB20
7B7ED0
A74C20
9A8900
2DD200
ENDCHAR
STARTCHAR uni1ED5.ss01
ENCODING -1
SWIDTH 451 0
DWIDTH 4 0
BBX 6 9 0 0
BITMAP
0007D1
000193
04E9E1
1D8C10
1BFC20
7B7ED0
A74C20
9A8900
2DD200
ENDCHAR
STARTCHAR uni1ED7.ss01
ENCODING -1
SWIDTH 451 0
DWIDTH 4 0
BBX 5 10 0 0
BITMAP
09B840
065800
06E700
1D3B00
000000
1BFB20
7B7ED0
A74C20
9A8900
2DD200
ENDCHAR
STARTCHAR uni020D.ss01
ENCODING -1
SWIDTH 451 0
DWIDTH 4 0
BBX 5 10 0 0
BITMAP
415000
B8F100
5AB400
0A3700
000000
1BFB20
7B7ED0
A74C20
9A8900
2DD200
ENDCHAR
STARTCHAR odieresis.ss01
ENCODING -1
SWIDTH 451 0
DWIDTH 4 0
BBX 5 7 0 0
BITMAP
1E3D00
010100
1BFB20
7B7ED0
A74C20
9A8900
2DD200
ENDCHAR
STARTCHAR uni022B.ss01
ENCODING -1
SWIDTH 451 0
DWIDTH 4 0
BBX 5 9 0 0
BITMAP
0BFE00
012200
1E3D00
010100
1BFB20
7B7ED0
A74C20
9A8900
2DD200
ENDCHAR
STARTCHAR uni0231.ss01
ENCODING -1
SWIDTH 451 0
DWIDTH 4 0
BBX 5 9 0 0
BITMAP
0BFE00
012200
03E200
001000
1BFB20
7B7ED0
A74C20
9A8900
2DD200
ENDCHAR
STARTCHAR uni1ECD.ss01
ENCODING -1
SWIDTH 451 0
DWIDTH 4 0
BBX 5 8 0 -3
BITMAP
1BFB20
7B7ED0
A74C20
9A8900
2DD200
000000
0C7000
010000
ENDCHAR
STARTCHAR ograve.ss01
ENCODING -1
SWIDTH 451 0
DWIDTH 4 0
BBX 5 10 0 0
BITMAP
140000
2E1000
0A5000
028000
000000
1BFB20
7B7ED0
A74C20
9A8900
2DD200
ENDCHAR
STARTCHAR uni1ECF.ss01
ENCODING -1
SWIDTH 451 0
DWIDTH 4 0
BBX 5 9 0 0
BITMAP
04E600
015A00
01F500
001000
1BFB20
7B7ED0
A74C20
9A8900
2DD200
ENDCHAR
STARTCHAR ohorn.ss01
ENCODING -1
SWIDTH 451 0
DWIDTH 4 0
BBX 5 7 0 0
BITMAP
000230
000870
1BFF40
7B7ED0
A74C20
9A8900
2DD200
ENDCHAR
STARTCHAR uni1EDB.ss01
ENCODING -1
SWIDTH 451 0
DWIDTH 4 0
BBX 5 9 0 0
BITMAP
004B00
00A600
01A230
000870
1BFF40
7B7ED0
A74C20
9A8900
2DD200
ENDCHAR
STARTCHAR uni1EE3.ss01
ENCODING -1
SWIDTH 451 0
DWIDTH 4 0
BBX 5 10 0 -3
BITMAP
000230
000870
1BFF40
7B7ED0
A74C20
9A8900
2DD200
000000
0C7000
010000
ENDCHAR
STARTCHAR uni1EDD.ss01
ENCODING -1
SWIDTH 451 0
DWIDTH 4 0
BBX 5 10 0 0
BITMAP
230000
5C0000
0D3000
046230
000870
1BFF40
7B7ED0
A74C20
9A8900
2DD200
ENDCHAR
STARTCHAR uni1EDF.ss01
ENCODING -1
SWIDTH 451 0
DWIDTH 4 0
BBX 5 9 0 0
BITMAP
07E300
018700
03F530
001870
1BFF40
7B7ED0
A74C20
9A8900
2DD200
ENDCHAR
STARTCHAR uni1EE1.ss01
ENCODING -1
SWIDTH 451 0
DWIDTH 4 0
BBX 5 8 0 0
BITMAP
1D5A00
57B930
000870
1BFF40
7B7ED0
A74C20
9A8900
2DD100
ENDCHAR
STARTCHAR ohungarumlaut.ss01
ENCODING -1
SWIDTH 451 0
DWIDTH 4 0
BBX 5 10 0 0
BITMAP
005320
04DA70
087D20
092900
000000
1BFB20
7B7ED0
A74C20
9A8900
2DD200
ENDCHAR
STARTCHAR uni020F.ss01
ENCODING -1
SWIDTH 451 0
DWIDTH 4 0
BBX 5 8 0 0
BITMAP
08E900
3D3E30
340520
1BFB20
7B7ED0
A74C20
9A8900
2DD200
ENDCHAR
STARTCHAR omacron.ss01
ENCODING -1
SWIDTH 451 0
DWIDTH 4 0
BBX 5 7 0 0
BITMAP
0EFB00
022100
1BFB20
7B7ED0
A74C20
9A8900
2DD200
ENDCHAR
STARTCHAR uni01EB.ss01
ENCODING -1
SWIDTH 451 0
DWIDTH 4 0
BBX 5 8 0 -3
BITMAP
1AFB20
7B7ED0
A74C30
A86A00
4FF300
0A6000
0D2000
08E500
ENDCHAR
STARTCHAR oslash.ss01
ENCODING -1
SWIDTH 451 0
DWIDTH 4 0
BBX 5 8 0 -1
BITMAP
004000
00B000
2DFE50
89DDC0
AABB00
8EE700
1C9000
090000
ENDCHAR
STARTCHAR oslashacute.ss01
ENCODING -1
SWIDTH 451 0
DWIDTH 4 0
BBX 5 10 0 -1
BITMAP
00D200
05C000
096000
00B000
2DFE50
89DDC0
AABB00
8EE700
1C9000
090000
ENDCHAR
STARTCHAR otilde.ss01
ENCODING -1
SWIDTH 451 0
DWIDTH 4 0
BBX 5 8 0 0
BITMAP
1D8750
679D10
000000
1BFB20
7B7ED0
A74C20
9A8900
2DD200
ENDCHAR
STARTCHAR uni022D.ss01
ENCODING -1
SWIDTH 451 0
DWIDTH 4 0
BBX 5 9 0 0
BITMAP
0AFF10
1EA950
679D10
000000
1BFB20
7B7ED0
A74C20
9A8900
2DD200
ENDCHAR
STARTCHAR p.ss01
ENCODING -1
SWIDTH 500 0
DWIDTH 5 0
BBX 8 10 -2 -5
BITMAP
001E4D20
003FCF10
004F4E03
005C4D78
00BB2EA0
03E90000
09A80000
0AA50000
1AD10000
0C900000
ENDCHAR
STARTCHAR t.ss01
ENCODING -1
SWIDTH 343 0
DWIDTH 3 0
BBX 5 8 0 0
BITMAP
078000
0B7000
0E4000
CFF700
5E2000
5C0110
5E4B20
1CE600
ENDCHAR
STARTCHAR uni0163.ss01
ENCODING -1
SWIDTH 343 0
DWIDTH 3 0
BBX 5 12 0 -4
BITMAP
057000
0B7000
0E4000
CFE700
4E2000
5C0000
5C0830
2FDB00
0AE100
00D100
6FA000
020000
ENDCHAR
STARTCHAR uni021B.ss01
ENCODING -1
SWIDTH 343 0
DWIDTH 3 0
BBX 5 11 0 -3
BITMAP
078000
0B7000
0E4000
CFF700
5E2000
5C0110
5E4B20
1CE600
056000
087000
083000
ENDCHAR
STARTCHAR z.ss01
ENCODING -1
SWIDTH 432 0
DWIDTH 4 0
BBX 6 10 -1 -4
BITMAP
035140
06EFE0
006D20
04D205
05F7C8
008F40
04DE00
1C6B00
59B500
3E9000
ENDCHAR
STARTCHAR zacute.ss01
ENCODING -1
SWIDTH 432 0
DWIDTH 4 0
BBX 6 13 -1 -4
BITMAP
0002C0
000880
000A00
035140
06EFE0
006D20
04D205
05F7C8
008F40
04DE00
1C6B00
59B500
3E9000
ENDCHAR
STARTCHAR zcaron.ss01
ENCODING -1
SWIDTH 432 0
DWIDTH 4 0
BBX 6 14 -1 -4
BITMAP
005141
00B4D1
008B80
004D10
035140
06EFE0
006D20
04D205
05F7C8
008F40
04DE00
1C6B00
59B500
3E9000
ENDCHAR
STARTCHAR zdotaccent.ss01
ENCODING -1
SWIDTH 432 0
DWIDTH 4 0
BBX 6 11 -1 -4
BITMAP
004E10
035240
06EFE0
006D20
04D205
05F7C8
008F40
04DE00
1C6B00
59B500
3E9000
ENDCHAR
ENDFONT
